<?xml version="1.0" encoding="UTF-8"?>
<svg width="106px" height="76px" viewBox="0 0 106 76" version="1.1" xmlns="http://www.w3.org/2000/svg" xmlns:xlink="http://www.w3.org/1999/xlink">
    <!-- Generator: Sketch 53.2 (72643) - https://sketchapp.com -->
    <title>webdevbecca</title>
    <desc>Created with Sketch.</desc>
    <g id="Page-1" stroke="none" stroke-width="1" fill="none" fill-rule="evenodd">
        <g id="webdevbecca" transform="translate(1.000000, 0.000000)">
            <path d="M77.57,28.57 C75.66,22.57 69.42,20.02 64.36,20.01 C59.88,20.01 52.36,22.01 51.07,27.01 C49.84,31.67 54.34,37.39 58.54,36.93 C60.98,36.66 63.96,34.22 63.94,31.69 C63.9533744,29.8373027 62.5943638,28.2603376 60.76,28 C58.85,27.87 57,29.62 57.16,30 C57.32,30.38 59.93,29.18 60.77,30.13 C61.61,31.08 60.7,33.62 59.2,34.29 C56.99,35.29 52.66,32.38 52.65,29.29 C52.65,25.82 58.11,22.73 62.22,21.96 C66.33,21.19 71.79,22.35 74.41,26.48 C75.9036304,28.88762 76.3206998,31.8107323 75.56,34.54 C74.04,39.81 68.69,42.15 67.35,42.74 C65.1,43.74 62.55,44.23 57.66,43.89 C55.73,43.75 36.95,42.31 36.44,35.79 C36.25,33.4 38.71,32.73 39.69,28.23 C40.54,24.34 39.09,23.08 39.1,19.58 C39.1,13.32 43.8,6.38 49.88,3.12 C51.42,2.35 56.28,-0.25 61,1.48 C64.58,2.76 66.7,6.37 67.15,10 C67.42,12.13 66.54,15.71 64.77,16.51 C63.38,17.14 59.36,14.3 58.37,13.72 C58.3144334,13.6303464 58.2543563,13.5435683 58.19,13.46 C57,12.09 55,12.08 54.54,14 C54.3530096,13.2394664 53.7637346,12.6428973 53.0055588,12.4465653 C52.2473831,12.2502333 51.4426208,12.485812 50.91,13.06 C49.9308269,14.1028432 49.9308269,15.7271568 50.91,16.77 L54.52,20.68 L58.17,17.17 C58.7041626,16.6486123 58.9727003,15.9128927 58.9,15.17 C60.2888788,17.4965911 62.9537478,18.7438924 65.63,18.32 C68.7,17.79 68.81,9.49 68.76,8.8 C68.4066793,5.26193181 66.2189764,2.17028232 63,0.66 C56.5480058,-0.976016321 49.7026748,0.569943324 44.58,4.82 C40.2196877,8.67717108 37.5599438,14.1008921 37.18,19.91 C36.93,25.45 39.45,28.86 36.87,32.33 C35.28,34.47 32.38,35.8 32.71,37.14 C32.89,37.84 33.84,38.14 34.18,38.21 C41.64,40.37 44.04,44.61 54.61,45.4 C62.12,45.96 70.02,46.55 74.78,41.3 C77.8479836,37.8242314 78.903034,33.0103279 77.57,28.57 Z" id="Path" fill="#4D4D4D" fill-rule="nonzero"></path>
            <path d="M15.4474417,67.1546152 C19.9087351,70.3128974 23.8540965,69.3551511 24.7645645,66.6757421 C25.917824,63.2552198 22.5946157,55.8098831 19.9997819,56.0037127 C16.8586672,56.2431493 13.1864461,67.8501214 16.008897,72.6958612 C17.6022161,75.4436807 21.1682158,75.7971347 24.5672965,73.4141708" id="Path" stroke="#333333" stroke-width="1.5"></path>
            <path d="M56.4026976,66.5675302 C60.4178616,69.559587 63.9686869,68.6522484 64.7881081,66.1138609 C65.8260416,62.8733662 62.8351542,55.8198893 60.4998037,56.0035173 C57.6728005,56.2303519 54.3678015,67.2264308 56.9080073,71.8171316 C58.3419945,74.4203291 61.5513942,74.7551802 64.6105668,72.4976355" id="Path" stroke="#9E005D" stroke-width="1.5"></path>
            <path d="M41.5013676,67.028106 C42.098597,62.2579426 44.9556132,57.4549568 47.4736613,57.4658976 C50.9763309,57.4658976 53.7526404,63.8771724 52.816443,68.8442692 C52.332203,71.4919288 50.6212215,74.620981 47.9740427,74.9710847 C44.6166451,75.4196551 42.340717,70.507262 42.1308796,70.0696323 C39.5482661,64.3804465 41.5013676,54.8401195 46.8441493,46" id="Path" stroke="#9E005D" stroke-width="1.5"></path>
            <path d="M11.8069549,66.9143424 C11.1121228,62.1486331 7.83186881,57.3938796 5.34340026,57.4377022 C1.83692185,57.5034361 -0.796976684,63.956316 0.221033177,68.919227 C0.770435324,71.5595394 2.53175397,74.6599893 5.24644694,74.9777033 C8.60749537,75.3721068 10.805104,70.4091958 10.9828517,69.9709697 C13.4551614,64.2302073 11.3060294,54.7097445 5.7796902,46" id="Path" stroke="#333333" stroke-width="1.5"></path>
            <path d="M27,56.4880366 C27.9824305,67.5199345 30.8008785,75.0788275 32.9590044,74.9993796 C35.1171303,74.9199318 37.5651537,67.1340451 38,56" id="Path" stroke="#333333" stroke-width="1.5"></path>
            <path d="M78,59.9106894 C77.7638163,59.3764148 76.1938897,55.9661514 73.9293052,56.000254 C71.0534219,56.000254 68.663799,61.6158212 69.0389142,66.7312164 C69.3306705,70.6075492 71.2479261,74.6884978 73.8459463,74.9840539 C76.0271718,75.2227724 77.5693122,72.710545 77.8610684,72.1762704" id="Path" stroke="#9E005D" stroke-width="1.5"></path>
            <path d="M91,59.9445908 C90.737168,59.4103091 89.0210295,56 86.4854736,56 C83.2851074,56 80.6258658,61.6156422 81.0433049,66.7311058 C81.3679797,70.6074904 83.5015573,74.6884936 86.3927094,74.9840537 C88.8200404,75.2227754 90.5361788,72.7105144 90.8608536,72.1762326" id="Path" stroke="#9E005D" stroke-width="1.5"></path>
            <path d="M102.142054,66.0348458 C101.375066,65.521519 100.322405,65.2319825 99.223102,65.2319825 C98.123799,65.2319825 97.071138,65.521519 96.3041504,66.0348458 C94.1628127,67.500292 93.0259799,69.4696143 93.1540796,71.4916774 C93.4964786,73.8797386 96.1329509,75.2857934 98.1531051,74.9510184 C100.652618,74.5269702 101.970854,71.469359 102.484453,70.2530101 C103.631489,67.5971289 105.292124,61.2698825 102.347493,57.8328598 C100.0363,55.1323419 95.8247918,55.3108886 93,59.0715271" id="Path" stroke="#9E005D" stroke-width="1.5"></path>
            <path d="M103.865,75 L103.135,68" id="Path" stroke="#9E005D" stroke-width="1.5"></path>
        </g>
    </g>
</svg>