<?xml version="1.0" encoding="UTF-8"?>
<svg width="1187px" height="1017px" viewBox="0 0 1187 1017" version="1.1" xmlns="http://www.w3.org/2000/svg" xmlns:xlink="http://www.w3.org/1999/xlink">
    <!-- Generator: Sketch 53.2 (72643) - https://sketchapp.com -->
    <title>Group 17</title>
    <desc>Created with Sketch.</desc>
    <g id="Page-1" stroke="none" stroke-width="1" fill="none" fill-rule="evenodd">
        <g id="Group-17" transform="translate(0.000000, 0.720298)">
            <rect id="Rectangle" stroke="#2A2D2E" stroke-width="3" fill="#FFECE1" x="553.188602" y="242.263261" width="79.6268346" height="66.9312377"></rect>
            <path d="M978.10858,420.671255 C1002.93243,428.616131 1056.80584,503.540438 1056.9633,547.117116 C1057.10262,585.672436 1089.46449,585.790987 1089.32518,547.235667 C1089.00992,459.99167 1038.94407,389.083968 977.499975,388.858881 C916.055877,388.633794 866.501159,459.176558 866.816414,546.420555 C866.941113,580.929882 898.215506,581.044449 898.090807,546.535122 C897.700007,438.384635 971.73075,418.630031 978.10858,420.671255 Z" id="Oval" stroke="#2A2D2E" stroke-width="3" fill="#FFECE1" transform="translate(978.070271, 482.475647) scale(-1, -1) rotate(14.000000) translate(-978.070271, -482.475647) "></path>
            <path d="M1106.14399,369.066245 C1145.29892,373.252163 1156.8798,402.167199 1156.95381,422.647802 C1157.01928,440.768418 1177.78243,440.844479 1177.71695,422.723864 C1177.56879,381.720056 1145.49075,348.362832 1106.06865,348.218418 C1066.64655,348.074004 1034.80874,381.197087 1034.95691,422.200894 C1035.01552,438.419933 1055.08095,438.493438 1055.02234,422.274399 C1054.83867,371.44475 1101.83436,368.605518 1106.14399,369.066245 Z" id="Oval" stroke="#2A2D2E" stroke-width="3" fill="#FFB3E2" transform="translate(1106.336751, 392.247151) scale(-1, -1) rotate(14.000000) translate(-1106.336751, -392.247151) "></path>
            <path d="M208.685147,461.082005 C233.509002,469.026881 287.382406,543.951188 287.539869,587.527866 C287.679189,626.083186 320.041062,626.201736 319.901743,587.646416 C319.586488,500.40242 269.52064,429.494718 208.076542,429.269631 C146.632444,429.044544 97.0777262,499.587308 97.3929814,586.831305 C97.5176804,621.340632 128.792074,621.455199 128.667375,586.945871 C128.276574,478.795384 202.307318,459.040781 208.685147,461.082005 Z" id="Oval" stroke="#2A2D2E" stroke-width="3" fill="#FFECE1" transform="translate(208.646838, 522.886396) rotate(14.000000) translate(-208.646838, -522.886396) "></path>
            <rect id="Rectangle" stroke="#2A2D2E" stroke-width="3" fill="#898989" x="312.193667" y="853.662083" width="75.6922234" height="160.8389" rx="26"></rect>
            <rect id="Rectangle" stroke="#2A2D2E" stroke-width="3" fill="#898989" x="810.278516" y="853.662083" width="75.6922234" height="160.8389" rx="26"></rect>
            <rect id="Rectangle" stroke="#2A2D2E" stroke-width="3" fill="#D5FFD1" x="217.135882" y="306.200393" width="756.379956" height="648.359528" rx="20"></rect>
            <rect id="Rectangle" fill="#FFFFFF" x="240.227202" y="332.208646" width="708.230011" height="597.876816" rx="20"></rect>
            <rect id="Rectangle" stroke="#162B33" stroke-width="3" fill="#FFFFFF" x="300.74637" y="510.350255" width="573.420537" height="128.870334"></rect>
            <rect id="Rectangle" stroke="#162B33" stroke-width="3" fill="#FFFFFF" x="300.74637" y="366.141454" width="573.420537" height="128.870334"></rect>
            <g id="Group-5" transform="translate(505.813456, 716.295678)">
                <rect id="Rectangle" fill="#FFFFFF" x="0" y="-2.84217094e-14" width="179.024808" height="131.870334" rx="3"></rect>
                <g id="email" transform="translate(0.000000, -0.000000)" fill="#000000" fill-rule="nonzero" stroke="#FFFFFF" stroke-width="3">
                    <path d="M163.290206,0 L15.7346023,0 C7.06938198,0 0,6.82885453 0,15.2158078 L0,116.654526 C0,125.013077 7.03791278,131.870334 15.7346023,131.870334 L163.290206,131.870334 C171.933748,131.870334 179.024808,125.064472 179.024808,116.654526 L179.024808,15.2158078 C179.024808,6.85725737 171.986896,0 163.290206,0 Z M161.117432,10.1438718 L89.8459777,79.0657328 L17.9580764,10.1438718 L161.117432,10.1438718 Z M10.4897349,114.554068 L10.4897349,17.267913 L61.0079483,65.7015198 L10.4897349,114.554068 Z M17.9070264,121.726462 L68.4570587,72.8431437 L86.1696753,89.8246614 C88.2200688,91.7905438 91.5288809,91.7841194 93.5708826,89.8091075 L110.841532,73.1078988 L161.117782,121.726462 L17.9070264,121.726462 Z M168.535073,114.55373 L118.258823,65.935167 L168.535073,17.3162655 L168.535073,114.55373 Z" id="Shape"></path>
                </g>
            </g>
            <g id="Group-5" transform="translate(261.867563, 716.295678)">
                <rect id="Rectangle" fill="#FFFFFF" x="0" y="-2.84217094e-14" width="179.024808" height="131.870334" rx="3"></rect>
                <g id="email" transform="translate(0.000000, -0.000000)" fill="#000000" fill-rule="nonzero" stroke="#FFFFFF" stroke-width="3">
                    <path d="M163.290206,0 L15.7346023,0 C7.06938198,0 0,6.82885453 0,15.2158078 L0,116.654526 C0,125.013077 7.03791278,131.870334 15.7346023,131.870334 L163.290206,131.870334 C171.933748,131.870334 179.024808,125.064472 179.024808,116.654526 L179.024808,15.2158078 C179.024808,6.85725737 171.986896,0 163.290206,0 Z M161.117432,10.1438718 L89.8459777,79.0657328 L17.9580764,10.1438718 L161.117432,10.1438718 Z M10.4897349,114.554068 L10.4897349,17.267913 L61.0079483,65.7015198 L10.4897349,114.554068 Z M17.9070264,121.726462 L68.4570587,72.8431437 L86.1696753,89.8246614 C88.2200688,91.7905438 91.5288809,91.7841194 93.5708826,89.8091075 L110.841532,73.1078988 L161.117782,121.726462 L17.9070264,121.726462 Z M168.535073,114.55373 L118.258823,65.935167 L168.535073,17.3162655 L168.535073,114.55373 Z" id="Shape"></path>
                </g>
            </g>
            <g id="Group-5" transform="translate(749.759349, 716.295678)">
                <rect id="Rectangle" fill="#FFFFFF" x="0" y="-2.84217094e-14" width="179.024808" height="131.870334" rx="3"></rect>
                <g id="email" transform="translate(0.000000, -0.000000)" fill="#000000" fill-rule="nonzero" stroke="#FFFFFF" stroke-width="3">
                    <path d="M163.290206,0 L15.7346023,0 C7.06938198,0 0,6.82885453 0,15.2158078 L0,116.654526 C0,125.013077 7.03791278,131.870334 15.7346023,131.870334 L163.290206,131.870334 C171.933748,131.870334 179.024808,125.064472 179.024808,116.654526 L179.024808,15.2158078 C179.024808,6.85725737 171.986896,0 163.290206,0 Z M161.117432,10.1438718 L89.8459777,79.0657328 L17.9580764,10.1438718 L161.117432,10.1438718 Z M10.4897349,114.554068 L10.4897349,17.267913 L61.0079483,65.7015198 L10.4897349,114.554068 Z M17.9070264,121.726462 L68.4570587,72.8431437 L86.1696753,89.8246614 C88.2200688,91.7905438 91.5288809,91.7841194 93.5708826,89.8091075 L110.841532,73.1078988 L161.117782,121.726462 L17.9070264,121.726462 Z M168.535073,114.55373 L118.258823,65.935167 L168.535073,17.3162655 L168.535073,114.55373 Z" id="Shape"></path>
                </g>
            </g>
            <text id="LEFT" font-family="Arial-BoldMT, Arial" font-size="16" font-weight="bold" fill="#040000">
                <tspan x="299.24637" y="892.627701">LEFT</tspan>
            </text>
            <text id="RIGHT" font-family="Arial-BoldMT, Arial" font-size="16" font-weight="bold" fill="#000000">
                <tspan x="542.208609" y="890.629666">RIGHT</tspan>
            </text>
            <text id="FORWARD" font-family="Arial-BoldMT, Arial" font-size="16" font-weight="bold" fill="#000000">
                <tspan x="757.628571" y="892.627701">FORWARD</tspan>
            </text>
            <ellipse id="Oval" stroke="#2A2D2E" stroke-width="3" fill="#BAF2FF" cx="587.456638" cy="574.785422" rx="21.6403614" ry="21.978389"></ellipse>
            <ellipse id="Oval" stroke="#2A2D2E" stroke-width="3" fill="#BAF2FF" cx="587.456638" cy="430.576621" rx="21.6403614" ry="21.978389"></ellipse>
            <text id="Orientation" font-family="BradleyHandITCTT-Bold, Bradley Hand" font-size="19" font-style="expanded" font-weight="bold" fill="#040000">
                <tspan x="316.595584" y="408.602161">Orientation</tspan>
            </text>
            <text id="Position" font-family="BradleyHandITCTT-Bold, Bradley Hand" font-size="19" font-style="expanded" font-weight="bold" fill="#040000">
                <tspan x="316.595584" y="584.429273">Position</tspan>
            </text>
            <path d="M375.740841,68.3444427 C354.430789,75.5667931 340.092481,95.5657098 340.092481,118.066392 L340.092481,197.005992 C340.092481,198.685087 340.173034,200.363214 340.333863,202.034588 C343.11108,230.896227 368.75944,252.041829 397.621078,249.264611 C496.408137,239.758806 562.754037,235.005838 596.704339,235.005838 C630.368376,235.005838 694.098655,239.678676 787.93833,249.024001 C789.667201,249.196176 791.403553,249.282423 793.140975,249.282423 C822.135924,249.282423 845.640975,225.777372 845.640975,196.782423 L845.640975,115.451817 C845.640975,94.0275791 832.622953,74.7526596 812.749077,66.7509713 C743.017364,38.6753482 674.561742,24.6414416 607.374868,24.6414416 C538.930045,24.6414416 461.717005,39.205614 375.740841,68.3444427 Z" id="Rectangle" stroke="#2A2D2E" stroke-width="3" fill="#FFFFFF"></path>
            <path d="M352.407171,54.9726605 C331.788155,62.5876309 318.095584,82.2410775 318.095584,104.221332 L318.095584,215.765912 C318.095584,217.579704 318.18958,219.392278 318.377192,221.196341 C321.376336,250.035762 347.186592,270.983446 376.026013,267.984303 C487.648269,256.376195 562.406174,250.572097 600.350111,250.572097 C638.006583,250.572097 709.889187,256.288208 816.045742,267.720084 C817.912718,267.921136 819.789136,268.02188 821.666906,268.02188 C850.661855,268.02188 874.166906,244.516829 874.166906,215.52188 L874.166906,101.463953 C874.166906,80.6734632 861.898216,61.8415332 842.88057,53.440725 C764.484141,18.8100775 687.553854,1.5 612.080727,1.5 C535.503686,1.5 448.943907,19.3199207 352.407171,54.9726605 Z" id="Rectangle" stroke="#2A2D2E" stroke-width="3" fill="#D5FFD1"></path>
            <path d="M375.740841,68.3444427 C354.430789,75.5667931 340.092481,95.5657098 340.092481,118.066392 L340.092481,197.005992 C340.092481,198.685087 340.173034,200.363214 340.333863,202.034588 C343.11108,230.896227 368.75944,252.041829 397.621078,249.264611 C496.408137,239.758806 562.754037,235.005838 596.704339,235.005838 C630.368376,235.005838 694.098655,239.678676 787.93833,249.024001 C789.667201,249.196176 791.403553,249.282423 793.140975,249.282423 C822.135924,249.282423 845.640975,225.777372 845.640975,196.782423 L845.640975,115.451817 C845.640975,94.0275791 832.622953,74.7526596 812.749077,66.7509713 C743.017364,38.6753482 674.561742,24.6414416 607.374868,24.6414416 C538.930045,24.6414416 461.717005,39.205614 375.740841,68.3444427 Z" id="Rectangle" stroke="#2A2D2E" stroke-width="3" fill="#FFFFFF"></path>
            <path d="M483.939257,206.947213 C514.571185,207.005076 546.587699,157.185802 546.526825,124.471716 C546.46595,91.7576309 518.326383,65.1845624 483.675342,65.1191066 C449.024301,65.0536507 420.983431,91.5205944 421.044306,124.23468 C421.10518,156.948765 453.307328,206.889349 483.939257,206.947213 Z" id="Oval" stroke="#2A2D2E" stroke-width="3" transform="translate(483.785559, 136.033124) rotate(-173.000000) translate(-483.785559, -136.033124) "></path>
            <path d="M711.47644,206.947213 C742.108368,207.005076 774.124882,157.185802 774.064008,124.471716 C774.003133,91.7576309 745.863566,65.1845624 711.212525,65.1191066 C676.561485,65.0536507 648.520614,91.5205944 648.581489,124.23468 C648.642363,156.948765 680.844511,206.889349 711.47644,206.947213 Z" id="Oval" stroke="#2A2D2E" stroke-width="3" transform="translate(711.322742, 136.033124) scale(-1, 1) rotate(-173.000000) translate(-711.322742, -136.033124) "></path>
            <ellipse id="Oval" fill="#2A2D2E" cx="709.350724" cy="136.03044" rx="37.3788061" ry="37.9626719"></ellipse>
            <ellipse id="Oval" fill="#FFFFFF" cx="717.338237" cy="127.374754" rx="13.8105694" ry="14.4857564"></ellipse>
            <ellipse id="Oval" fill="#2A2D2E" cx="709.350724" cy="136.03044" rx="37.3788061" ry="37.9626719"></ellipse>
            <ellipse id="Oval" fill="#FFFFFF" cx="717.338237" cy="127.374754" rx="13.8105694" ry="14.4857564"></ellipse>
            <ellipse id="Oval" fill="#2A2D2E" cx="487.75117" cy="136.03044" rx="37.3788061" ry="37.9626719"></ellipse>
            <ellipse id="Oval" fill="#FFFFFF" cx="495.738683" cy="127.374754" rx="13.8105694" ry="14.4857564"></ellipse>
            <path d="M597.293166,203.88857 C608.701551,203.88857 617.949874,194.04851 617.949874,181.910181 C617.949874,179.936198 614.230978,180.776123 614.0402,180.613812 C613.057849,179.778051 612.456092,197.358318 597.293166,197.358318 C582.055641,197.358318 581.782545,179.573444 580.827518,180.613812 C580.647629,180.809776 576.636457,179.986204 576.636457,181.910181 C576.636457,194.04851 585.884781,203.88857 597.293166,203.88857 Z" id="Oval" fill="#2A2D2E"></path>
            <path d="M80.1875918,593.579801 C119.342528,597.765719 130.923406,626.680755 130.997412,647.161359 C131.062891,665.281974 151.82604,665.358035 151.760561,647.23742 C151.612394,606.233613 119.534357,572.876389 80.1122584,572.731975 C40.6901603,572.58756 8.85234829,605.710643 9.00051506,646.71445 C9.05912237,662.933489 29.1245518,663.006995 29.0659445,646.787955 C28.8822721,595.958306 75.8779675,593.119074 80.1875918,593.579801 Z" id="Oval" stroke="#2A2D2E" stroke-width="3" fill="#FFB3E2" transform="translate(80.380358, 616.760707) rotate(14.000000) translate(-80.380358, -616.760707) "></path>
            <path d="M1068.46285,452.55501 L1096.00513,463.544204" id="Line" stroke="#2A2D2E" stroke-width="3" stroke-linecap="square"></path>
            <path d="M1060.59363,477.70558 L1086.1686,489.518664" id="Line" stroke="#2A2D2E" stroke-width="3" stroke-linecap="square"></path>
            <path d="M1046.82249,500.089216 L1072.39746,511.902301" id="Line" stroke="#2A2D2E" stroke-width="3" stroke-linecap="square"></path>
            <path d="M1027.80281,520.237641 L1054.5798,535.473477" id="Line" stroke="#2A2D2E" stroke-width="3" stroke-linecap="square"></path>
            <path d="M1005.92352,535.92049 L1027.44026,554.866743" id="Line" stroke="#2A2D2E" stroke-width="3" stroke-linecap="square"></path>
            <path d="M982.315857,543.660094 L995.672547,571.438114" id="Line" stroke="#2A2D2E" stroke-width="3" stroke-linecap="square"></path>
            <path d="M181.208034,435.571709 L193.011868,463.544204" id="Line-2" stroke="#2A2D2E" stroke-width="3" stroke-linecap="square"></path>
            <path d="M151.698451,455.552063 L165.870126,478.52947" id="Line-2" stroke="#2A2D2E" stroke-width="3" stroke-linecap="square"></path>
            <path d="M128.090784,479.528487 L145.796534,498.509823" id="Line-2" stroke="#2A2D2E" stroke-width="3" stroke-linecap="square"></path>
            <path d="M110.385033,505.084305 L129.074436,521.662358" id="Line-2" stroke="#2A2D2E" stroke-width="3" stroke-linecap="square"></path>
            <path d="M92.679283,541.662059 L115.303297,555.453831" id="Line-2" stroke="#2A2D2E" stroke-width="3" stroke-linecap="square"></path>
            <rect id="Rectangle" stroke="#2A2D2E" stroke-width="6" fill="#FFECE1" x="554.688602" y="243.763261" width="76.6268346" height="63.9312377"></rect>
            <path d="M978.10858,420.671255 C1002.93243,428.616131 1056.80584,503.540438 1056.9633,547.117116 C1057.10262,585.672436 1089.46449,585.790987 1089.32518,547.235667 C1089.00992,459.99167 1038.94407,389.083968 977.499975,388.858881 C916.055877,388.633794 866.501159,459.176558 866.816414,546.420555 C866.941113,580.929882 898.215506,581.044449 898.090807,546.535122 C897.700007,438.384635 971.73075,418.630031 978.10858,420.671255 Z" id="Oval" stroke="#2A2D2E" stroke-width="6" fill="#FFECE1" transform="translate(978.070271, 482.475647) scale(-1, -1) rotate(14.000000) translate(-978.070271, -482.475647) "></path>
            <path d="M1106.14399,369.066245 C1145.29892,373.252163 1156.8798,402.167199 1156.95381,422.647802 C1157.01928,440.768418 1177.78243,440.844479 1177.71695,422.723864 C1177.56879,381.720056 1145.49075,348.362832 1106.06865,348.218418 C1066.64655,348.074004 1034.80874,381.197087 1034.95691,422.200894 C1035.01552,438.419933 1055.08095,438.493438 1055.02234,422.274399 C1054.83867,371.44475 1101.83436,368.605518 1106.14399,369.066245 Z" id="Oval" stroke="#2A2D2E" stroke-width="6" fill="#FFB3E2" transform="translate(1106.336751, 392.247151) scale(-1, -1) rotate(14.000000) translate(-1106.336751, -392.247151) "></path>
            <path d="M208.685147,461.082005 C233.509002,469.026881 287.382406,543.951188 287.539869,587.527866 C287.679189,626.083186 320.041062,626.201736 319.901743,587.646416 C319.586488,500.40242 269.52064,429.494718 208.076542,429.269631 C146.632444,429.044544 97.0777262,499.587308 97.3929814,586.831305 C97.5176804,621.340632 128.792074,621.455199 128.667375,586.945871 C128.276574,478.795384 202.307318,459.040781 208.685147,461.082005 Z" id="Oval" stroke="#2A2D2E" stroke-width="6" fill="#FFECE1" transform="translate(208.646838, 522.886396) rotate(14.000000) translate(-208.646838, -522.886396) "></path>
            <rect id="Rectangle" stroke="#2A2D2E" stroke-width="6" fill="#898989" x="313.693667" y="855.162083" width="72.6922234" height="157.8389" rx="26"></rect>
            <rect id="Rectangle" stroke="#2A2D2E" stroke-width="6" fill="#898989" x="811.778516" y="855.162083" width="72.6922234" height="157.8389" rx="26"></rect>
            <rect id="Rectangle" stroke="#2A2D2E" stroke-width="6" fill="#D5FFD1" x="218.635882" y="307.700393" width="753.379956" height="645.359528" rx="20"></rect>
            <rect id="Rectangle" fill="#FFFFFF" x="240.227202" y="332.208646" width="708.230011" height="597.876816" rx="20"></rect>
            <rect id="Rectangle" stroke="#162B33" stroke-width="6" fill="#FFFFFF" x="302.24637" y="511.850255" width="570.420537" height="125.870334"></rect>
            <rect id="Rectangle" stroke="#162B33" stroke-width="6" fill="#FFFFFF" x="302.24637" y="367.641454" width="570.420537" height="125.870334"></rect>
            <g id="Group-5" transform="translate(505.813456, 716.295678)">
                <rect id="Rectangle" fill="#FFFFFF" x="0" y="-2.84217094e-14" width="179.024808" height="131.870334" rx="3"></rect>
                <g id="email" transform="translate(0.000000, -0.000000)" fill="#000000" fill-rule="nonzero" stroke="#FFFFFF" stroke-width="3">
                    <path d="M163.290206,0 L15.7346023,0 C7.06938198,0 0,6.82885453 0,15.2158078 L0,116.654526 C0,125.013077 7.03791278,131.870334 15.7346023,131.870334 L163.290206,131.870334 C171.933748,131.870334 179.024808,125.064472 179.024808,116.654526 L179.024808,15.2158078 C179.024808,6.85725737 171.986896,0 163.290206,0 Z M161.117432,10.1438718 L89.8459777,79.0657328 L17.9580764,10.1438718 L161.117432,10.1438718 Z M10.4897349,114.554068 L10.4897349,17.267913 L61.0079483,65.7015198 L10.4897349,114.554068 Z M17.9070264,121.726462 L68.4570587,72.8431437 L86.1696753,89.8246614 C88.2200688,91.7905438 91.5288809,91.7841194 93.5708826,89.8091075 L110.841532,73.1078988 L161.117782,121.726462 L17.9070264,121.726462 Z M168.535073,114.55373 L118.258823,65.935167 L168.535073,17.3162655 L168.535073,114.55373 Z" id="Shape"></path>
                </g>
            </g>
            <g id="Group-5" transform="translate(261.867563, 716.295678)">
                <rect id="Rectangle" fill="#FFFFFF" x="0" y="-2.84217094e-14" width="179.024808" height="131.870334" rx="3"></rect>
                <g id="email" transform="translate(0.000000, -0.000000)" fill="#000000" fill-rule="nonzero" stroke="#FFFFFF" stroke-width="3">
                    <path d="M163.290206,0 L15.7346023,0 C7.06938198,0 0,6.82885453 0,15.2158078 L0,116.654526 C0,125.013077 7.03791278,131.870334 15.7346023,131.870334 L163.290206,131.870334 C171.933748,131.870334 179.024808,125.064472 179.024808,116.654526 L179.024808,15.2158078 C179.024808,6.85725737 171.986896,0 163.290206,0 Z M161.117432,10.1438718 L89.8459777,79.0657328 L17.9580764,10.1438718 L161.117432,10.1438718 Z M10.4897349,114.554068 L10.4897349,17.267913 L61.0079483,65.7015198 L10.4897349,114.554068 Z M17.9070264,121.726462 L68.4570587,72.8431437 L86.1696753,89.8246614 C88.2200688,91.7905438 91.5288809,91.7841194 93.5708826,89.8091075 L110.841532,73.1078988 L161.117782,121.726462 L17.9070264,121.726462 Z M168.535073,114.55373 L118.258823,65.935167 L168.535073,17.3162655 L168.535073,114.55373 Z" id="Shape"></path>
                </g>
            </g>
            <g id="Group-5" transform="translate(749.759349, 716.295678)">
                <rect id="Rectangle" fill="#FFFFFF" x="0" y="-2.84217094e-14" width="179.024808" height="131.870334" rx="3"></rect>
                <g id="email" transform="translate(0.000000, -0.000000)" fill="#000000" fill-rule="nonzero" stroke="#FFFFFF" stroke-width="3">
                    <path d="M163.290206,0 L15.7346023,0 C7.06938198,0 0,6.82885453 0,15.2158078 L0,116.654526 C0,125.013077 7.03791278,131.870334 15.7346023,131.870334 L163.290206,131.870334 C171.933748,131.870334 179.024808,125.064472 179.024808,116.654526 L179.024808,15.2158078 C179.024808,6.85725737 171.986896,0 163.290206,0 Z M161.117432,10.1438718 L89.8459777,79.0657328 L17.9580764,10.1438718 L161.117432,10.1438718 Z M10.4897349,114.554068 L10.4897349,17.267913 L61.0079483,65.7015198 L10.4897349,114.554068 Z M17.9070264,121.726462 L68.4570587,72.8431437 L86.1696753,89.8246614 C88.2200688,91.7905438 91.5288809,91.7841194 93.5708826,89.8091075 L110.841532,73.1078988 L161.117782,121.726462 L17.9070264,121.726462 Z M168.535073,114.55373 L118.258823,65.935167 L168.535073,17.3162655 L168.535073,114.55373 Z" id="Shape"></path>
                </g>
            </g>
            <text id="left" font-family="Arial-BoldMT, Arial" font-size="25" font-weight="bold" fill="#040000">
                <tspan x="333.117563" y="892.627701">left</tspan>
            </text>
            <text id="right" font-family="Arial-BoldMT, Arial" font-size="25" font-weight="bold" fill="#000000">
                <tspan x="568.04246" y="890.629666">right</tspan>
            </text>
            <text id="forward" font-family="Arial-BoldMT, Arial" font-size="25" font-weight="bold" fill="#000000">
                <tspan x="794.825853" y="892.627701">forward</tspan>
            </text>
            <ellipse id="Oval" stroke="#2A2D2E" stroke-width="6" fill="#BAF2FF" cx="587.456638" cy="574.785422" rx="21.6403614" ry="21.978389"></ellipse>
            <ellipse id="Oval" stroke="#2A2D2E" stroke-width="6" fill="#BAF2FF" cx="587.456638" cy="430.576621" rx="21.6403614" ry="21.978389"></ellipse>
            <text id="Orientation" font-family="BradleyHandITCTT-Bold, Bradley Hand" font-size="42" font-style="expanded" font-weight="bold" fill="#040000">
                <tspan x="316.595584" y="408.602161">Orientation</tspan>
            </text>
            <text id="Position" font-family="BradleyHandITCTT-Bold, Bradley Hand" font-size="42" font-style="expanded" font-weight="bold" fill="#040000">
                <tspan x="316.595584" y="552.843811">Position</tspan>
            </text>
            <path d="M375.740841,68.3444427 C354.430789,75.5667931 340.092481,95.5657098 340.092481,118.066392 L340.092481,197.005992 C340.092481,198.685087 340.173034,200.363214 340.333863,202.034588 C343.11108,230.896227 368.75944,252.041829 397.621078,249.264611 C496.408137,239.758806 562.754037,235.005838 596.704339,235.005838 C630.368376,235.005838 694.098655,239.678676 787.93833,249.024001 C789.667201,249.196176 791.403553,249.282423 793.140975,249.282423 C822.135924,249.282423 845.640975,225.777372 845.640975,196.782423 L845.640975,115.451817 C845.640975,94.0275791 832.622953,74.7526596 812.749077,66.7509713 C743.017364,38.6753482 674.561742,24.6414416 607.374868,24.6414416 C538.930045,24.6414416 461.717005,39.205614 375.740841,68.3444427 Z" id="Rectangle" stroke="#2A2D2E" stroke-width="3" fill="#FFFFFF"></path>
            <path d="M352.92684,56.3797654 C332.896939,63.7771652 319.595584,82.8690848 319.595584,104.221332 L319.595584,215.765912 C319.595584,217.527881 319.686894,219.288667 319.869146,221.041186 C322.7826,249.056623 347.85542,269.405802 375.870858,266.492349 C487.544409,254.878907 562.337239,249.072097 600.350111,249.072097 C638.077283,249.072097 709.997482,254.791197 816.206347,266.228707 C818.019981,266.424015 819.842787,266.52188 821.666906,266.52188 C849.833428,266.52188 872.666906,243.688402 872.666906,215.52188 L872.666906,101.463953 C872.666906,81.2674772 860.74875,62.9736024 842.274465,54.8128172 C764.063157,20.2639442 687.337897,3 612.080727,3 C535.696012,3 449.30753,20.7846562 352.92684,56.3797654 Z" id="Rectangle" stroke="#2A2D2E" stroke-width="6" fill="#D5FFD1"></path>
            <path d="M376.222317,69.7650699 C355.521123,76.7810673 341.592481,96.2085865 341.592481,118.066392 L341.592481,197.005992 C341.592481,198.637112 341.670733,200.267294 341.826966,201.890914 C344.524834,229.927935 369.440384,250.469376 397.477404,247.771508 C496.311787,238.261149 562.69039,233.505838 596.704339,233.505838 C630.433609,233.505838 694.199051,238.181254 788.086977,247.531384 C789.766452,247.69864 791.453193,247.782423 793.140975,247.782423 C821.307497,247.782423 844.140975,224.948945 844.140975,196.782423 L844.140975,115.451817 C844.140975,94.6397002 831.494897,75.9154926 812.188846,68.142424 C742.6304,40.1365625 674.36397,26.1414416 607.374868,26.1414416 C539.106908,26.1414416 462.052662,40.6756618 376.222317,69.7650699 Z" id="Rectangle" stroke="#2A2D2E" stroke-width="6" fill="#FFFFFF"></path>
            <path d="M483.939257,206.947213 C514.571185,207.005076 546.587699,157.185802 546.526825,124.471716 C546.46595,91.7576309 518.326383,65.1845624 483.675342,65.1191066 C449.024301,65.0536507 420.983431,91.5205944 421.044306,124.23468 C421.10518,156.948765 453.307328,206.889349 483.939257,206.947213 Z" id="Oval" stroke="#2A2D2E" stroke-width="6" transform="translate(483.785559, 136.033124) rotate(-173.000000) translate(-483.785559, -136.033124) "></path>
            <path d="M711.47644,206.947213 C742.108368,207.005076 774.124882,157.185802 774.064008,124.471716 C774.003133,91.7576309 745.863566,65.1845624 711.212525,65.1191066 C676.561485,65.0536507 648.520614,91.5205944 648.581489,124.23468 C648.642363,156.948765 680.844511,206.889349 711.47644,206.947213 Z" id="Oval" stroke="#2A2D2E" stroke-width="6" transform="translate(711.322742, 136.033124) scale(-1, 1) rotate(-173.000000) translate(-711.322742, -136.033124) "></path>
            <ellipse id="Oval" fill="#2A2D2E" cx="709.350724" cy="136.03044" rx="37.3788061" ry="37.9626719"></ellipse>
            <ellipse id="Oval" fill="#FFFFFF" cx="717.338237" cy="127.374754" rx="13.8105694" ry="14.4857564"></ellipse>
            <ellipse id="Oval" fill="#2A2D2E" cx="709.350724" cy="136.03044" rx="37.3788061" ry="37.9626719"></ellipse>
            <ellipse id="Oval" fill="#FFFFFF" cx="717.338237" cy="127.374754" rx="13.8105694" ry="14.4857564"></ellipse>
            <ellipse id="Oval" fill="#2A2D2E" cx="487.75117" cy="136.03044" rx="37.3788061" ry="37.9626719"></ellipse>
            <ellipse id="Oval" fill="#FFFFFF" cx="495.738683" cy="127.374754" rx="13.8105694" ry="14.4857564"></ellipse>
            <path d="M597.293166,203.88857 C608.701551,203.88857 617.949874,194.04851 617.949874,181.910181 C617.949874,179.936198 614.230978,180.776123 614.0402,180.613812 C613.057849,179.778051 612.456092,197.358318 597.293166,197.358318 C582.055641,197.358318 581.782545,179.573444 580.827518,180.613812 C580.647629,180.809776 576.636457,179.986204 576.636457,181.910181 C576.636457,194.04851 585.884781,203.88857 597.293166,203.88857 Z" id="Oval" fill="#2A2D2E"></path>
            <path d="M80.1875918,593.579801 C119.342528,597.765719 130.923406,626.680755 130.997412,647.161359 C131.062891,665.281974 151.82604,665.358035 151.760561,647.23742 C151.612394,606.233613 119.534357,572.876389 80.1122584,572.731975 C40.6901603,572.58756 8.85234829,605.710643 9.00051506,646.71445 C9.05912237,662.933489 29.1245518,663.006995 29.0659445,646.787955 C28.8822721,595.958306 75.8779675,593.119074 80.1875918,593.579801 Z" id="Oval" stroke="#2A2D2E" stroke-width="6" fill="#FFB3E2" transform="translate(80.380358, 616.760707) rotate(14.000000) translate(-80.380358, -616.760707) "></path>
            <path d="M1068.46285,452.55501 L1096.00513,463.544204" id="Line" stroke="#2A2D2E" stroke-width="6" stroke-linecap="square"></path>
            <path d="M1060.59363,477.70558 L1086.1686,489.518664" id="Line" stroke="#2A2D2E" stroke-width="6" stroke-linecap="square"></path>
            <path d="M1046.82249,500.089216 L1072.39746,511.902301" id="Line" stroke="#2A2D2E" stroke-width="6" stroke-linecap="square"></path>
            <path d="M1027.80281,520.237641 L1054.5798,535.473477" id="Line" stroke="#2A2D2E" stroke-width="6" stroke-linecap="square"></path>
            <path d="M1005.92352,535.92049 L1027.44026,554.866743" id="Line" stroke="#2A2D2E" stroke-width="6" stroke-linecap="square"></path>
            <path d="M982.315857,543.660094 L995.672547,571.438114" id="Line" stroke="#2A2D2E" stroke-width="6" stroke-linecap="square"></path>
            <path d="M181.208034,435.571709 L193.011868,463.544204" id="Line-2" stroke="#2A2D2E" stroke-width="6" stroke-linecap="square"></path>
            <path d="M151.698451,455.552063 L165.870126,478.52947" id="Line-2" stroke="#2A2D2E" stroke-width="6" stroke-linecap="square"></path>
            <path d="M128.090784,479.528487 L145.796534,498.509823" id="Line-2" stroke="#2A2D2E" stroke-width="6" stroke-linecap="square"></path>
            <path d="M110.385033,505.084305 L129.074436,521.662358" id="Line-2" stroke="#2A2D2E" stroke-width="6" stroke-linecap="square"></path>
            <path d="M92.679283,541.662059 L115.303297,555.453831" id="Line-2" stroke="#2A2D2E" stroke-width="6" stroke-linecap="square"></path>
        </g>
    </g>
</svg>