<?xml version="1.0" encoding="UTF-8"?>
<svg width="145px" height="108px" viewBox="0 0 145 108" version="1.1" xmlns="http://www.w3.org/2000/svg" xmlns:xlink="http://www.w3.org/1999/xlink">
    <!-- Generator: Sketch 53.2 (72643) - https://sketchapp.com -->
    <title>Group 23</title>
    <desc>Created with Sketch.</desc>
    <g id="Page-1" stroke="none" stroke-width="1" fill="none" fill-rule="evenodd">
        <g id="Group-17" transform="translate(-84.000000, -0.279702)">
            <g id="Group-23" transform="translate(83.853779, 0.279702)">
                <text id="left" transform="translate(109.346112, 93.000000) rotate(-21.000000) translate(-109.346112, -93.000000) " font-family="Arial-BoldMT, Arial" font-size="25" font-weight="bold" fill="#040000">
                    <tspan x="90.5961117" y="102">left</tspan>
                </text>
                <g id="message(1)" transform="translate(0.146221, 0.000000)" fill="#000000" fill-rule="nonzero">
                    <path d="M144.596719,51.0090667 L128.048877,4.58427879 C127.44792,2.89736061 126.249687,1.55464545 124.675078,0.803336364 C123.100752,0.0520272727 121.338945,-0.0185181818 119.713643,0.605809091 L39.0242578,31.5887848 C37.3989551,32.2128182 36.1052832,33.4564758 35.3811328,35.0901909 C34.6572656,36.7242 34.5895801,38.5530909 35.1908203,40.2397152 L51.7386621,86.664503 C52.3396191,88.3514212 53.5378516,89.6941364 55.1124609,90.4457394 C55.9762305,90.8581364 56.8963574,91.0650697 57.8195996,91.0650697 C58.5791504,91.0650697 59.3404004,90.9251545 60.0741797,90.6432667 L140.763848,59.6602909 L140.764131,59.6602909 C144.118105,58.3719545 145.837715,54.4910727 144.596719,51.0090667 Z M115.278398,9.4880697 L90.2497559,46.6255485 L47.9598828,35.3368061 L115.278398,9.4880697 Z M56.6530859,81.048203 L42.299502,40.7785061 L75.5424512,49.6531242 L56.6530859,81.048203 Z M63.6819043,82.0787545 L82.1331543,51.4120576 L90.8110645,53.7288879 C91.0803906,53.7997273 91.352832,53.8367636 91.6187598,53.8367636 C92.6632129,53.8367636 93.6623535,53.3114939 94.2786035,52.3991061 L99.4139258,44.7731424 L132.653193,55.595403 L63.6819043,82.0787545 Z M103.316465,38.9875333 L122.988604,9.79229697 L137.347852,50.0675788 L103.316465,38.9875333 Z" id="Shape"></path>
                    <path d="M37.790625,87.5868848 C37.1692773,85.8429424 35.3024023,84.9528939 33.623291,85.597503 L21.3996777,90.2911273 C19.7194336,90.9366182 18.8616113,92.8730909 19.482959,94.6167394 C19.9672363,95.9756212 21.2065332,96.8159939 22.5254102,96.8159939 C22.8989551,96.8159939 23.2795801,96.7483879 23.6505762,96.6058273 L35.873623,91.912203 C37.5544336,91.2675939 38.4122559,89.3308273 37.790625,87.5868848 Z" id="Path"></path>
                    <path d="M21.246748,56.3323091 C20.624834,54.5883667 18.7588086,53.6986121 17.0791309,54.3429273 L9.53375,57.2402879 C7.85350586,57.8857788 6.99568359,59.8219576 7.61703125,61.5659 C8.10130859,62.9244879 9.34088867,63.7651545 10.6594824,63.7651545 C11.0330273,63.7651545 11.4136523,63.6975485 11.7846484,63.5549879 L19.3300293,60.6576273 C21.0102734,60.0130182 21.8683789,58.0762515 21.246748,56.3323091 Z" id="Path"></path>
                    <path d="M11.8931152,81.8350788 C11.2712012,80.0911364 9.40517578,79.2007939 7.72549805,79.845697 L2.11892578,81.9985091 C0.438681641,82.644 -0.419140625,84.5804727 0.202207031,86.3241212 C0.686484375,87.6827091 1.92578125,88.5233758 3.2446582,88.5233758 C3.61820313,88.5233758 3.99882813,88.4557697 4.36982422,88.3132091 L9.97639648,86.160397 C11.6569238,85.5154939 12.5147461,83.5790212 11.8931152,81.8350788 Z" id="Path"></path>
                </g>
            </g>
        </g>
    </g>
</svg>