<?xml version="1.0" encoding="UTF-8"?>
<svg width="493px" height="478px" viewBox="0 0 493 478" version="1.1" xmlns="http://www.w3.org/2000/svg" xmlns:xlink="http://www.w3.org/1999/xlink">
    <!-- Generator: Sketch 53.2 (72643) - https://sketchapp.com -->
    <title>Group 20</title>
    <desc>Created with Sketch.</desc>
    <g id="Page-1" stroke="none" stroke-width="1" fill="none" fill-rule="evenodd">
        <g id="Group-20" transform="translate(0.000000, 0.571376)">
            <g id="Group-9">
                <rect id="Rectangle" stroke="#2A2D2E" stroke-width="3" fill="#FFECE1" x="227.69303" y="89.5" width="27.4453605" height="23"></rect>
                <g id="Group-7" transform="translate(319.918629, 128.000000)" stroke="#2A2D2E" stroke-width="3">
                    <path d="M66.7507018,45.3295857 C79.3429636,49.2640101 106.565179,86.698417 106.565179,108.527829 C106.565179,127.84183 123,127.84183 123,108.527829 C123,64.8235986 97.7040884,29.3943194 66.5,29.3943194 C35.2959116,29.3943194 10,64.8235986 10,108.527829 C10,125.81502 25.8825497,125.81502 25.8825497,108.527829 C25.8825497,54.3506479 63.515455,44.3187401 66.7507018,45.3295857 Z" id="Oval" fill="#FFECE1" transform="translate(66.500000, 76.203825) scale(-1, -1) rotate(14.000000) translate(-66.500000, -76.203825) "></path>
                    <path d="M131.645953,19.4435636 C151.52318,21.4686418 157.351488,35.9323536 157.351488,46.1919594 C157.351488,55.2693469 167.895953,55.2693469 167.895953,46.1919594 C167.895953,25.6514074 151.666275,9 131.645953,9 C111.625631,9 95.3959528,25.6514074 95.3959528,46.1919594 C95.3959528,54.3167664 105.586084,54.3167664 105.586084,46.1919594 C105.586084,20.7292252 129.458147,19.2206715 131.645953,19.4435636 Z" id="Oval" fill="#FFB3E2" transform="translate(131.645953, 31.000000) scale(-1, -1) rotate(14.000000) translate(-131.645953, -31.000000) "></path>
                    <path d="M112.354047,61.1161747 L126.354047,66.6161747" id="Line" stroke-linecap="square"></path>
                    <path d="M108.354047,73.7038246 L121.354047,79.6161747" id="Line" stroke-linecap="square"></path>
                    <path d="M101.354047,84.9066478 L114.354047,90.8189979" id="Line" stroke-linecap="square"></path>
                    <path d="M91.6861653,94.990766 L105.297161,102.616175" id="Line" stroke-linecap="square"></path>
                    <path d="M80.5647157,102.839901 L91.5018746,112.322342" id="Line" stroke-linecap="square"></path>
                    <path d="M68.5647157,106.713508 L75.3540472,120.616175" id="Line" stroke-linecap="square"></path>
                    <path d="M66.7507018,45.3295857 C79.3429636,49.2640101 106.565179,86.698417 106.565179,108.527829 C106.565179,127.84183 123,127.84183 123,108.527829 C123,64.8235986 97.7040884,29.3943194 66.5,29.3943194 C35.2959116,29.3943194 10,64.8235986 10,108.527829 C10,125.81502 25.8825497,125.81502 25.8825497,108.527829 C25.8825497,54.3506479 63.515455,44.3187401 66.7507018,45.3295857 Z" id="Oval" fill="#FFFFFF" transform="translate(66.500000, 76.203825) scale(-1, -1) rotate(14.000000) translate(-66.500000, -76.203825) "></path>
                    <path d="M131.645953,19.4435636 C151.52318,21.4686418 157.351488,35.9323536 157.351488,46.1919594 C157.351488,55.2693469 167.895953,55.2693469 167.895953,46.1919594 C167.895953,25.6514074 151.666275,9 131.645953,9 C111.625631,9 95.3959528,25.6514074 95.3959528,46.1919594 C95.3959528,54.3167664 105.586084,54.3167664 105.586084,46.1919594 C105.586084,20.7292252 129.458147,19.2206715 131.645953,19.4435636 Z" id="Oval" fill="#BAF2FF" transform="translate(131.645953, 31.000000) scale(-1, -1) rotate(14.000000) translate(-131.645953, -31.000000) "></path>
                    <path d="M112.354047,61.1161747 L126.354047,66.6161747" id="Line" stroke-linecap="square"></path>
                    <path d="M108.354047,73.7038246 L121.354047,79.6161747" id="Line" stroke-linecap="square"></path>
                    <path d="M101.354047,84.9066478 L114.354047,90.8189979" id="Line" stroke-linecap="square"></path>
                    <path d="M91.6861653,94.990766 L105.297161,102.616175" id="Line" stroke-linecap="square"></path>
                    <path d="M82.0666399,101.58765 L91.5018746,112.322342" id="Line" stroke-linecap="square"></path>
                </g>
                <g id="Group-6" transform="translate(86.500000, 192.000000) scale(1, -1) translate(-86.500000, -192.000000) translate(0.000000, 123.500000)" stroke="#2A2D2E" stroke-width="3">
                    <path d="M106.646655,28.9352663 C119.238916,32.8696906 146.461132,70.3040976 146.461132,92.1335099 C146.461132,111.447511 162.895953,111.447511 162.895953,92.1335099 C162.895953,48.4292792 137.600041,13 106.395953,13 C75.1918644,13 49.8959528,48.4292792 49.8959528,92.1335099 C49.8959528,109.420701 65.7785025,109.420701 65.7785025,92.1335099 C65.7785025,37.9563284 103.411408,27.9244206 106.646655,28.9352663 Z" id="Oval" fill="#FFECE1" transform="translate(106.395953, 59.809505) rotate(14.000000) translate(-106.395953, -59.809505) "></path>
                    <path d="M41.25,95.2815936 C61.1272269,97.3066718 66.9555351,111.770384 66.9555351,122.029989 C66.9555351,131.107377 77.5,131.107377 77.5,122.029989 C77.5,101.489437 61.2703222,84.8380299 41.25,84.8380299 C21.2296778,84.8380299 5,101.489437 5,122.029989 C5,130.154796 15.1901314,130.154796 15.1901314,122.029989 C15.1901314,96.5672551 39.0621946,95.0587015 41.25,95.2815936 Z" id="Oval" fill="#FFB3E2" transform="translate(41.250000, 106.838030) rotate(14.000000) translate(-41.250000, -106.838030) "></path>
                    <path d="M92.5419055,16.2218553 L98.5419055,30.2218553" id="Line-2" stroke-linecap="square"></path>
                    <path d="M77.5419055,26.2218553 L84.7455018,37.7218553" id="Line-2" stroke-linecap="square"></path>
                    <path d="M65.5419055,38.2218553 L74.5419055,47.7218553" id="Line-2" stroke-linecap="square"></path>
                    <path d="M56.5419055,51.0123284 L66.0419055,59.3095052" id="Line-2" stroke-linecap="square"></path>
                    <path d="M47.5419055,69.3191885 L59.0419055,76.2218553" id="Line-2" stroke-linecap="square"></path>
                    <path d="M106.646655,28.9352663 C119.238916,32.8696906 146.461132,70.3040976 146.461132,92.1335099 C146.461132,111.447511 162.895953,111.447511 162.895953,92.1335099 C162.895953,48.4292792 137.600041,13 106.395953,13 C75.1918644,13 49.8959528,48.4292792 49.8959528,92.1335099 C49.8959528,109.420701 65.7785025,109.420701 65.7785025,92.1335099 C65.7785025,37.9563284 103.411408,27.9244206 106.646655,28.9352663 Z" id="Oval" fill="#FFFFFF" transform="translate(106.395953, 59.809505) rotate(14.000000) translate(-106.395953, -59.809505) "></path>
                    <path d="M41.25,95.2815936 C61.1272269,97.3066718 66.9555351,111.770384 66.9555351,122.029989 C66.9555351,131.107377 77.5,131.107377 77.5,122.029989 C77.5,101.489437 61.2703222,84.8380299 41.25,84.8380299 C21.2296778,84.8380299 5,101.489437 5,122.029989 C5,130.154796 15.1901314,130.154796 15.1901314,122.029989 C15.1901314,96.5672551 39.0621946,95.0587015 41.25,95.2815936 Z" id="Oval" fill="#BAF2FF" transform="translate(41.250000, 106.838030) rotate(14.000000) translate(-41.250000, -106.838030) "></path>
                    <path d="M77.5419055,26.2218553 L84.7455018,37.7218553" id="Line-2" stroke-linecap="square"></path>
                    <path d="M65.5419055,38.2218553 L74.5419055,47.7218553" id="Line-2" stroke-linecap="square"></path>
                    <path d="M56.5419055,51.0123284 L66.0419055,59.3095052" id="Line-2" stroke-linecap="square"></path>
                    <path d="M47.5419055,69.3191885 L59.0419055,76.2218553" id="Line-2" stroke-linecap="square"></path>
                </g>
                <path d="M149.173888,29.9556273 L149.173888,92.1728927 C196.862692,87.3484693 228.045244,84.9365404 242.779898,84.9365404 C257.50921,84.9365404 287.749775,87.3462999 333.557833,92.1661484 L333.557833,29.8744968 C303.976668,16.2874519 275.031059,9.5 246.711649,9.5 C218.33611,9.5 185.820892,16.3139827 149.173888,29.9556305 Z" id="Rectangle" stroke="#2A2D2E" stroke-width="3" fill="#FFFFFF"></path>
                <path d="M141.068731,25.7087392 L141.068731,99.6723513 C193.580206,93.9651104 227.910747,91.1118187 244.123249,91.1118187 C260.330481,91.1118187 293.625429,93.9627688 344.068725,99.6650542 L344.068731,25.6248869 C311.49572,9.53657257 279.624942,1.5 248.445608,1.5 C217.21178,1.5 181.416626,9.56419215 141.068731,25.7087422 Z" id="Rectangle" stroke="#2A2D2E" stroke-width="3" fill="#D5FFD1"></path>
                <path d="M149.173888,29.9556273 L149.173888,92.1728927 C196.862692,87.3484693 228.045244,84.9365404 242.779898,84.9365404 C257.50921,84.9365404 287.749775,87.3462999 333.557833,92.1661484 L333.557833,29.8744968 C303.976668,16.2874519 275.031059,9.5 246.711649,9.5 C218.33611,9.5 185.820892,16.3139827 149.173888,29.9556305 Z" id="Rectangle" stroke="#2A2D2E" stroke-width="3" fill="#FFFFFF"></path>
                <path d="M204.301104,24.0815926 C193.100942,22.6890239 179.154675,39.4218156 177.707913,51.3535049 C176.261151,63.2851942 185.359138,74.2347586 198.028835,75.8100416 C210.698533,77.3853246 222.142185,68.9897985 223.588947,57.0581092 C225.035709,45.1264199 215.501266,25.4741614 204.301104,24.0815926 Z" id="Oval" stroke="#2A2D2E" stroke-width="3"></path>
                <path d="M281.884949,24.0815926 C293.085111,22.6890239 307.031378,39.4218156 308.47814,51.3535049 C309.924902,63.2851942 300.826915,74.2347586 288.157217,75.8100416 C275.48752,77.3853246 264.043868,68.9897985 262.597106,57.0581092 C261.150344,45.1264199 270.684787,25.4741614 281.884949,24.0815926 Z" id="Oval" stroke="#2A2D2E" stroke-width="3"></path>
                <ellipse id="Oval" fill="#2A2D2E" cx="284.286508" cy="50" rx="13.7729012" ry="14"></ellipse>
                <ellipse id="Oval" fill="#FFFFFF" cx="287.229652" cy="46.5" rx="5.08875555" ry="5.5"></ellipse>
                <ellipse id="Oval" fill="#2A2D2E" cx="284.286508" cy="50" rx="13.7729012" ry="14"></ellipse>
                <ellipse id="Oval" fill="#FFFFFF" cx="287.229652" cy="46.5" rx="5.08875555" ry="5.5"></ellipse>
                <ellipse id="Oval" fill="#2A2D2E" cx="202.634121" cy="50" rx="13.7729012" ry="14"></ellipse>
                <ellipse id="Oval" fill="#FFFFFF" cx="205.577265" cy="46.5" rx="5.08875555" ry="5.5"></ellipse>
                <path d="M242.996862,75 C247.200489,75 250.608202,71.202164 250.608202,66.5172959 C250.608202,65.7554241 249.237907,66.0795987 249.167611,66.0169539 C248.805646,65.6943862 248.583918,72.4796063 242.996862,72.4796063 C237.382319,72.4796063 237.281691,65.6154169 236.929794,66.0169539 C236.863511,66.0925874 235.385522,65.7747244 235.385522,66.5172959 C235.385522,71.202164 238.793235,75 242.996862,75 Z" id="Oval" fill="#2A2D2E"></path>
                <rect id="Rectangle" stroke="#2A2D2E" stroke-width="3" fill="#FFFFFF" x="227.69303" y="89.5" width="27.4453605" height="23"></rect>
                <g id="Group-8" transform="translate(74.068731, 105.625858)">
                    <rect id="Rectangle" stroke="#2A2D2E" stroke-width="3" fill="#BAF2FF" x="1.5" y="1.5" width="333.210668" height="323" rx="161.5"></rect>
                    <rect id="Rectangle" fill="#FFFFFF" x="10.8876512" y="13.7676506" width="313.564354" height="299.232349" rx="149.616175"></rect>
                </g>
                <path d="M149.173888,29.9556273 L149.173888,92.1728927 C196.862692,87.3484693 228.045244,84.9365404 242.779898,84.9365404 C257.50921,84.9365404 287.749775,87.3462999 333.557833,92.1661484 L333.557833,29.8744968 C303.976668,16.2874519 275.031059,9.5 246.711649,9.5 C218.33611,9.5 185.820892,16.3139827 149.173888,29.9556305 Z" id="Rectangle" stroke="#2A2D2E" stroke-width="3" fill="#FFFFFF"></path>
                <path d="M141.068731,25.7087392 L141.068731,99.6723513 C193.580206,93.9651104 227.910747,91.1118187 244.123249,91.1118187 C260.330481,91.1118187 293.625429,93.9627688 344.068725,99.6650542 L344.068731,25.6248869 C311.49572,9.53657257 279.624942,1.5 248.445608,1.5 C217.21178,1.5 181.416626,9.56419215 141.068731,25.7087422 Z" id="Rectangle" stroke="#2A2D2E" stroke-width="3" fill="#BAF2FF"></path>
                <path d="M178.071567,20.3648995 C160.956101,25.3097223 149.173889,40.9777973 149.173889,58.7932542 L149.173888,61.3736397 C149.173888,62.2335919 149.213576,63.0930859 149.292825,63.9493786 C150.715366,79.3200717 164.328972,90.6272932 179.699677,89.2047842 C210.444108,86.3594206 231.458148,84.9365404 242.779898,84.9365404 C253.954057,84.9365404 274.03742,86.322314 303.0661,89.0932933 C303.945625,89.1772513 304.828648,89.2193016 305.712171,89.2193016 C321.090905,89.2193016 333.557833,76.7523741 333.557833,61.3736397 L333.557833,57.1415381 C333.557833,39.7243195 322.287506,24.3091551 305.690867,19.0260624 C285.736696,12.6741901 266.078393,9.5 246.711649,9.5 C226.030998,9.5 203.150155,13.1194548 178.071567,20.3648995 Z" id="Rectangle" stroke="#2A2D2E" stroke-width="3" fill="#FFFFFF"></path>
                <ellipse id="Oval" fill="#FFFFFF" cx="287.229652" cy="46.5" rx="5.08875555" ry="5.5"></ellipse>
                <ellipse id="Oval" fill="#2A2D2E" cx="270.513607" cy="58.75" rx="13.7729012" ry="17.25"></ellipse>
                <ellipse id="Oval" fill="#2A2D2E" cx="212.420129" cy="58.75" rx="13.7729012" ry="17.25"></ellipse>
                <polygon id="Triangle" fill="#BAF2FF" points="241.018045 138 344.018045 330 138.018045 330"></polygon>
                <text id="N" font-family="Futura-Medium, Futura" font-size="100" font-weight="400" fill="#FFFFFF">
                    <tspan x="200.9931" y="307.232349">N</tspan>
                </text>
                <g id="Group-5" transform="translate(307.518045, 199.500000)">
                    <rect id="Rectangle" fill="#FFFFFF" x="0" y="-2.84217094e-14" width="67.0994156" height="45.5968839" rx="3"></rect>
                    <g id="email" transform="translate(0.000000, -0.000000)" fill="#000000" fill-rule="nonzero" stroke="#FFFFFF">
                        <path d="M61.202006,0 L5.89740957,0 C2.64964059,0 0,2.3612171 0,5.26117891 L0,40.335705 C0,43.2258459 2.63784578,45.5968839 5.89740957,45.5968839 L61.202006,45.5968839 C64.4416497,45.5968839 67.0994156,43.243617 67.0994156,40.335705 L67.0994156,5.26117891 C67.0994156,2.37103796 64.4615698,0 61.202006,0 Z M60.3876393,3.50745261 L33.6747329,27.3386055 L6.73077907,3.50745261 L60.3876393,3.50745261 Z M3.93160638,39.6094285 L3.93160638,5.97073658 L22.8660917,22.7176536 L3.93160638,39.6094285 Z M6.71164526,42.0894313 L25.6580564,25.1870172 L32.2968359,31.0587267 C33.0653339,31.738471 34.3054936,31.7362496 35.0708463,31.0533486 L41.5439741,25.2785617 L60.3877703,42.0894313 L6.71164526,42.0894313 Z M63.1678092,39.6093116 L44.324013,22.798442 L63.1678092,5.98745543 L63.1678092,39.6093116 Z" id="Shape"></path>
                    </g>
                </g>
                <g id="Group-5" transform="translate(207.018045, 340.732349)">
                    <rect id="Rectangle" fill="#FFFFFF" x="0" y="-2.84217094e-14" width="67.0994156" height="45.5968839" rx="3"></rect>
                    <g id="email" transform="translate(0.000000, -0.000000)" fill="#000000" fill-rule="nonzero" stroke="#FFFFFF">
                        <path d="M61.202006,0 L5.89740957,0 C2.64964059,0 0,2.3612171 0,5.26117891 L0,40.335705 C0,43.2258459 2.63784578,45.5968839 5.89740957,45.5968839 L61.202006,45.5968839 C64.4416497,45.5968839 67.0994156,43.243617 67.0994156,40.335705 L67.0994156,5.26117891 C67.0994156,2.37103796 64.4615698,0 61.202006,0 Z M60.3876393,3.50745261 L33.6747329,27.3386055 L6.73077907,3.50745261 L60.3876393,3.50745261 Z M3.93160638,39.6094285 L3.93160638,5.97073658 L22.8660917,22.7176536 L3.93160638,39.6094285 Z M6.71164526,42.0894313 L25.6580564,25.1870172 L32.2968359,31.0587267 C33.0653339,31.738471 34.3054936,31.7362496 35.0708463,31.0533486 L41.5439741,25.2785617 L60.3877703,42.0894313 L6.71164526,42.0894313 Z M63.1678092,39.6093116 L44.324013,22.798442 L63.1678092,5.98745543 L63.1678092,39.6093116 Z" id="Shape"></path>
                    </g>
                </g>
                <text id="left" transform="translate(132.159278, 265.078250) rotate(-1.000000) translate(-132.159278, -265.078250) " font-family="Arial-BoldMT, Arial" font-size="12" font-weight="bold" fill="#040000">
                    <tspan x="123.159278" y="269.07825">left</tspan>
                </text>
                <text id="right" font-family="Arial-BoldMT, Arial" font-size="12" font-weight="bold" fill="#000000">
                    <tspan x="226.777484" y="402.464699">right</tspan>
                </text>
                <text id="forwards:of" font-family="Arial-BoldMT, Arial" font-size="12" font-weight="bold" fill="#000000">
                    <tspan x="309.518045" y="264">forwards:of</tspan>
                </text>
                <g id="Group-10" transform="translate(145.568731, 429.625858)" stroke="#2A2D2E" stroke-width="3">
                    <rect id="Rectangle" fill="#BAF2FF" x="1.5" y="1.5" width="191" height="20" rx="10"></rect>
                    <rect id="Rectangle" fill="#BAF2FF" x="34.5" y="33.5" width="119" height="12" rx="5"></rect>
                    <rect id="Rectangle" fill="#898989" x="69.5" y="21.5" width="48" height="12"></rect>
                    <path d="M69.8997015,32 L84.5,22.5" id="Line-3" stroke-linecap="square"></path>
                    <path d="M82.0256487,32.5 L97.5,22" id="Line-3" stroke-linecap="square"></path>
                    <path d="M94.3997015,32.5 L109.874053,22" id="Line-3" stroke-linecap="square"></path>
                    <path d="M106.955847,32.5 L116.5,26.5" id="Line-3" stroke-linecap="square"></path>
                    <path d="M70.5,23.5 L72.5,22" id="Line-3" stroke-linecap="square"></path>
                </g>
            </g>
            <g id="message" transform="translate(101.000000, 184.428624)" fill="#000000" fill-rule="nonzero" stroke="#FFFFFF">
                <path d="M64.9503613,26.0611416 C64.9502344,25.9506406 64.9283984,25.7837412 64.8904395,25.687591 C64.7905273,25.27802 64.5684863,24.9038955 64.236123,24.6427115 L54.9314746,17.3312812 L54.9314746,9.49346478 C54.9314746,8.45446904 54.1860059,7.61179184 53.2668652,7.61179184 L42.5623047,7.61179184 L33.4543066,0.45391485 C32.8850488,0.00602732334 32.1292969,0.00416172326 31.5582617,0.45018365 L22.3914844,7.61179184 L11.7337695,7.61179184 C10.814375,7.61179184 10.0691602,8.45446904 10.0691602,9.49346478 L10.0691602,17.2390058 L0.719316406,24.5436911 C0.259365234,24.9030344 0.0105371094,25.4774957 0.00266601563,26.0648728 C0.00215820313,26.0759228 0,26.0863989 0,26.0978795 L0.0496386719,66.8877902 C0.0502734375,67.3867665 0.226230469,67.8650776 0.538662109,68.2175325 C0.850712891,68.5692699 1.2734668,68.7667365 1.71424805,68.7667365 C1.71513672,68.7667365 1.71577148,68.7667365 1.7165332,68.7667365 L63.3376758,68.6710169 C64.2568164,68.6695818 65.0012695,67.8259 65,66.7867608 L64.9503613,26.0611416 Z M54.9313477,21.9147736 L60.2504297,26.0934308 L54.9313477,30.273523 L54.9313477,21.9147736 Z M32.5019043,4.28858406 L36.7307129,7.61164833 L28.2487207,7.61164833 L32.5019043,4.28858406 Z M13.3983789,11.3751377 L51.6021289,11.3751377 L51.6021289,32.8899554 L38.775293,42.9702231 L33.5455859,38.3845781 C33.5374609,38.3774028 33.5304785,38.372954 33.5226074,38.3664962 C32.9381152,37.8708206 32.1113965,37.8525951 31.5048145,38.3845781 L26.2371484,43.0033734 L13.3983789,32.9731898 L13.3983789,11.3751377 Z M10.0691602,21.8136007 L10.0691602,30.3723998 L4.59164063,26.0931438 L10.0691602,21.8136007 Z M3.33353516,29.6870071 L23.4770605,45.4233437 L3.37416016,63.0495333 L3.33353516,29.6870071 Z M6.58569336,64.9959282 L32.5252637,42.2522541 L58.3717773,64.9154204 L6.58569336,64.9959282 Z M41.5319531,45.3873233 L61.6255859,29.5963102 L61.6662109,63.0420709 L41.5319531,45.3873233 Z" id="Shape"></path>
                <path d="M43.7696289,18.9018295 L21.2308789,18.9018295 C20.3117383,18.9018295 19.5662695,19.7445067 19.5662695,20.7835024 C19.5662695,21.8224982 20.3117383,22.6651754 21.2308789,22.6651754 L43.7696289,22.6651754 C44.6890234,22.6651754 45.4342383,21.8224982 45.4342383,20.7835024 C45.4342383,19.7445067 44.6890234,18.9018295 43.7696289,18.9018295 Z" id="Path"></path>
                <path d="M43.7696289,28.6864714 L21.2308789,28.6864714 C20.3117383,28.6864714 19.5662695,29.5291486 19.5662695,30.5681443 C19.5662695,31.6071401 20.3117383,32.4498173 21.2308789,32.4498173 L43.7696289,32.4498173 C44.6890234,32.4498173 45.4342383,31.6071401 45.4342383,30.5681443 C45.4342383,29.5291486 44.6890234,28.6864714 43.7696289,28.6864714 Z" id="Path"></path>
            </g>
        </g>
    </g>
</svg>