<?xml version="1.0" encoding="UTF-8"?>
<svg width="1789px" height="1154px" viewBox="0 0 1789 1154" version="1.1" xmlns="http://www.w3.org/2000/svg" xmlns:xlink="http://www.w3.org/1999/xlink">
    <!-- Generator: Sketch 53.2 (72643) - https://sketchapp.com -->
    <title>Group 20</title>
    <desc>Created with Sketch.</desc>
    <g id="Page-1" stroke="none" stroke-width="1" fill="none" fill-rule="evenodd">
        <g id="Group-20" transform="translate(-207.000000, -310.000000)">
            <g id="Group-19">
                <g id="Group-16" transform="translate(779.500000, 757.000000) rotate(-12.000000) translate(-779.500000, -757.000000) translate(118.000000, 124.000000)">
                    <path d="M260.355606,674.580033 L375.053824,1308.4426 L442.255259,1249.19376 L344.277071,616.073566 L260.355606,674.580033 Z" id="Rectangle" stroke="#2A2D2E" stroke-width="6" fill="#FFEAD3" transform="translate(351.265956, 962.257970) rotate(127.000000) translate(-351.265956, -962.257970) "></path>
                    <path d="M209.228355,223.363142 C207.281173,222.949869 205.27397,222.903571 203.309804,223.226624 C194.590397,224.660732 188.684496,232.891783 190.118605,241.61119 L291.593441,858.580004 C292.68391,865.210077 297.800608,870.452491 304.402265,871.703537 L763.230365,958.653706 C763.387826,958.683545 763.544956,958.715105 763.701727,958.748378 L1125.34542,1035.50413 C1127.30585,1035.92022 1129.32701,1035.96429 1131.30372,1035.63406 C1140.01948,1034.17801 1145.90464,1025.93211 1144.44858,1017.21634 L1043.12735,410.721544 C1042.04368,404.234893 1037.10116,399.072009 1030.66792,397.706608 L209.228355,223.363142 Z" id="Rectangle" stroke="#2A2D2E" stroke-width="6" fill="#E9EAEA" transform="translate(667.286917, 629.433638) rotate(126.000000) translate(-667.286917, -629.433638) "></path>
                    <path d="M1078.14896,663.127275 L980.169714,30.000266 L901.638093,84.5989426 C897.77549,87.2843959 895.838336,91.9791776 896.683316,96.6070679 L1010.94016,722.382597 L1078.14896,663.127275 Z" id="Rectangle" stroke="#2A2D2E" stroke-width="6" fill="#E0E1E1" transform="translate(986.681334, 376.191317) rotate(127.000000) translate(-986.681334, -376.191317) "></path>
                    <path d="M839.578685,441.844355 L997.897052,1286.65043 C997.942998,1286.8956 998.078914,1287.11475 998.278126,1287.26487 C998.719201,1287.59724 999.346204,1287.50912 999.678577,1287.06804 L1059.61167,1207.53415 L894.554697,368.888723 L839.578685,441.844355 Z" id="Rectangle" stroke="#2A2D2E" stroke-width="6" fill="#FFFFFF" transform="translate(949.600080, 826.092685) scale(1, -1) rotate(-217.000000) translate(-949.600080, -826.092685) "></path>
                    <path d="M271.587528,132.760563 L429.863978,977.342963 C429.909924,977.588136 430.045841,977.807286 430.245053,977.957403 C430.686127,978.289776 431.31313,978.201657 431.645503,977.760582 L491.583434,898.220262 L332.410629,69.9273722 L271.587528,132.760563 Z" id="Rectangle" stroke="#2A2D2E" stroke-width="6" fill="#F5F5F5" transform="translate(381.567007, 522.427190) scale(1, -1) rotate(-217.000000) translate(-381.567007, -522.427190) "></path>
                    <g id="Group-18" transform="translate(346.500000, 960.098438) rotate(27.000000) translate(-346.500000, -960.098438) translate(-13.000000, 902.598438)">
                        <path d="M5.94553131,3.76303294 L64.64796,103.122941 L714.183198,111.095203 L670.010967,3.78807301 L5.94553131,3.76303294 Z" id="Rectangle" stroke="#162B33" stroke-width="6" fill="#FFFFFF"></path>
                        <ellipse id="Oval" stroke="#2A2D2E" stroke-width="6" fill="#BAF2FF" cx="331.542763" cy="57.4567599" rx="24.9188508" ry="23.621633"></ellipse>
                        <text id="Orientation" font-family="BradleyHandITCTT-Bold, Bradley Hand" font-size="43" font-style="expanded" font-weight="bold" fill="#040000">
                            <tspan x="50.1333695" y="52.5443257">Orientation</tspan>
                        </text>
                    </g>
                </g>
                <g id="Group-9" transform="translate(533.000000, 453.552485)">
                    <rect id="Rectangle" stroke="#2A2D2E" stroke-width="3" fill="#FFECE1" x="227.69303" y="89.5" width="27.4453605" height="23"></rect>
                    <g id="Group-7" transform="translate(319.918629, 128.000000)" stroke="#2A2D2E">
                        <path d="M66.7507018,45.3295857 C79.3429636,49.2640101 106.565179,86.698417 106.565179,108.527829 C106.565179,127.84183 123,127.84183 123,108.527829 C123,64.8235986 97.7040884,29.3943194 66.5,29.3943194 C35.2959116,29.3943194 10,64.8235986 10,108.527829 C10,125.81502 25.8825497,125.81502 25.8825497,108.527829 C25.8825497,54.3506479 63.515455,44.3187401 66.7507018,45.3295857 Z" id="Oval" stroke-width="3" fill="#FFECE1" transform="translate(66.500000, 76.203825) scale(-1, -1) rotate(14.000000) translate(-66.500000, -76.203825) "></path>
                        <path d="M131.645953,19.4435636 C151.52318,21.4686418 157.351488,35.9323536 157.351488,46.1919594 C157.351488,55.2693469 167.895953,55.2693469 167.895953,46.1919594 C167.895953,25.6514074 151.666275,9 131.645953,9 C111.625631,9 95.3959528,25.6514074 95.3959528,46.1919594 C95.3959528,54.3167664 105.586084,54.3167664 105.586084,46.1919594 C105.586084,20.7292252 129.458147,19.2206715 131.645953,19.4435636 Z" id="Oval" stroke-width="3" fill="#FFB3E2" transform="translate(131.645953, 31.000000) scale(-1, -1) rotate(14.000000) translate(-131.645953, -31.000000) "></path>
                        <path d="M112.354047,61.1161747 L126.354047,66.6161747" id="Line" stroke-width="3" stroke-linecap="square"></path>
                        <path d="M108.354047,73.7038246 L121.354047,79.6161747" id="Line" stroke-width="3" stroke-linecap="square"></path>
                        <path d="M101.354047,84.9066478 L114.354047,90.8189979" id="Line" stroke-width="3" stroke-linecap="square"></path>
                        <path d="M91.6861653,94.990766 L105.297161,102.616175" id="Line" stroke-width="3" stroke-linecap="square"></path>
                        <path d="M80.5647157,102.839901 L91.5018746,112.322342" id="Line" stroke-width="3" stroke-linecap="square"></path>
                        <path d="M68.5647157,106.713508 L75.3540472,120.616175" id="Line" stroke-width="3" stroke-linecap="square"></path>
                        <path d="M66.7507018,45.3295857 C79.3429636,49.2640101 106.565179,86.698417 106.565179,108.527829 C106.565179,127.84183 123,127.84183 123,108.527829 C123,64.8235986 97.7040884,29.3943194 66.5,29.3943194 C35.2959116,29.3943194 10,64.8235986 10,108.527829 C10,125.81502 25.8825497,125.81502 25.8825497,108.527829 C25.8825497,54.3506479 63.515455,44.3187401 66.7507018,45.3295857 Z" id="Oval" stroke-width="3" fill="#FFFFFF" transform="translate(66.500000, 76.203825) scale(-1, -1) rotate(14.000000) translate(-66.500000, -76.203825) "></path>
                        <path d="M131.645953,19.4435636 C151.52318,21.4686418 157.351488,35.9323536 157.351488,46.1919594 C157.351488,55.2693469 167.895953,55.2693469 167.895953,46.1919594 C167.895953,25.6514074 151.666275,9 131.645953,9 C111.625631,9 95.3959528,25.6514074 95.3959528,46.1919594 C95.3959528,54.3167664 105.586084,54.3167664 105.586084,46.1919594 C105.586084,20.7292252 129.458147,19.2206715 131.645953,19.4435636 Z" id="Oval" stroke-width="5" fill="#BAF2FF" transform="translate(131.645953, 31.000000) scale(-1, -1) rotate(14.000000) translate(-131.645953, -31.000000) "></path>
                        <path d="M112.354047,61.1161747 L126.354047,66.6161747" id="Line" stroke-width="3" stroke-linecap="square"></path>
                        <path d="M108.354047,73.7038246 L121.354047,79.6161747" id="Line" stroke-width="3" stroke-linecap="square"></path>
                        <path d="M101.354047,84.9066478 L114.354047,90.8189979" id="Line" stroke-width="3" stroke-linecap="square"></path>
                        <path d="M91.6861653,94.990766 L105.297161,102.616175" id="Line" stroke-width="3" stroke-linecap="square"></path>
                        <path d="M82.0666399,101.58765 L91.5018746,112.322342" id="Line" stroke-width="3" stroke-linecap="square"></path>
                    </g>
                    <g id="Group-6" transform="translate(86.500000, 192.000000) scale(1, -1) translate(-86.500000, -192.000000) translate(0.000000, 123.500000)" stroke="#2A2D2E">
                        <path d="M106.646655,28.9352663 C119.238916,32.8696906 146.461132,70.3040976 146.461132,92.1335099 C146.461132,111.447511 162.895953,111.447511 162.895953,92.1335099 C162.895953,48.4292792 137.600041,13 106.395953,13 C75.1918644,13 49.8959528,48.4292792 49.8959528,92.1335099 C49.8959528,109.420701 65.7785025,109.420701 65.7785025,92.1335099 C65.7785025,37.9563284 103.411408,27.9244206 106.646655,28.9352663 Z" id="Oval" stroke-width="3" fill="#FFECE1" transform="translate(106.395953, 59.809505) rotate(14.000000) translate(-106.395953, -59.809505) "></path>
                        <path d="M41.25,95.2815936 C61.1272269,97.3066718 66.9555351,111.770384 66.9555351,122.029989 C66.9555351,131.107377 77.5,131.107377 77.5,122.029989 C77.5,101.489437 61.2703222,84.8380299 41.25,84.8380299 C21.2296778,84.8380299 5,101.489437 5,122.029989 C5,130.154796 15.1901314,130.154796 15.1901314,122.029989 C15.1901314,96.5672551 39.0621946,95.0587015 41.25,95.2815936 Z" id="Oval" stroke-width="3" fill="#FFB3E2" transform="translate(41.250000, 106.838030) rotate(14.000000) translate(-41.250000, -106.838030) "></path>
                        <path d="M92.5419055,16.2218553 L98.5419055,30.2218553" id="Line-2" stroke-width="3" stroke-linecap="square"></path>
                        <path d="M77.5419055,26.2218553 L84.7455018,37.7218553" id="Line-2" stroke-width="3" stroke-linecap="square"></path>
                        <path d="M65.5419055,38.2218553 L74.5419055,47.7218553" id="Line-2" stroke-width="3" stroke-linecap="square"></path>
                        <path d="M56.5419055,51.0123284 L66.0419055,59.3095052" id="Line-2" stroke-width="3" stroke-linecap="square"></path>
                        <path d="M47.5419055,69.3191885 L59.0419055,76.2218553" id="Line-2" stroke-width="3" stroke-linecap="square"></path>
                        <path d="M106.646655,28.9352663 C119.238916,32.8696906 146.461132,70.3040976 146.461132,92.1335099 C146.461132,111.447511 162.895953,111.447511 162.895953,92.1335099 C162.895953,48.4292792 137.600041,13 106.395953,13 C75.1918644,13 49.8959528,48.4292792 49.8959528,92.1335099 C49.8959528,109.420701 65.7785025,109.420701 65.7785025,92.1335099 C65.7785025,37.9563284 103.411408,27.9244206 106.646655,28.9352663 Z" id="Oval" stroke-width="3" fill="#FFFFFF" transform="translate(106.395953, 59.809505) rotate(14.000000) translate(-106.395953, -59.809505) "></path>
                        <path d="M41.25,95.2815936 C61.1272269,97.3066718 66.9555351,111.770384 66.9555351,122.029989 C66.9555351,131.107377 77.5,131.107377 77.5,122.029989 C77.5,101.489437 61.2703222,84.8380299 41.25,84.8380299 C21.2296778,84.8380299 5,101.489437 5,122.029989 C5,130.154796 15.1901314,130.154796 15.1901314,122.029989 C15.1901314,96.5672551 39.0621946,95.0587015 41.25,95.2815936 Z" id="Oval" stroke-width="5" fill="#BAF2FF" transform="translate(41.250000, 106.838030) rotate(14.000000) translate(-41.250000, -106.838030) "></path>
                        <path d="M77.5419055,26.2218553 L84.7455018,37.7218553" id="Line-2" stroke-width="3" stroke-linecap="square"></path>
                        <path d="M65.5419055,38.2218553 L74.5419055,47.7218553" id="Line-2" stroke-width="3" stroke-linecap="square"></path>
                        <path d="M56.5419055,51.0123284 L66.0419055,59.3095052" id="Line-2" stroke-width="3" stroke-linecap="square"></path>
                        <path d="M47.5419055,69.3191885 L59.0419055,76.2218553" id="Line-2" stroke-width="3" stroke-linecap="square"></path>
                    </g>
                    <path d="M149.173888,29.9556273 L149.173888,92.1728927 C196.862692,87.3484693 228.045244,84.9365404 242.779898,84.9365404 C257.50921,84.9365404 287.749775,87.3462999 333.557833,92.1661484 L333.557833,29.8744968 C303.976668,16.2874519 275.031059,9.5 246.711649,9.5 C218.33611,9.5 185.820892,16.3139827 149.173888,29.9556305 Z" id="Rectangle" stroke="#2A2D2E" stroke-width="3" fill="#FFFFFF"></path>
                    <path d="M141.068731,25.7087392 L141.068731,99.6723513 C193.580206,93.9651104 227.910747,91.1118187 244.123249,91.1118187 C260.330481,91.1118187 293.625429,93.9627688 344.068725,99.6650542 L344.068731,25.6248869 C311.49572,9.53657257 279.624942,1.5 248.445608,1.5 C217.21178,1.5 181.416626,9.56419215 141.068731,25.7087422 Z" id="Rectangle" stroke="#2A2D2E" stroke-width="3" fill="#D5FFD1"></path>
                    <path d="M149.173888,29.9556273 L149.173888,92.1728927 C196.862692,87.3484693 228.045244,84.9365404 242.779898,84.9365404 C257.50921,84.9365404 287.749775,87.3462999 333.557833,92.1661484 L333.557833,29.8744968 C303.976668,16.2874519 275.031059,9.5 246.711649,9.5 C218.33611,9.5 185.820892,16.3139827 149.173888,29.9556305 Z" id="Rectangle" stroke="#2A2D2E" stroke-width="3" fill="#FFFFFF"></path>
                    <path d="M204.301104,24.0815926 C193.100942,22.6890239 179.154675,39.4218156 177.707913,51.3535049 C176.261151,63.2851942 185.359138,74.2347586 198.028835,75.8100416 C210.698533,77.3853246 222.142185,68.9897985 223.588947,57.0581092 C225.035709,45.1264199 215.501266,25.4741614 204.301104,24.0815926 Z" id="Oval" stroke="#2A2D2E" stroke-width="3"></path>
                    <path d="M281.884949,24.0815926 C293.085111,22.6890239 307.031378,39.4218156 308.47814,51.3535049 C309.924902,63.2851942 300.826915,74.2347586 288.157217,75.8100416 C275.48752,77.3853246 264.043868,68.9897985 262.597106,57.0581092 C261.150344,45.1264199 270.684787,25.4741614 281.884949,24.0815926 Z" id="Oval" stroke="#2A2D2E" stroke-width="3"></path>
                    <ellipse id="Oval" fill="#2A2D2E" cx="284.286508" cy="50" rx="13.7729012" ry="14"></ellipse>
                    <ellipse id="Oval" fill="#FFFFFF" cx="287.229652" cy="46.5" rx="5.08875555" ry="5.5"></ellipse>
                    <ellipse id="Oval" fill="#2A2D2E" cx="284.286508" cy="50" rx="13.7729012" ry="14"></ellipse>
                    <ellipse id="Oval" fill="#FFFFFF" cx="287.229652" cy="46.5" rx="5.08875555" ry="5.5"></ellipse>
                    <ellipse id="Oval" fill="#2A2D2E" cx="202.634121" cy="50" rx="13.7729012" ry="14"></ellipse>
                    <ellipse id="Oval" fill="#FFFFFF" cx="205.577265" cy="46.5" rx="5.08875555" ry="5.5"></ellipse>
                    <path d="M242.996862,75 C247.200489,75 250.608202,71.202164 250.608202,66.5172959 C250.608202,65.7554241 249.237907,66.0795987 249.167611,66.0169539 C248.805646,65.6943862 248.583918,72.4796063 242.996862,72.4796063 C237.382319,72.4796063 237.281691,65.6154169 236.929794,66.0169539 C236.863511,66.0925874 235.385522,65.7747244 235.385522,66.5172959 C235.385522,71.202164 238.793235,75 242.996862,75 Z" id="Oval" fill="#2A2D2E"></path>
                    <rect id="Rectangle" stroke="#2A2D2E" stroke-width="5" fill="#FFFFFF" x="228.69303" y="90.5" width="25.4453605" height="21"></rect>
                    <g id="Group-8" transform="translate(74.068731, 105.625858)">
                        <rect id="Rectangle" stroke="#2A2D2E" stroke-width="5" fill="#BAF2FF" x="2.5" y="2.5" width="331.210668" height="321" rx="160.5"></rect>
                        <rect id="Rectangle" fill="#FFFFFF" x="10.8876512" y="13.7676506" width="313.564354" height="299.232349" rx="149.616175"></rect>
                    </g>
                    <path d="M149.173888,29.9556273 L149.173888,92.1728927 C196.862692,87.3484693 228.045244,84.9365404 242.779898,84.9365404 C257.50921,84.9365404 287.749775,87.3462999 333.557833,92.1661484 L333.557833,29.8744968 C303.976668,16.2874519 275.031059,9.5 246.711649,9.5 C218.33611,9.5 185.820892,16.3139827 149.173888,29.9556305 Z" id="Rectangle" stroke="#2A2D2E" stroke-width="3" fill="#FFFFFF"></path>
                    <path d="M142.068731,26.386199 L142.068731,98.5579072 C193.992518,92.9268233 227.976477,90.1118187 244.123249,90.1118187 C260.261144,90.1118187 293.210016,92.9229323 343.068704,98.5457874 L343.068731,26.2470514 C310.822408,10.4074006 279.287259,2.5 248.445608,2.5 C217.513086,2.5 182.049432,10.4532252 142.068731,26.386199 Z" id="Rectangle" stroke="#2A2D2E" stroke-width="5" fill="#BAF2FF"></path>
                    <path d="M178.349126,21.3256084 C161.661545,26.1468106 150.173889,41.4231837 150.173889,58.7932546 L150.173888,61.3736397 C150.173888,62.2028244 150.212156,63.0315673 150.288569,63.8572235 C151.660214,78.6779826 164.786753,89.5806537 179.607522,88.2090395 C210.381653,85.3609273 231.417943,83.9365404 242.779898,83.9365404 C253.995096,83.9365404 274.102206,85.3239526 303.161126,88.0978185 C304.009065,88.1787614 304.860377,88.2193016 305.712171,88.2193016 C320.538621,88.2193016 332.557833,76.2000894 332.557833,61.3736397 L332.557833,57.1415381 C332.557833,40.15975 321.569264,25.1299647 305.387541,19.9789493 C285.529602,13.6577097 265.973364,10.5 246.711649,10.5 C226.130942,10.5 203.342074,14.1049055 178.349126,21.3256084 Z" id="Rectangle" stroke="#2A2D2E" stroke-width="5" fill="#FFFFFF"></path>
                    <ellipse id="Oval" fill="#FFFFFF" cx="287.229652" cy="46.5" rx="5.08875555" ry="5.5"></ellipse>
                    <ellipse id="Oval" fill="#2A2D2E" cx="270.513607" cy="58.75" rx="13.7729012" ry="17.25"></ellipse>
                    <ellipse id="Oval" fill="#2A2D2E" cx="212.420129" cy="58.75" rx="13.7729012" ry="17.25"></ellipse>
                    <polygon id="Triangle" fill="#BAF2FF" points="241.018045 138 344.018045 330 138.018045 330"></polygon>
                    <text id="N" font-family="Futura-Medium, Futura" font-size="100" font-weight="400" fill="#FFFFFF">
                        <tspan x="200.9931" y="307.232349">N</tspan>
                    </text>
                    <g id="Group-5" transform="translate(307.518045, 199.500000)">
                        <rect id="Rectangle" fill="#FFFFFF" x="0" y="-2.84217094e-14" width="67.0994156" height="45.5968839" rx="3"></rect>
                        <g id="email" transform="translate(0.000000, -0.000000)" fill="#000000" fill-rule="nonzero" stroke="#FFFFFF">
                            <path d="M61.202006,0 L5.89740957,0 C2.64964059,0 0,2.3612171 0,5.26117891 L0,40.335705 C0,43.2258459 2.63784578,45.5968839 5.89740957,45.5968839 L61.202006,45.5968839 C64.4416497,45.5968839 67.0994156,43.243617 67.0994156,40.335705 L67.0994156,5.26117891 C67.0994156,2.37103796 64.4615698,0 61.202006,0 Z M60.3876393,3.50745261 L33.6747329,27.3386055 L6.73077907,3.50745261 L60.3876393,3.50745261 Z M3.93160638,39.6094285 L3.93160638,5.97073658 L22.8660917,22.7176536 L3.93160638,39.6094285 Z M6.71164526,42.0894313 L25.6580564,25.1870172 L32.2968359,31.0587267 C33.0653339,31.738471 34.3054936,31.7362496 35.0708463,31.0533486 L41.5439741,25.2785617 L60.3877703,42.0894313 L6.71164526,42.0894313 Z M63.1678092,39.6093116 L44.324013,22.798442 L63.1678092,5.98745543 L63.1678092,39.6093116 Z" id="Shape"></path>
                        </g>
                    </g>
                    <g id="Group-5" transform="translate(207.018045, 340.732349)">
                        <rect id="Rectangle" fill="#FFFFFF" x="0" y="-2.84217094e-14" width="67.0994156" height="45.5968839" rx="3"></rect>
                        <g id="email" transform="translate(0.000000, -0.000000)" fill="#000000" fill-rule="nonzero" stroke="#FFFFFF">
                            <path d="M61.202006,0 L5.89740957,0 C2.64964059,0 0,2.3612171 0,5.26117891 L0,40.335705 C0,43.2258459 2.63784578,45.5968839 5.89740957,45.5968839 L61.202006,45.5968839 C64.4416497,45.5968839 67.0994156,43.243617 67.0994156,40.335705 L67.0994156,5.26117891 C67.0994156,2.37103796 64.4615698,0 61.202006,0 Z M60.3876393,3.50745261 L33.6747329,27.3386055 L6.73077907,3.50745261 L60.3876393,3.50745261 Z M3.93160638,39.6094285 L3.93160638,5.97073658 L22.8660917,22.7176536 L3.93160638,39.6094285 Z M6.71164526,42.0894313 L25.6580564,25.1870172 L32.2968359,31.0587267 C33.0653339,31.738471 34.3054936,31.7362496 35.0708463,31.0533486 L41.5439741,25.2785617 L60.3877703,42.0894313 L6.71164526,42.0894313 Z M63.1678092,39.6093116 L44.324013,22.798442 L63.1678092,5.98745543 L63.1678092,39.6093116 Z" id="Shape"></path>
                        </g>
                    </g>
                    <g id="Group-5" transform="translate(101.277484, 205.000000)">
                        <rect id="Rectangle" fill="#FFFFFF" x="0" y="-2.84217094e-14" width="67.0994156" height="45.5968839" rx="3"></rect>
                        <g id="email" transform="translate(0.000000, -0.000000)" fill="#000000" fill-rule="nonzero" stroke="#FFFFFF">
                            <path d="M61.202006,0 L5.89740957,0 C2.64964059,0 0,2.3612171 0,5.26117891 L0,40.335705 C0,43.2258459 2.63784578,45.5968839 5.89740957,45.5968839 L61.202006,45.5968839 C64.4416497,45.5968839 67.0994156,43.243617 67.0994156,40.335705 L67.0994156,5.26117891 C67.0994156,2.37103796 64.4615698,0 61.202006,0 Z M60.3876393,3.50745261 L33.6747329,27.3386055 L6.73077907,3.50745261 L60.3876393,3.50745261 Z M3.93160638,39.6094285 L3.93160638,5.97073658 L22.8660917,22.7176536 L3.93160638,39.6094285 Z M6.71164526,42.0894313 L25.6580564,25.1870172 L32.2968359,31.0587267 C33.0653339,31.738471 34.3054936,31.7362496 35.0708463,31.0533486 L41.5439741,25.2785617 L60.3877703,42.0894313 L6.71164526,42.0894313 Z M63.1678092,39.6093116 L44.324013,22.798442 L63.1678092,5.98745543 L63.1678092,39.6093116 Z" id="Shape"></path>
                        </g>
                    </g>
                    <text id="left" transform="translate(132.159278, 265.078250) rotate(-1.000000) translate(-132.159278, -265.078250) " font-family="Arial-BoldMT, Arial" font-size="12" font-weight="bold" fill="#040000">
                        <tspan x="123.159278" y="269.07825">left</tspan>
                    </text>
                    <text id="right" font-family="Arial-BoldMT, Arial" font-size="12" font-weight="bold" fill="#000000">
                        <tspan x="226.777484" y="402.464699">right</tspan>
                    </text>
                    <text id="forwards:of" font-family="Arial-BoldMT, Arial" font-size="12" font-weight="bold" fill="#000000">
                        <tspan x="309.518045" y="264">forwards:of</tspan>
                    </text>
                    <g id="Group-10" transform="translate(145.568731, 429.625858)" stroke="#2A2D2E">
                        <rect id="Rectangle" stroke-width="5" fill="#BAF2FF" x="2.5" y="2.5" width="189" height="18" rx="9"></rect>
                        <rect id="Rectangle" stroke-width="5" fill="#BAF2FF" x="35.5" y="34.5" width="117" height="10" rx="5"></rect>
                        <rect id="Rectangle" stroke-width="3" fill="#898989" x="69.5" y="21.5" width="48" height="12"></rect>
                        <path d="M69.8997015,32 L84.5,22.5" id="Line-3" stroke-width="3" stroke-linecap="square"></path>
                        <path d="M82.0256487,32.5 L97.5,22" id="Line-3" stroke-width="3" stroke-linecap="square"></path>
                        <path d="M94.3997015,32.5 L109.874053,22" id="Line-3" stroke-width="3" stroke-linecap="square"></path>
                        <path d="M106.955847,32.5 L116.5,26.5" id="Line-3" stroke-width="3" stroke-linecap="square"></path>
                        <path d="M70.5,23.5 L72.5,22" id="Line-3" stroke-width="3" stroke-linecap="square"></path>
                    </g>
                </g>
                <g id="Group-16" transform="translate(1408.428880, 931.041559) rotate(-12.000000) translate(-1408.428880, -931.041559) translate(746.928880, 297.541559)">
                    <path d="M1078.14896,663.127275 L980.169714,30.000266 L901.638093,84.5989426 C897.77549,87.2843959 895.838336,91.9791776 896.683316,96.6070679 L1010.94016,722.382597 L1078.14896,663.127275 Z" id="Rectangle" stroke="#2A2D2E" stroke-width="6" fill="#F5F5F5" transform="translate(986.681334, 376.191317) rotate(127.000000) translate(-986.681334, -376.191317) "></path>
                    <path d="M260.355606,674.580033 L375.053824,1308.4426 L442.255259,1249.19376 L344.277071,616.073566 L260.355606,674.580033 Z" id="Rectangle" stroke="#2A2D2E" stroke-width="6" fill="#FFEAD3" transform="translate(351.265956, 962.257970) rotate(127.000000) translate(-351.265956, -962.257970) "></path>
                    <g id="Group-21" transform="translate(52.903572, 0.014506)" stroke="#2A2D2E" stroke-width="6">
                        <path d="M156.324783,223.348636 C154.377601,222.935363 152.370398,222.889065 150.406232,223.212118 C141.686826,224.646226 135.780925,232.877277 137.215033,241.596684 L238.689869,858.565498 C239.780339,865.195571 244.897037,870.437985 251.498694,871.689031 L710.326793,958.6392 C710.484254,958.669039 710.641384,958.700599 710.798156,958.733872 L1072.44185,1035.48963 C1074.40228,1035.90571 1076.42344,1035.94979 1078.40014,1035.61956 C1087.11591,1034.1635 1093.00107,1025.9176 1091.54501,1017.20184 L990.223775,410.707037 C989.140113,404.220387 984.197592,399.057503 977.764348,397.692102 L156.324783,223.348636 Z" id="Rectangle" fill-opacity="0.101371285" fill="#2A2D2E" transform="translate(614.383345, 629.419132) rotate(126.000000) translate(-614.383345, -629.419132) "></path>
                        <path d="M786.675113,441.829849 L944.99348,1286.63592 C945.039426,1286.88109 945.175342,1287.10024 945.374555,1287.25036 C945.815629,1287.58273 946.442632,1287.49461 946.775005,1287.05354 L1006.7081,1207.51964 L841.651125,368.874217 L786.675113,441.829849 Z" id="Rectangle" fill="#FFFFFF" transform="translate(896.696509, 826.078179) scale(1, -1) rotate(-217.000000) translate(-896.696509, -826.078179) "></path>
                    </g>
                    <path d="M271.587528,132.760563 L429.863978,977.342963 C429.909924,977.588136 430.045841,977.807286 430.245053,977.957403 C430.686127,978.289776 431.31313,978.201657 431.645503,977.760582 L491.583434,898.220262 L332.410629,69.9273722 L271.587528,132.760563 Z" id="Rectangle" stroke="#2A2D2E" stroke-width="6" fill="#F5F5F5" transform="translate(381.567007, 522.427190) scale(1, -1) rotate(-217.000000) translate(-381.567007, -522.427190) "></path>
                    <g id="Group-18" transform="translate(346.500000, 960.098438) rotate(27.000000) translate(-346.500000, -960.098438) translate(-13.000000, 902.598438)">
                        <path d="M5.94553131,3.76303294 L64.64796,103.122941 L714.183198,111.095203 L670.010967,3.78807301 L5.94553131,3.76303294 Z" id="Rectangle" stroke="#162B33" stroke-width="6" fill="#FFFFFF"></path>
                        <ellipse id="Oval" stroke="#2A2D2E" stroke-width="6" fill="#BAF2FF" cx="331.542763" cy="57.4567599" rx="24.9188508" ry="23.621633"></ellipse>
                        <text id="Position" font-family="BradleyHandITCTT-Bold, Bradley Hand" font-size="43" font-style="expanded" font-weight="bold" fill="#040000">
                            <tspan x="50.1333695" y="52.5443257">Position</tspan>
                        </text>
                    </g>
                </g>
                <g id="Group-15" transform="translate(1398.184256, 882.844395) rotate(1.000000) translate(-1398.184256, -882.844395) translate(1144.184256, 680.844395)">
                    <rect id="Rectangle" stroke="#2A2D2E" stroke-width="6" fill="#898989" x="39.846646" y="292.628363" width="44.9893489" height="105.520596" rx="22.4946744"></rect>
                    <rect id="Rectangle" stroke="#2A2D2E" stroke-width="6" fill="#898989" x="363.062028" y="295.40588" width="44.9893489" height="105.520596" rx="22.4946744"></rect>
                    <g id="Group-11" transform="translate(0.000000, 121.374978)" stroke="#2A2D2E" stroke-width="6">
                        <path d="M464.870147,29.8740044 L461.724858,235.064431 L505,210.359668 L505,5.34927621 L464.870147,29.8740044 Z" id="Rectangle" fill="#FFEAD3"></path>
                        <path d="M241.20508,-175.780608 L241.20508,262.654014 C241.20508,262.999948 241.38387,263.321311 241.677809,263.503712 C242.147084,263.794915 242.763573,263.65056 243.054777,263.181286 L266.578259,225.273215 L265.97893,-223.110721 L241.20508,-175.780608 Z" id="Rectangle" fill="#FFEAD3" transform="translate(253.892241, 15.687161) scale(1, -1) rotate(-90.000000) translate(-253.892241, -15.687161) "></path>
                        <path d="M14,31.175841 C7.92486775,31.175841 3,36.1007088 3,42.175841 L3,226.277311 C3,232.352443 7.92486775,237.277311 14,237.277311 L451.882653,237.277311 C457.957785,237.277311 462.882653,232.352443 462.882653,226.277311 L462.882653,42.175841 C462.882653,36.1007088 457.957785,31.175841 451.882653,31.175841 L14,31.175841 Z" id="Rectangle" fill="#FFFFFF"></path>
                    </g>
                    <g id="Group-5" transform="translate(245.594751, 256.275421)">
                        <rect id="Rectangle" fill="#FFFFFF" x="0" y="-2.84217094e-14" width="91.3015758" height="66.6403559" rx="3"></rect>
                        <g id="email" transform="translate(0.000000, -0.000000)" fill="#000000" fill-rule="nonzero" stroke="#FFFFFF" stroke-width="3">
                            <path d="M83.2770233,0 L8.02455256,0 C3.6053423,0 0,3.4509452 0,7.68927184 L0,58.9510841 C0,63.1750574 3.5892932,66.6403559 8.02455256,66.6403559 L83.2770233,66.6403559 C87.6851775,66.6403559 91.3015758,63.2010301 91.3015758,58.9510841 L91.3015758,7.68927184 C91.3015758,3.46529851 87.7122826,0 83.2770233,0 Z M82.1689217,5.12618123 L45.8209084,39.9556778 L9.158511,5.12618123 L82.1689217,5.12618123 Z M5.34970171,57.8896228 L5.34970171,8.7262983 L31.1136868,33.2021049 L5.34970171,57.8896228 Z M9.13247579,61.5141747 L34.9126883,36.8111074 L43.9460163,45.3926765 C44.9917047,46.3861304 46.6791789,46.3828838 47.7205875,45.3848164 L56.5285147,36.9449007 L82.1691,61.5141747 L9.13247579,61.5141747 Z M85.9518741,57.889452 L60.3112888,33.320178 L85.9518741,8.7507331 L85.9518741,57.889452 Z" id="Shape"></path>
                        </g>
                    </g>
                    <g id="Group-5" transform="translate(131.127475, 256.275421)">
                        <rect id="Rectangle" fill="#FFFFFF" x="0" y="-2.84217094e-14" width="91.3015758" height="66.6403559" rx="3"></rect>
                        <g id="email" transform="translate(0.000000, -0.000000)" fill="#000000" fill-rule="nonzero" stroke="#FFFFFF" stroke-width="3">
                            <path d="M83.2770233,0 L8.02455256,0 C3.6053423,0 0,3.4509452 0,7.68927184 L0,58.9510841 C0,63.1750574 3.5892932,66.6403559 8.02455256,66.6403559 L83.2770233,66.6403559 C87.6851775,66.6403559 91.3015758,63.2010301 91.3015758,58.9510841 L91.3015758,7.68927184 C91.3015758,3.46529851 87.7122826,0 83.2770233,0 Z M82.1689217,5.12618123 L45.8209084,39.9556778 L9.158511,5.12618123 L82.1689217,5.12618123 Z M5.34970171,57.8896228 L5.34970171,8.7262983 L31.1136868,33.2021049 L5.34970171,57.8896228 Z M9.13247579,61.5141747 L34.9126883,36.8111074 L43.9460163,45.3926765 C44.9917047,46.3861304 46.6791789,46.3828838 47.7205875,45.3848164 L56.5285147,36.9449007 L82.1691,61.5141747 L9.13247579,61.5141747 Z M85.9518741,57.889452 L60.3112888,33.320178 L85.9518741,8.7507331 L85.9518741,57.889452 Z" id="Shape"></path>
                        </g>
                    </g>
                    <g id="Group-5" transform="translate(16.660198, 256.275421)">
                        <rect id="Rectangle" fill="#FFFFFF" x="0" y="-2.84217094e-14" width="91.3015758" height="66.6403559" rx="3"></rect>
                        <g id="email" transform="translate(0.000000, -0.000000)" fill="#000000" fill-rule="nonzero" stroke="#FFFFFF" stroke-width="3">
                            <path d="M83.2770233,0 L8.02455256,0 C3.6053423,0 0,3.4509452 0,7.68927184 L0,58.9510841 C0,63.1750574 3.5892932,66.6403559 8.02455256,66.6403559 L83.2770233,66.6403559 C87.6851775,66.6403559 91.3015758,63.2010301 91.3015758,58.9510841 L91.3015758,7.68927184 C91.3015758,3.46529851 87.7122826,0 83.2770233,0 Z M82.1689217,5.12618123 L45.8209084,39.9556778 L9.158511,5.12618123 L82.1689217,5.12618123 Z M5.34970171,57.8896228 L5.34970171,8.7262983 L31.1136868,33.2021049 L5.34970171,57.8896228 Z M9.13247579,61.5141747 L34.9126883,36.8111074 L43.9460163,45.3926765 C44.9917047,46.3861304 46.6791789,46.3828838 47.7205875,45.3848164 L56.5285147,36.9449007 L82.1691,61.5141747 L9.13247579,61.5141747 Z M85.9518741,57.889452 L60.3112888,33.320178 L85.9518741,8.7507331 L85.9518741,57.889452 Z" id="Shape"></path>
                        </g>
                    </g>
                    <g id="Group-5" transform="translate(360.062028, 256.275421)">
                        <rect id="Rectangle" fill="#FFFFFF" x="0" y="-2.84217094e-14" width="91.3015758" height="66.6403559" rx="3"></rect>
                        <g id="email" transform="translate(0.000000, -0.000000)" fill="#000000" fill-rule="nonzero" stroke="#FFFFFF" stroke-width="3">
                            <path d="M83.2770233,0 L8.02455256,0 C3.6053423,0 0,3.4509452 0,7.68927184 L0,58.9510841 C0,63.1750574 3.5892932,66.6403559 8.02455256,66.6403559 L83.2770233,66.6403559 C87.6851775,66.6403559 91.3015758,63.2010301 91.3015758,58.9510841 L91.3015758,7.68927184 C91.3015758,3.46529851 87.7122826,0 83.2770233,0 Z M82.1689217,5.12618123 L45.8209084,39.9556778 L9.158511,5.12618123 L82.1689217,5.12618123 Z M5.34970171,57.8896228 L5.34970171,8.7262983 L31.1136868,33.2021049 L5.34970171,57.8896228 Z M9.13247579,61.5141747 L34.9126883,36.8111074 L43.9460163,45.3926765 C44.9917047,46.3861304 46.6791789,46.3828838 47.7205875,45.3848164 L56.5285147,36.9449007 L82.1691,61.5141747 L9.13247579,61.5141747 Z M85.9518741,57.889452 L60.3112888,33.320178 L85.9518741,8.7507331 L85.9518741,57.889452 Z" id="Shape"></path>
                        </g>
                    </g>
                    <text id="north" font-family="Arial-BoldMT, Arial" font-size="25" font-weight="bold" fill="#040000">
                        <tspan x="30.4077266" y="347.506114">north</tspan>
                    </text>
                    <text id="east" font-family="Arial-BoldMT, Arial" font-size="25" font-weight="bold" fill="#000000">
                        <tspan x="151.790286" y="347.636766">east</tspan>
                    </text>
                    <text id="south" font-family="Arial-BoldMT, Arial" font-size="25" font-weight="bold" fill="#000000">
                        <tspan x="255.616759" y="347.636766">south</tspan>
                    </text>
                    <text id="west" font-family="Arial-BoldMT, Arial" font-size="25" font-weight="bold" fill="#000000">
                        <tspan x="377.953843" y="347.636766">west</tspan>
                    </text>
                    <ellipse id="Oval" stroke="#2A2D2E" stroke-width="6" fill="#D5FFD1" cx="122.046936" cy="202.842648" rx="10.6913265" ry="11.5714286"></ellipse>
                    <text id="X" font-family="BradleyHandITCTT-Bold, Bradley Hand" font-size="30" font-style="expanded" font-weight="bold" fill="#040000">
                        <tspan x="29.5482517" y="205.077942">X</tspan>
                    </text>
                    <ellipse id="Oval" stroke="#2A2D2E" stroke-width="6" fill="#D5FFD1" cx="338.093435" cy="201.140968" rx="10.6913265" ry="11.5714286"></ellipse>
                    <text id="y" font-family="BradleyHandITCTT-Bold, Bradley Hand" font-size="30" font-style="expanded" font-weight="bold" fill="#040000">
                        <tspan x="245.594751" y="203.376262">y</tspan>
                    </text>
                    <path d="M281.994877,42.506562 C274.909011,42.5734448 269.182004,48.3028651 269.118106,55.3887593 L269.020688,66.1919284 C269.019967,66.2719016 269.019983,66.3518796 269.020738,66.4318524 C269.088504,73.6112343 274.963478,79.3763385 282.14286,79.308573 L294.930199,79.1878745 C302.016065,79.1209917 307.743072,73.3915714 307.80697,66.3056772 L307.904388,55.5025081 C307.905109,55.4225349 307.905092,55.3425569 307.904337,55.2625841 C307.836572,48.0832022 301.961598,42.318098 294.782216,42.3858635 L281.994877,42.506562 Z" id="Rectangle" stroke="#2A2D2E" stroke-width="6" transform="translate(288.462538, 60.847218) rotate(-11.000000) translate(-288.462538, -60.847218) "></path>
                    <rect id="Rectangle" stroke="#2A2D2E" stroke-width="6" x="19.6601979" y="180.99811" width="204.773476" height="43.6890756"></rect>
                    <rect id="Rectangle" stroke="#2A2D2E" stroke-width="6" x="239.736306" y="180.99811" width="203.135167" height="43.6890756"></rect>
                    <path d="M153.239044,18.4084169 L152.178376,136.030837 L241.809017,135.184822 C274.494272,134.876308 300.911461,108.447988 301.206203,75.7626056 C301.209403,75.4077485 301.209329,75.0528694 301.205979,74.6980137 C300.90529,42.8416196 274.836823,17.2606667 242.980429,17.5613562 L153.239044,18.4084169 Z" id="Rectangle" stroke="#2A2D2E" stroke-width="6" fill="#FFB3E2" transform="translate(226.679746, 76.809138) rotate(-11.000000) translate(-226.679746, -76.809138) "></path>
                    <ellipse id="Oval" stroke="#2A2D2E" stroke-width="6" fill="#BAF2FF" cx="151.298469" cy="91.8930684" rx="59.2882653" ry="60.2394958"></ellipse>
                    <ellipse id="Oval" stroke="#2A2D2E" stroke-width="6" fill="#FFFFFF" cx="150.8125" cy="92.7439088" rx="49.0829082" ry="49.1785714"></ellipse>
                    <ellipse id="Oval" stroke="#2A2D2E" stroke-width="6" fill="#2A2D2E" cx="139.959184" cy="91.8930684" rx="31.1020408" ry="35.7352941"></ellipse>
                    <ellipse id="Oval" fill="#FFFFFF" cx="148.058673" cy="84.5124216" rx="12.6352041" ry="12.9327731"></ellipse>
                    <path d="M400.571408,41.9301023 C393.485541,41.9969852 387.758534,47.7264054 387.694637,54.8122997 L387.597218,65.6154688 C387.596497,65.6954419 387.596514,65.77542 387.597269,65.8553927 C387.665034,73.0347747 393.540008,78.7998789 400.71939,78.7321134 L413.506729,78.6114148 C420.592596,78.544532 426.319603,72.8151118 426.3835,65.7292175 L426.480919,54.9260484 C426.48164,54.8460753 426.481623,54.7660972 426.480868,54.6861244 C426.413103,47.5067425 420.538129,41.7416383 413.358747,41.8094038 L400.571408,41.9301023 Z" id="Rectangle" stroke="#2A2D2E" stroke-width="6" fill="#FFB3E2" transform="translate(407.039069, 60.270759) rotate(-11.000000) translate(-407.039069, -60.270759) "></path>
                    <path d="M271.815575,17.8319572 L270.754907,135.454377 L360.385548,134.608362 C393.070802,134.299849 419.487991,107.871528 419.782734,75.186146 C419.785934,74.8312888 419.785859,74.4764098 419.78251,74.121554 C419.48182,42.2651599 393.413353,16.684207 361.556959,16.9848966 L271.815575,17.8319572 Z" id="Rectangle" stroke="#2A2D2E" stroke-width="6" fill="#FFB3E2" transform="translate(345.256276, 76.232678) rotate(-11.000000) translate(-345.256276, -76.232678) "></path>
                    <ellipse id="Oval" stroke="#2A2D2E" stroke-width="6" fill="#BAF2FF" cx="269.875" cy="91.3166088" rx="59.2882653" ry="60.2394958"></ellipse>
                    <ellipse id="Oval" stroke="#2A2D2E" stroke-width="6" fill="#FFFFFF" cx="269.389031" cy="92.1674491" rx="49.0829082" ry="49.1785714"></ellipse>
                    <ellipse id="Oval" stroke="#2A2D2E" stroke-width="6" fill="#2A2D2E" cx="258.535714" cy="91.3166088" rx="31.1020408" ry="35.7352941"></ellipse>
                    <ellipse id="Oval" fill="#FFFFFF" cx="266.635204" cy="83.9359619" rx="12.6352041" ry="12.9327731"></ellipse>
                </g>
            </g>
        </g>
    </g>
</svg>