<?xml version="1.0" encoding="UTF-8"?>
<svg width="1323px" height="1066px" viewBox="0 0 1323 1066" version="1.1" xmlns="http://www.w3.org/2000/svg" xmlns:xlink="http://www.w3.org/1999/xlink">
    <!-- Generator: Sketch 53.2 (72643) - https://sketchapp.com -->
    <title>Group 22</title>
    <desc>Created with Sketch.</desc>
    <g id="Page-1" stroke="none" stroke-width="1" fill="none" fill-rule="evenodd">
        <g id="Group-22" transform="translate(0.000000, 0.071376)">
            <g id="Group-13" transform="translate(421.799734, 588.412000)">
                <rect id="Rectangle" stroke="#2A2D2E" stroke-width="3" fill="#FFECE1" x="238.69303" y="89.5" width="27.4453605" height="23"></rect>
                <g id="Group-7" transform="translate(417.418629, 264.000000) scale(1, -1) translate(-417.418629, -264.000000) translate(330.918629, 196.000000)" stroke="#2A2D2E" stroke-width="3">
                    <path d="M66.7507018,45.3295857 C79.3429636,49.2640101 106.565179,86.698417 106.565179,108.527829 C106.565179,127.84183 123,127.84183 123,108.527829 C123,64.8235986 97.7040884,29.3943194 66.5,29.3943194 C35.2959116,29.3943194 10,64.8235986 10,108.527829 C10,125.81502 25.8825497,125.81502 25.8825497,108.527829 C25.8825497,54.3506479 63.515455,44.3187401 66.7507018,45.3295857 Z" id="Oval" fill="#FFECE1" transform="translate(66.500000, 76.203825) scale(-1, -1) rotate(14.000000) translate(-66.500000, -76.203825) "></path>
                    <path d="M131.645953,19.4435636 C151.52318,21.4686418 157.351488,35.9323536 157.351488,46.1919594 C157.351488,55.2693469 167.895953,55.2693469 167.895953,46.1919594 C167.895953,25.6514074 151.666275,9 131.645953,9 C111.625631,9 95.3959528,25.6514074 95.3959528,46.1919594 C95.3959528,54.3167664 105.586084,54.3167664 105.586084,46.1919594 C105.586084,20.7292252 129.458147,19.2206715 131.645953,19.4435636 Z" id="Oval" fill="#FFB3E2" transform="translate(131.645953, 31.000000) scale(-1, -1) rotate(14.000000) translate(-131.645953, -31.000000) "></path>
                    <path d="M112.354047,61.1161747 L126.354047,66.6161747" id="Line" stroke-linecap="square"></path>
                    <path d="M108.354047,73.7038246 L121.354047,79.6161747" id="Line" stroke-linecap="square"></path>
                    <path d="M101.354047,84.9066478 L114.354047,90.8189979" id="Line" stroke-linecap="square"></path>
                    <path d="M91.6861653,94.990766 L105.297161,102.616175" id="Line" stroke-linecap="square"></path>
                    <path d="M80.5647157,102.839901 L91.5018746,112.322342" id="Line" stroke-linecap="square"></path>
                    <path d="M68.5647157,106.713508 L75.3540472,120.616175" id="Line" stroke-linecap="square"></path>
                    <path d="M66.7507018,45.3295857 C79.3429636,49.2640101 106.565179,86.698417 106.565179,108.527829 C106.565179,127.84183 123,127.84183 123,108.527829 C123,64.8235986 97.7040884,29.3943194 66.5,29.3943194 C35.2959116,29.3943194 10,64.8235986 10,108.527829 C10,125.81502 25.8825497,125.81502 25.8825497,108.527829 C25.8825497,54.3506479 63.515455,44.3187401 66.7507018,45.3295857 Z" id="Oval" fill="#FFFFFF" transform="translate(66.500000, 76.203825) scale(-1, -1) rotate(14.000000) translate(-66.500000, -76.203825) "></path>
                    <path d="M131.645953,19.4435636 C151.52318,21.4686418 157.351488,35.9323536 157.351488,46.1919594 C157.351488,55.2693469 167.895953,55.2693469 167.895953,46.1919594 C167.895953,25.6514074 151.666275,9 131.645953,9 C111.625631,9 95.3959528,25.6514074 95.3959528,46.1919594 C95.3959528,54.3167664 105.586084,54.3167664 105.586084,46.1919594 C105.586084,20.7292252 129.458147,19.2206715 131.645953,19.4435636 Z" id="Oval" fill="#C5FF8D" transform="translate(131.645953, 31.000000) scale(-1, -1) rotate(14.000000) translate(-131.645953, -31.000000) "></path>
                    <path d="M112.354047,61.1161747 L126.354047,66.6161747" id="Line" stroke-linecap="square"></path>
                    <path d="M108.354047,73.7038246 L121.354047,79.6161747" id="Line" stroke-linecap="square"></path>
                    <path d="M101.354047,84.9066478 L114.354047,90.8189979" id="Line" stroke-linecap="square"></path>
                    <path d="M91.6861653,94.990766 L105.297161,102.616175" id="Line" stroke-linecap="square"></path>
                    <path d="M82.0666399,101.58765 L91.5018746,112.322342" id="Line" stroke-linecap="square"></path>
                </g>
                <g id="Group-6" transform="translate(0.000000, 191.500000)" stroke="#2A2D2E" stroke-width="3">
                    <path d="M106.646655,28.9352663 C119.238916,32.8696906 146.461132,70.3040976 146.461132,92.1335099 C146.461132,111.447511 162.895953,111.447511 162.895953,92.1335099 C162.895953,48.4292792 137.600041,13 106.395953,13 C75.1918644,13 49.8959528,48.4292792 49.8959528,92.1335099 C49.8959528,109.420701 65.7785025,109.420701 65.7785025,92.1335099 C65.7785025,37.9563284 103.411408,27.9244206 106.646655,28.9352663 Z" id="Oval" fill="#FFECE1" transform="translate(106.395953, 59.809505) rotate(14.000000) translate(-106.395953, -59.809505) "></path>
                    <path d="M41.25,95.2815936 C61.1272269,97.3066718 66.9555351,111.770384 66.9555351,122.029989 C66.9555351,131.107377 77.5,131.107377 77.5,122.029989 C77.5,101.489437 61.2703222,84.8380299 41.25,84.8380299 C21.2296778,84.8380299 5,101.489437 5,122.029989 C5,130.154796 15.1901314,130.154796 15.1901314,122.029989 C15.1901314,96.5672551 39.0621946,95.0587015 41.25,95.2815936 Z" id="Oval" fill="#FFB3E2" transform="translate(41.250000, 106.838030) rotate(14.000000) translate(-41.250000, -106.838030) "></path>
                    <path d="M92.5419055,16.2218553 L98.5419055,30.2218553" id="Line-2" stroke-linecap="square"></path>
                    <path d="M77.5419055,26.2218553 L84.7455018,37.7218553" id="Line-2" stroke-linecap="square"></path>
                    <path d="M65.5419055,38.2218553 L74.5419055,47.7218553" id="Line-2" stroke-linecap="square"></path>
                    <path d="M56.5419055,51.0123284 L66.0419055,59.3095052" id="Line-2" stroke-linecap="square"></path>
                    <path d="M47.5419055,69.3191885 L59.0419055,76.2218553" id="Line-2" stroke-linecap="square"></path>
                    <path d="M106.646655,28.9352663 C119.238916,32.8696906 146.461132,70.3040976 146.461132,92.1335099 C146.461132,111.447511 162.895953,111.447511 162.895953,92.1335099 C162.895953,48.4292792 137.600041,13 106.395953,13 C75.1918644,13 49.8959528,48.4292792 49.8959528,92.1335099 C49.8959528,109.420701 65.7785025,109.420701 65.7785025,92.1335099 C65.7785025,37.9563284 103.411408,27.9244206 106.646655,28.9352663 Z" id="Oval" fill="#FFFFFF" transform="translate(106.395953, 59.809505) rotate(14.000000) translate(-106.395953, -59.809505) "></path>
                    <path d="M41.25,95.2815936 C61.1272269,97.3066718 66.9555351,111.770384 66.9555351,122.029989 C66.9555351,131.107377 77.5,131.107377 77.5,122.029989 C77.5,101.489437 61.2703222,84.8380299 41.25,84.8380299 C21.2296778,84.8380299 5,101.489437 5,122.029989 C5,130.154796 15.1901314,130.154796 15.1901314,122.029989 C15.1901314,96.5672551 39.0621946,95.0587015 41.25,95.2815936 Z" id="Oval" fill="#C5FF8D" transform="translate(41.250000, 106.838030) rotate(14.000000) translate(-41.250000, -106.838030) "></path>
                    <path d="M77.5419055,26.2218553 L84.7455018,37.7218553" id="Line-2" stroke-linecap="square"></path>
                    <path d="M65.5419055,38.2218553 L74.5419055,47.7218553" id="Line-2" stroke-linecap="square"></path>
                    <path d="M56.5419055,51.0123284 L66.0419055,59.3095052" id="Line-2" stroke-linecap="square"></path>
                    <path d="M47.5419055,69.3191885 L59.0419055,76.2218553" id="Line-2" stroke-linecap="square"></path>
                </g>
                <path d="M160.173888,29.9556273 L160.173888,92.1728927 C207.862692,87.3484693 239.045244,84.9365404 253.779898,84.9365404 C268.50921,84.9365404 298.749775,87.3462999 344.557833,92.1661484 L344.557833,29.8744968 C314.976668,16.2874519 286.031059,9.5 257.711649,9.5 C229.33611,9.5 196.820892,16.3139827 160.173888,29.9556305 Z" id="Rectangle" stroke="#2A2D2E" stroke-width="3" fill="#FFFFFF"></path>
                <path d="M152.068731,25.7087392 L152.068731,99.6723513 C204.580206,93.9651104 238.910747,91.1118187 255.123249,91.1118187 C271.330481,91.1118187 304.625429,93.9627688 355.068725,99.6650542 L355.068731,25.6248869 C322.49572,9.53657257 290.624942,1.5 259.445608,1.5 C228.21178,1.5 192.416626,9.56419215 152.068731,25.7087422 Z" id="Rectangle" stroke="#2A2D2E" stroke-width="3" fill="#D5FFD1"></path>
                <path d="M160.173888,29.9556273 L160.173888,92.1728927 C207.862692,87.3484693 239.045244,84.9365404 253.779898,84.9365404 C268.50921,84.9365404 298.749775,87.3462999 344.557833,92.1661484 L344.557833,29.8744968 C314.976668,16.2874519 286.031059,9.5 257.711649,9.5 C229.33611,9.5 196.820892,16.3139827 160.173888,29.9556305 Z" id="Rectangle" stroke="#2A2D2E" stroke-width="3" fill="#FFFFFF"></path>
                <path d="M215.301104,24.0815926 C204.100942,22.6890239 190.154675,39.4218156 188.707913,51.3535049 C187.261151,63.2851942 196.359138,74.2347586 209.028835,75.8100416 C221.698533,77.3853246 233.142185,68.9897985 234.588947,57.0581092 C236.035709,45.1264199 226.501266,25.4741614 215.301104,24.0815926 Z" id="Oval" stroke="#2A2D2E" stroke-width="3"></path>
                <path d="M292.884949,24.0815926 C304.085111,22.6890239 318.031378,39.4218156 319.47814,51.3535049 C320.924902,63.2851942 311.826915,74.2347586 299.157217,75.8100416 C286.48752,77.3853246 275.043868,68.9897985 273.597106,57.0581092 C272.150344,45.1264199 281.684787,25.4741614 292.884949,24.0815926 Z" id="Oval" stroke="#2A2D2E" stroke-width="3"></path>
                <ellipse id="Oval" fill="#2A2D2E" cx="295.286508" cy="50" rx="13.7729012" ry="14"></ellipse>
                <ellipse id="Oval" fill="#FFFFFF" cx="298.229652" cy="46.5" rx="5.08875555" ry="5.5"></ellipse>
                <ellipse id="Oval" fill="#2A2D2E" cx="295.286508" cy="50" rx="13.7729012" ry="14"></ellipse>
                <ellipse id="Oval" fill="#FFFFFF" cx="298.229652" cy="46.5" rx="5.08875555" ry="5.5"></ellipse>
                <ellipse id="Oval" fill="#2A2D2E" cx="213.634121" cy="50" rx="13.7729012" ry="14"></ellipse>
                <ellipse id="Oval" fill="#FFFFFF" cx="216.577265" cy="46.5" rx="5.08875555" ry="5.5"></ellipse>
                <path d="M253.996862,75 C258.200489,75 261.608202,71.202164 261.608202,66.5172959 C261.608202,65.7554241 260.237907,66.0795987 260.167611,66.0169539 C259.805646,65.6943862 259.583918,72.4796063 253.996862,72.4796063 C248.382319,72.4796063 248.281691,65.6154169 247.929794,66.0169539 C247.863511,66.0925874 246.385522,65.7747244 246.385522,66.5172959 C246.385522,71.202164 249.793235,75 253.996862,75 Z" id="Oval" fill="#2A2D2E"></path>
                <rect id="Rectangle" stroke="#2A2D2E" stroke-width="3" fill="#FFFFFF" x="238.69303" y="89.5" width="27.4453605" height="23"></rect>
                <g id="Group-8" transform="translate(85.068731, 105.625858)">
                    <rect id="Rectangle" stroke="#2A2D2E" stroke-width="3" fill="#C5FF8D" x="1.5" y="1.5" width="333.210668" height="323" rx="161.5"></rect>
                    <rect id="Rectangle" fill="#FFFFFF" x="10.8876512" y="13.7676506" width="313.564354" height="299.232349" rx="149.616175"></rect>
                </g>
                <path d="M160.173888,29.9556273 L160.173888,92.1728927 C207.862692,87.3484693 239.045244,84.9365404 253.779898,84.9365404 C268.50921,84.9365404 298.749775,87.3462999 344.557833,92.1661484 L344.557833,29.8744968 C314.976668,16.2874519 286.031059,9.5 257.711649,9.5 C229.33611,9.5 196.820892,16.3139827 160.173888,29.9556305 Z" id="Rectangle" stroke="#2A2D2E" stroke-width="3" fill="#FFFFFF"></path>
                <path d="M152.068731,25.7087392 L152.068731,99.6723513 C204.580206,93.9651104 238.910747,91.1118187 255.123249,91.1118187 C271.330481,91.1118187 304.625429,93.9627688 355.068725,99.6650542 L355.068731,25.6248869 C322.49572,9.53657257 290.624942,1.5 259.445608,1.5 C228.21178,1.5 192.416626,9.56419215 152.068731,25.7087422 Z" id="Rectangle" stroke="#2A2D2E" stroke-width="3" fill="#C5FF8D"></path>
                <path d="M160.173888,29.9556273 L160.173888,92.1728927 C207.862692,87.3484693 239.045244,84.9365404 253.779898,84.9365404 C268.50921,84.9365404 298.749775,87.3462999 344.557833,92.1661484 L344.557833,29.8744968 C314.976668,16.2874519 286.031059,9.5 257.711649,9.5 C229.33611,9.5 196.820892,16.3139827 160.173888,29.9556305 Z" id="Rectangle" stroke="#2A2D2E" stroke-width="3" fill="#FFFFFF"></path>
                <ellipse id="Oval" fill="#FFFFFF" cx="298.229652" cy="46.5" rx="5.08875555" ry="5.5"></ellipse>
                <ellipse id="Oval" fill="#2A2D2E" cx="288.286508" cy="58.25" rx="13.7729012" ry="17.25"></ellipse>
                <ellipse id="Oval" fill="#2A2D2E" cx="220.634121" cy="59.25" rx="13.7729012" ry="17.25"></ellipse>
                <polygon id="Triangle" fill="#C5FF8D" transform="translate(252.018045, 299.000000) scale(1, -1) translate(-252.018045, -299.000000) " points="252.018045 203 355.018045 395 149.018045 395"></polygon>
                <text id="S" font-family="Futura-Medium, Futura" font-size="100" font-weight="400" fill="#FFFFFF">
                    <tspan x="221.9931" y="314.232349">S</tspan>
                </text>
                <g id="Group-5" transform="translate(118.556707, 281.633825)">
                    <rect id="Rectangle" fill="#FFFFFF" x="0" y="-2.84217094e-14" width="67.0994156" height="45.5968839" rx="3"></rect>
                    <g id="email" transform="translate(0.000000, -0.000000)" fill="#000000" fill-rule="nonzero" stroke="#FFFFFF">
                        <path d="M61.202006,0 L5.89740957,0 C2.64964059,0 0,2.3612171 0,5.26117891 L0,40.335705 C0,43.2258459 2.63784578,45.5968839 5.89740957,45.5968839 L61.202006,45.5968839 C64.4416497,45.5968839 67.0994156,43.243617 67.0994156,40.335705 L67.0994156,5.26117891 C67.0994156,2.37103796 64.4615698,0 61.202006,0 Z M60.3876393,3.50745261 L33.6747329,27.3386055 L6.73077907,3.50745261 L60.3876393,3.50745261 Z M3.93160638,39.6094285 L3.93160638,5.97073658 L22.8660917,22.7176536 L3.93160638,39.6094285 Z M6.71164526,42.0894313 L25.6580564,25.1870172 L32.2968359,31.0587267 C33.0653339,31.738471 34.3054936,31.7362496 35.0708463,31.0533486 L41.5439741,25.2785617 L60.3877703,42.0894313 L6.71164526,42.0894313 Z M63.1678092,39.6093116 L44.324013,22.798442 L63.1678092,5.98745543 L63.1678092,39.6093116 Z" id="Shape"></path>
                    </g>
                </g>
                <g id="Group-5" transform="translate(319.018045, 277.401476)">
                    <rect id="Rectangle" fill="#FFFFFF" x="0" y="-2.84217094e-14" width="67.0994156" height="45.5968839" rx="3"></rect>
                    <g id="email" transform="translate(0.000000, -0.000000)" fill="#000000" fill-rule="nonzero" stroke="#FFFFFF">
                        <path d="M61.202006,0 L5.89740957,0 C2.64964059,0 0,2.3612171 0,5.26117891 L0,40.335705 C0,43.2258459 2.63784578,45.5968839 5.89740957,45.5968839 L61.202006,45.5968839 C64.4416497,45.5968839 67.0994156,43.243617 67.0994156,40.335705 L67.0994156,5.26117891 C67.0994156,2.37103796 64.4615698,0 61.202006,0 Z M60.3876393,3.50745261 L33.6747329,27.3386055 L6.73077907,3.50745261 L60.3876393,3.50745261 Z M3.93160638,39.6094285 L3.93160638,5.97073658 L22.8660917,22.7176536 L3.93160638,39.6094285 Z M6.71164526,42.0894313 L25.6580564,25.1870172 L32.2968359,31.0587267 C33.0653339,31.738471 34.3054936,31.7362496 35.0708463,31.0533486 L41.5439741,25.2785617 L60.3877703,42.0894313 L6.71164526,42.0894313 Z M63.1678092,39.6093116 L44.324013,22.798442 L63.1678092,5.98745543 L63.1678092,39.6093116 Z" id="Shape"></path>
                    </g>
                </g>
                <g id="Group-5" transform="translate(218.777484, 130.000000)">
                    <rect id="Rectangle" fill="#FFFFFF" x="0" y="-2.84217094e-14" width="67.0994156" height="45.5968839" rx="3"></rect>
                    <g id="email" transform="translate(0.000000, -0.000000)" fill="#000000" fill-rule="nonzero" stroke="#FFFFFF">
                        <path d="M61.202006,0 L5.89740957,0 C2.64964059,0 0,2.3612171 0,5.26117891 L0,40.335705 C0,43.2258459 2.63784578,45.5968839 5.89740957,45.5968839 L61.202006,45.5968839 C64.4416497,45.5968839 67.0994156,43.243617 67.0994156,40.335705 L67.0994156,5.26117891 C67.0994156,2.37103796 64.4615698,0 61.202006,0 Z M60.3876393,3.50745261 L33.6747329,27.3386055 L6.73077907,3.50745261 L60.3876393,3.50745261 Z M3.93160638,39.6094285 L3.93160638,5.97073658 L22.8660917,22.7176536 L3.93160638,39.6094285 Z M6.71164526,42.0894313 L25.6580564,25.1870172 L32.2968359,31.0587267 C33.0653339,31.738471 34.3054936,31.7362496 35.0708463,31.0533486 L41.5439741,25.2785617 L60.3877703,42.0894313 L6.71164526,42.0894313 Z M63.1678092,39.6093116 L44.324013,22.798442 L63.1678092,5.98745543 L63.1678092,39.6093116 Z" id="Shape"></path>
                    </g>
                </g>
                <text id="left" transform="translate(251.659278, 190.078250) rotate(-1.000000) translate(-251.659278, -190.078250) " font-family="Arial-BoldMT, Arial" font-size="12" font-weight="bold" fill="#040000">
                    <tspan x="242.659278" y="194.07825">left</tspan>
                </text>
                <text id="right" font-family="Arial-BoldMT, Arial" font-size="12" font-weight="bold" fill="#000000">
                    <tspan x="338.777484" y="339.133825">right</tspan>
                </text>
                <text id="forwards:of" font-family="Arial-BoldMT, Arial" font-size="12" font-weight="bold" fill="#000000">
                    <tspan x="122.556707" y="346.133825">forwards:of</tspan>
                </text>
                <g id="Group-10" transform="translate(155.777484, 429.625858)" stroke="#2A2D2E" stroke-width="3">
                    <rect id="Rectangle" fill="#C5FF8D" x="1.5" y="1.5" width="191" height="20" rx="10"></rect>
                    <rect id="Rectangle" fill="#C5FF8D" x="34.5" y="33.5" width="119" height="12" rx="5"></rect>
                    <rect id="Rectangle" fill="#898989" x="69.5" y="21.5" width="48" height="12"></rect>
                    <path d="M69.8997015,32 L84.5,22.5" id="Line-3" stroke-linecap="square"></path>
                    <path d="M82.0256487,32.5 L97.5,22" id="Line-3" stroke-linecap="square"></path>
                    <path d="M94.3997015,32.5 L109.874053,22" id="Line-3" stroke-linecap="square"></path>
                    <path d="M106.955847,32.5 L116.5,26.5" id="Line-3" stroke-linecap="square"></path>
                    <path d="M70.5,23.5 L72.5,22" id="Line-3" stroke-linecap="square"></path>
                </g>
            </g>
            <g id="Group-12" transform="translate(818.179678, 238.500000)">
                <rect id="Rectangle" stroke="#2A2D2E" stroke-width="3" fill="#FFECE1" x="240.124299" y="89.5" width="27.4453605" height="23"></rect>
                <g id="Group-7" transform="translate(332.349898, 128.000000)" stroke="#2A2D2E" stroke-width="3">
                    <path d="M66.7507018,45.3295857 C79.3429636,49.2640101 106.565179,86.698417 106.565179,108.527829 C106.565179,127.84183 123,127.84183 123,108.527829 C123,64.8235986 97.7040884,29.3943194 66.5,29.3943194 C35.2959116,29.3943194 10,64.8235986 10,108.527829 C10,125.81502 25.8825497,125.81502 25.8825497,108.527829 C25.8825497,54.3506479 63.515455,44.3187401 66.7507018,45.3295857 Z" id="Oval" fill="#FFECE1" transform="translate(66.500000, 76.203825) scale(-1, -1) rotate(14.000000) translate(-66.500000, -76.203825) "></path>
                    <path d="M131.645953,19.4435636 C151.52318,21.4686418 157.351488,35.9323536 157.351488,46.1919594 C157.351488,55.2693469 167.895953,55.2693469 167.895953,46.1919594 C167.895953,25.6514074 151.666275,9 131.645953,9 C111.625631,9 95.3959528,25.6514074 95.3959528,46.1919594 C95.3959528,54.3167664 105.586084,54.3167664 105.586084,46.1919594 C105.586084,20.7292252 129.458147,19.2206715 131.645953,19.4435636 Z" id="Oval" fill="#FFB3E2" transform="translate(131.645953, 31.000000) scale(-1, -1) rotate(14.000000) translate(-131.645953, -31.000000) "></path>
                    <path d="M112.354047,61.1161747 L126.354047,66.6161747" id="Line" stroke-linecap="square"></path>
                    <path d="M108.354047,73.7038246 L121.354047,79.6161747" id="Line" stroke-linecap="square"></path>
                    <path d="M101.354047,84.9066478 L114.354047,90.8189979" id="Line" stroke-linecap="square"></path>
                    <path d="M91.6861653,94.990766 L105.297161,102.616175" id="Line" stroke-linecap="square"></path>
                    <path d="M80.5647157,102.839901 L91.5018746,112.322342" id="Line" stroke-linecap="square"></path>
                    <path d="M68.5647157,106.713508 L75.3540472,120.616175" id="Line" stroke-linecap="square"></path>
                    <path d="M66.7507018,45.3295857 C79.3429636,49.2640101 106.565179,86.698417 106.565179,108.527829 C106.565179,127.84183 123,127.84183 123,108.527829 C123,64.8235986 97.7040884,29.3943194 66.5,29.3943194 C35.2959116,29.3943194 10,64.8235986 10,108.527829 C10,125.81502 25.8825497,125.81502 25.8825497,108.527829 C25.8825497,54.3506479 63.515455,44.3187401 66.7507018,45.3295857 Z" id="Oval" fill="#FFFFFF" transform="translate(66.500000, 76.203825) scale(-1, -1) rotate(14.000000) translate(-66.500000, -76.203825) "></path>
                    <path d="M131.645953,19.4435636 C151.52318,21.4686418 157.351488,35.9323536 157.351488,46.1919594 C157.351488,55.2693469 167.895953,55.2693469 167.895953,46.1919594 C167.895953,25.6514074 151.666275,9 131.645953,9 C111.625631,9 95.3959528,25.6514074 95.3959528,46.1919594 C95.3959528,54.3167664 105.586084,54.3167664 105.586084,46.1919594 C105.586084,20.7292252 129.458147,19.2206715 131.645953,19.4435636 Z" id="Oval" fill="#FFB3E2" transform="translate(131.645953, 31.000000) scale(-1, -1) rotate(14.000000) translate(-131.645953, -31.000000) "></path>
                    <path d="M112.354047,61.1161747 L126.354047,66.6161747" id="Line" stroke-linecap="square"></path>
                    <path d="M108.354047,73.7038246 L121.354047,79.6161747" id="Line" stroke-linecap="square"></path>
                    <path d="M101.354047,84.9066478 L114.354047,90.8189979" id="Line" stroke-linecap="square"></path>
                    <path d="M91.6861653,94.990766 L105.297161,102.616175" id="Line" stroke-linecap="square"></path>
                    <path d="M82.0666399,101.58765 L91.5018746,112.322342" id="Line" stroke-linecap="square"></path>
                </g>
                <g id="Group-6" transform="translate(0.000000, 212.500000)" stroke="#2A2D2E" stroke-width="3">
                    <path d="M106.646655,28.9352663 C119.238916,32.8696906 146.461132,70.3040976 146.461132,92.1335099 C146.461132,111.447511 162.895953,111.447511 162.895953,92.1335099 C162.895953,48.4292792 137.600041,13 106.395953,13 C75.1918644,13 49.8959528,48.4292792 49.8959528,92.1335099 C49.8959528,109.420701 65.7785025,109.420701 65.7785025,92.1335099 C65.7785025,37.9563284 103.411408,27.9244206 106.646655,28.9352663 Z" id="Oval" fill="#FFECE1" transform="translate(106.395953, 59.809505) rotate(14.000000) translate(-106.395953, -59.809505) "></path>
                    <path d="M41.25,95.2815936 C61.1272269,97.3066718 66.9555351,111.770384 66.9555351,122.029989 C66.9555351,131.107377 77.5,131.107377 77.5,122.029989 C77.5,101.489437 61.2703222,84.8380299 41.25,84.8380299 C21.2296778,84.8380299 5,101.489437 5,122.029989 C5,130.154796 15.1901314,130.154796 15.1901314,122.029989 C15.1901314,96.5672551 39.0621946,95.0587015 41.25,95.2815936 Z" id="Oval" fill="#FFB3E2" transform="translate(41.250000, 106.838030) rotate(14.000000) translate(-41.250000, -106.838030) "></path>
                    <path d="M92.5419055,16.2218553 L98.5419055,30.2218553" id="Line-2" stroke-linecap="square"></path>
                    <path d="M77.5419055,26.2218553 L84.7455018,37.7218553" id="Line-2" stroke-linecap="square"></path>
                    <path d="M65.5419055,38.2218553 L74.5419055,47.7218553" id="Line-2" stroke-linecap="square"></path>
                    <path d="M56.5419055,51.0123284 L66.0419055,59.3095052" id="Line-2" stroke-linecap="square"></path>
                    <path d="M47.5419055,69.3191885 L59.0419055,76.2218553" id="Line-2" stroke-linecap="square"></path>
                    <path d="M106.646655,28.9352663 C119.238916,32.8696906 146.461132,70.3040976 146.461132,92.1335099 C146.461132,111.447511 162.895953,111.447511 162.895953,92.1335099 C162.895953,48.4292792 137.600041,13 106.395953,13 C75.1918644,13 49.8959528,48.4292792 49.8959528,92.1335099 C49.8959528,109.420701 65.7785025,109.420701 65.7785025,92.1335099 C65.7785025,37.9563284 103.411408,27.9244206 106.646655,28.9352663 Z" id="Oval" fill="#FFFFFF" transform="translate(106.395953, 59.809505) rotate(14.000000) translate(-106.395953, -59.809505) "></path>
                    <path d="M41.25,95.2815936 C61.1272269,97.3066718 66.9555351,111.770384 66.9555351,122.029989 C66.9555351,131.107377 77.5,131.107377 77.5,122.029989 C77.5,101.489437 61.2703222,84.8380299 41.25,84.8380299 C21.2296778,84.8380299 5,101.489437 5,122.029989 C5,130.154796 15.1901314,130.154796 15.1901314,122.029989 C15.1901314,96.5672551 39.0621946,95.0587015 41.25,95.2815936 Z" id="Oval" fill="#FFB3E2" transform="translate(41.250000, 106.838030) rotate(14.000000) translate(-41.250000, -106.838030) "></path>
                    <path d="M77.5419055,26.2218553 L84.7455018,37.7218553" id="Line-2" stroke-linecap="square"></path>
                    <path d="M65.5419055,38.2218553 L74.5419055,47.7218553" id="Line-2" stroke-linecap="square"></path>
                    <path d="M56.5419055,51.0123284 L66.0419055,59.3095052" id="Line-2" stroke-linecap="square"></path>
                    <path d="M47.5419055,69.3191885 L59.0419055,76.2218553" id="Line-2" stroke-linecap="square"></path>
                </g>
                <path d="M161.605157,29.9556273 L161.605157,92.1728927 C209.293961,87.3484693 240.476513,84.9365404 255.211167,84.9365404 C269.940479,84.9365404 300.181044,87.3462999 345.989102,92.1661484 L345.989102,29.8744968 C316.407937,16.2874519 287.462328,9.5 259.142918,9.5 C230.767379,9.5 198.252161,16.3139827 161.605157,29.9556305 Z" id="Rectangle" stroke="#2A2D2E" stroke-width="3" fill="#FFFFFF"></path>
                <path d="M153.5,25.7087392 L153.5,99.6723513 C206.011475,93.9651104 240.342016,91.1118187 256.554518,91.1118187 C272.76175,91.1118187 306.056698,93.9627688 356.499994,99.6650542 L356.5,25.6248869 C323.926989,9.53657257 292.056211,1.5 260.876877,1.5 C229.643049,1.5 193.847895,9.56419215 153.5,25.7087422 Z" id="Rectangle" stroke="#2A2D2E" stroke-width="3" fill="#D5FFD1"></path>
                <path d="M161.605157,29.9556273 L161.605157,92.1728927 C209.293961,87.3484693 240.476513,84.9365404 255.211167,84.9365404 C269.940479,84.9365404 300.181044,87.3462999 345.989102,92.1661484 L345.989102,29.8744968 C316.407937,16.2874519 287.462328,9.5 259.142918,9.5 C230.767379,9.5 198.252161,16.3139827 161.605157,29.9556305 Z" id="Rectangle" stroke="#2A2D2E" stroke-width="3" fill="#FFFFFF"></path>
                <path d="M216.732373,24.0815926 C205.532211,22.6890239 191.585944,39.4218156 190.139182,51.3535049 C188.69242,63.2851942 197.790407,74.2347586 210.460104,75.8100416 C223.129802,77.3853246 234.573454,68.9897985 236.020216,57.0581092 C237.466978,45.1264199 227.932535,25.4741614 216.732373,24.0815926 Z" id="Oval" stroke="#2A2D2E" stroke-width="3"></path>
                <path d="M294.316218,24.0815926 C305.51638,22.6890239 319.462647,39.4218156 320.909409,51.3535049 C322.356171,63.2851942 313.258184,74.2347586 300.588486,75.8100416 C287.918789,77.3853246 276.475137,68.9897985 275.028375,57.0581092 C273.581613,45.1264199 283.116055,25.4741614 294.316218,24.0815926 Z" id="Oval" stroke="#2A2D2E" stroke-width="3"></path>
                <ellipse id="Oval" fill="#2A2D2E" cx="296.717777" cy="50" rx="13.7729012" ry="14"></ellipse>
                <ellipse id="Oval" fill="#FFFFFF" cx="299.660921" cy="46.5" rx="5.08875555" ry="5.5"></ellipse>
                <ellipse id="Oval" fill="#2A2D2E" cx="296.717777" cy="50" rx="13.7729012" ry="14"></ellipse>
                <ellipse id="Oval" fill="#FFFFFF" cx="299.660921" cy="46.5" rx="5.08875555" ry="5.5"></ellipse>
                <ellipse id="Oval" fill="#2A2D2E" cx="215.06539" cy="50" rx="13.7729012" ry="14"></ellipse>
                <ellipse id="Oval" fill="#FFFFFF" cx="218.008534" cy="46.5" rx="5.08875555" ry="5.5"></ellipse>
                <path d="M255.428131,75 C259.631758,75 263.039471,71.202164 263.039471,66.5172959 C263.039471,65.7554241 261.669176,66.0795987 261.59888,66.0169539 C261.236915,65.6943862 261.015187,72.4796063 255.428131,72.4796063 C249.813588,72.4796063 249.71296,65.6154169 249.361063,66.0169539 C249.29478,66.0925874 247.816791,65.7747244 247.816791,66.5172959 C247.816791,71.202164 251.224504,75 255.428131,75 Z" id="Oval" fill="#2A2D2E"></path>
                <rect id="Rectangle" stroke="#2A2D2E" stroke-width="3" fill="#FFFFFF" x="240.124299" y="89.5" width="27.4453605" height="23"></rect>
                <g id="Group-8" transform="translate(86.500000, 105.625858)">
                    <rect id="Rectangle" stroke="#2A2D2E" stroke-width="3" fill="#FFB3E2" x="1.5" y="1.5" width="333.210668" height="323" rx="161.5"></rect>
                    <rect id="Rectangle" fill="#FFFFFF" x="10.8876512" y="13.7676506" width="313.564354" height="299.232349" rx="149.616175"></rect>
                </g>
                <path d="M161.605157,29.9556273 L161.605157,92.1728927 C209.293961,87.3484693 240.476513,84.9365404 255.211167,84.9365404 C269.940479,84.9365404 300.181044,87.3462999 345.989102,92.1661484 L345.989102,29.8744968 C316.407937,16.2874519 287.462328,9.5 259.142918,9.5 C230.767379,9.5 198.252161,16.3139827 161.605157,29.9556305 Z" id="Rectangle" stroke="#2A2D2E" stroke-width="3" fill="#FFFFFF"></path>
                <path d="M153.5,25.7087392 L153.5,99.6723513 C206.011475,93.9651104 240.342016,91.1118187 256.554518,91.1118187 C272.76175,91.1118187 306.056698,93.9627688 356.499994,99.6650542 L356.5,25.6248869 C323.926989,9.53657257 292.056211,1.5 260.876877,1.5 C229.643049,1.5 193.847895,9.56419215 153.5,25.7087422 Z" id="Rectangle" stroke="#2A2D2E" stroke-width="3" fill="#FFB3E2"></path>
                <path d="M190.502836,20.3648995 C173.38737,25.3097223 161.605158,40.9777973 161.605158,58.7932542 L161.605157,61.3736397 C161.605157,62.2335919 161.644845,63.0930859 161.724094,63.9493786 C163.146635,79.3200717 176.760241,90.6272932 192.130946,89.2047842 C222.875377,86.3594206 243.889417,84.9365404 255.211167,84.9365404 C266.385326,84.9365404 286.468689,86.322314 315.497369,89.0932933 C316.376894,89.1772513 317.259917,89.2193016 318.14344,89.2193016 C333.522174,89.2193016 345.989102,76.7523741 345.989102,61.3736397 L345.989102,57.1415381 C345.989102,39.7243195 334.718775,24.3091551 318.122136,19.0260624 C298.167965,12.6741901 278.509662,9.5 259.142918,9.5 C238.462267,9.5 215.581424,13.1194548 190.502836,20.3648995 Z" id="Rectangle" stroke="#2A2D2E" stroke-width="3" fill="#FFFFFF"></path>
                <ellipse id="Oval" fill="#FFFFFF" cx="299.660921" cy="46.5" rx="5.08875555" ry="5.5"></ellipse>
                <ellipse id="Oval" fill="#2A2D2E" cx="288.463208" cy="58.25" rx="13.7729012" ry="17.25"></ellipse>
                <ellipse id="Oval" fill="#2A2D2E" cx="222.393053" cy="58.75" rx="13.7729012" ry="17.25"></ellipse>
                <polygon id="Triangle" fill="#FFB3E2" transform="translate(287.241800, 264.951786) rotate(88.000000) translate(-287.241800, -264.951786) " points="287.2418 168.951786 390.2418 360.951786 184.2418 360.951786"></polygon>
                <text id="E" font-family="Futura-Medium, Futura" font-size="100" font-weight="400" fill="#FFFFFF">
                    <tspan x="226.424369" y="307.232349">E</tspan>
                </text>
                <g id="Group-5" transform="translate(285.944876, 321.000000)">
                    <rect id="Rectangle" fill="#FFFFFF" x="0" y="-2.84217094e-14" width="67.0994156" height="45.5968839" rx="3"></rect>
                    <g id="email" transform="translate(0.000000, -0.000000)" fill="#000000" fill-rule="nonzero" stroke="#FFFFFF">
                        <path d="M61.202006,0 L5.89740957,0 C2.64964059,0 0,2.3612171 0,5.26117891 L0,40.335705 C0,43.2258459 2.63784578,45.5968839 5.89740957,45.5968839 L61.202006,45.5968839 C64.4416497,45.5968839 67.0994156,43.243617 67.0994156,40.335705 L67.0994156,5.26117891 C67.0994156,2.37103796 64.4615698,0 61.202006,0 Z M60.3876393,3.50745261 L33.6747329,27.3386055 L6.73077907,3.50745261 L60.3876393,3.50745261 Z M3.93160638,39.6094285 L3.93160638,5.97073658 L22.8660917,22.7176536 L3.93160638,39.6094285 Z M6.71164526,42.0894313 L25.6580564,25.1870172 L32.2968359,31.0587267 C33.0653339,31.738471 34.3054936,31.7362496 35.0708463,31.0533486 L41.5439741,25.2785617 L60.3877703,42.0894313 L6.71164526,42.0894313 Z M63.1678092,39.6093116 L44.324013,22.798442 L63.1678092,5.98745543 L63.1678092,39.6093116 Z" id="Shape"></path>
                    </g>
                </g>
                <g id="Group-5" transform="translate(276.489102, 150.767651)">
                    <rect id="Rectangle" fill="#FFFFFF" x="0" y="-2.84217094e-14" width="67.0994156" height="45.5968839" rx="3"></rect>
                    <g id="email" transform="translate(0.000000, -0.000000)" fill="#000000" fill-rule="nonzero" stroke="#FFFFFF">
                        <path d="M61.202006,0 L5.89740957,0 C2.64964059,0 0,2.3612171 0,5.26117891 L0,40.335705 C0,43.2258459 2.63784578,45.5968839 5.89740957,45.5968839 L61.202006,45.5968839 C64.4416497,45.5968839 67.0994156,43.243617 67.0994156,40.335705 L67.0994156,5.26117891 C67.0994156,2.37103796 64.4615698,0 61.202006,0 Z M60.3876393,3.50745261 L33.6747329,27.3386055 L6.73077907,3.50745261 L60.3876393,3.50745261 Z M3.93160638,39.6094285 L3.93160638,5.97073658 L22.8660917,22.7176536 L3.93160638,39.6094285 Z M6.71164526,42.0894313 L25.6580564,25.1870172 L32.2968359,31.0587267 C33.0653339,31.738471 34.3054936,31.7362496 35.0708463,31.0533486 L41.5439741,25.2785617 L60.3877703,42.0894313 L6.71164526,42.0894313 Z M63.1678092,39.6093116 L44.324013,22.798442 L63.1678092,5.98745543 L63.1678092,39.6093116 Z" id="Shape"></path>
                    </g>
                </g>
                <g id="Group-5" transform="translate(113.708753, 246.000000)">
                    <rect id="Rectangle" fill="#FFFFFF" x="0" y="-2.84217094e-14" width="67.0994156" height="45.5968839" rx="3"></rect>
                    <g id="email" transform="translate(0.000000, -0.000000)" fill="#000000" fill-rule="nonzero" stroke="#FFFFFF">
                        <path d="M61.202006,0 L5.89740957,0 C2.64964059,0 0,2.3612171 0,5.26117891 L0,40.335705 C0,43.2258459 2.63784578,45.5968839 5.89740957,45.5968839 L61.202006,45.5968839 C64.4416497,45.5968839 67.0994156,43.243617 67.0994156,40.335705 L67.0994156,5.26117891 C67.0994156,2.37103796 64.4615698,0 61.202006,0 Z M60.3876393,3.50745261 L33.6747329,27.3386055 L6.73077907,3.50745261 L60.3876393,3.50745261 Z M3.93160638,39.6094285 L3.93160638,5.97073658 L22.8660917,22.7176536 L3.93160638,39.6094285 Z M6.71164526,42.0894313 L25.6580564,25.1870172 L32.2968359,31.0587267 C33.0653339,31.738471 34.3054936,31.7362496 35.0708463,31.0533486 L41.5439741,25.2785617 L60.3877703,42.0894313 L6.71164526,42.0894313 Z M63.1678092,39.6093116 L44.324013,22.798442 L63.1678092,5.98745543 L63.1678092,39.6093116 Z" id="Shape"></path>
                    </g>
                </g>
                <text id="left" transform="translate(146.590547, 306.078250) rotate(-1.000000) translate(-146.590547, -306.078250) " font-family="Arial-BoldMT, Arial" font-size="12" font-weight="bold" fill="#040000">
                    <tspan x="137.590547" y="310.07825">left</tspan>
                </text>
                <text id="right" font-family="Arial-BoldMT, Arial" font-size="12" font-weight="bold" fill="#000000">
                    <tspan x="297.248541" y="212.5">right</tspan>
                </text>
                <text id="forwards:of" font-family="Arial-BoldMT, Arial" font-size="12" font-weight="bold" fill="#000000">
                    <tspan x="285.944876" y="385.5">forwards:of</tspan>
                </text>
                <g id="Group-10" transform="translate(154.993138, 430.625858)" stroke="#2A2D2E" stroke-width="3">
                    <rect id="Rectangle" fill="#FFB3E2" x="1.5" y="1.5" width="191" height="20" rx="10"></rect>
                    <rect id="Rectangle" fill="#FFB3E2" x="34.5" y="33.5" width="119" height="12" rx="5"></rect>
                    <rect id="Rectangle" fill="#898989" x="69.5" y="21.5" width="48" height="12"></rect>
                    <path d="M69.8997015,32 L84.5,22.5" id="Line-3" stroke-linecap="square"></path>
                    <path d="M82.0256487,32.5 L97.5,22" id="Line-3" stroke-linecap="square"></path>
                    <path d="M94.3997015,32.5 L109.874053,22" id="Line-3" stroke-linecap="square"></path>
                    <path d="M106.955847,32.5 L116.5,26.5" id="Line-3" stroke-linecap="square"></path>
                    <path d="M70.5,23.5 L72.5,22" id="Line-3" stroke-linecap="square"></path>
                </g>
            </g>
            <g id="Group-14" transform="translate(0.000000, 261.500000)">
                <rect id="Rectangle" stroke="#2A2D2E" stroke-width="3" fill="#FFECE1" x="241.831811" y="89.5" width="27.4453605" height="23"></rect>
                <g id="Group-7" transform="translate(420.557410, 258.025744) scale(1, -1) translate(-420.557410, -258.025744) translate(334.057410, 190.025744)" stroke="#2A2D2E" stroke-width="3">
                    <path d="M66.7507018,45.3295857 C79.3429636,49.2640101 106.565179,86.698417 106.565179,108.527829 C106.565179,127.84183 123,127.84183 123,108.527829 C123,64.8235986 97.7040884,29.3943194 66.5,29.3943194 C35.2959116,29.3943194 10,64.8235986 10,108.527829 C10,125.81502 25.8825497,125.81502 25.8825497,108.527829 C25.8825497,54.3506479 63.515455,44.3187401 66.7507018,45.3295857 Z" id="Oval" fill="#FFECE1" transform="translate(66.500000, 76.203825) scale(-1, -1) rotate(14.000000) translate(-66.500000, -76.203825) "></path>
                    <path d="M131.645953,19.4435636 C151.52318,21.4686418 157.351488,35.9323536 157.351488,46.1919594 C157.351488,55.2693469 167.895953,55.2693469 167.895953,46.1919594 C167.895953,25.6514074 151.666275,9 131.645953,9 C111.625631,9 95.3959528,25.6514074 95.3959528,46.1919594 C95.3959528,54.3167664 105.586084,54.3167664 105.586084,46.1919594 C105.586084,20.7292252 129.458147,19.2206715 131.645953,19.4435636 Z" id="Oval" fill="#FFB3E2" transform="translate(131.645953, 31.000000) scale(-1, -1) rotate(14.000000) translate(-131.645953, -31.000000) "></path>
                    <path d="M112.354047,61.1161747 L126.354047,66.6161747" id="Line" stroke-linecap="square"></path>
                    <path d="M108.354047,73.7038246 L121.354047,79.6161747" id="Line" stroke-linecap="square"></path>
                    <path d="M101.354047,84.9066478 L114.354047,90.8189979" id="Line" stroke-linecap="square"></path>
                    <path d="M91.6861653,94.990766 L105.297161,102.616175" id="Line" stroke-linecap="square"></path>
                    <path d="M80.5647157,102.839901 L91.5018746,112.322342" id="Line" stroke-linecap="square"></path>
                    <path d="M68.5647157,106.713508 L75.3540472,120.616175" id="Line" stroke-linecap="square"></path>
                    <path d="M66.7507018,45.3295857 C79.3429636,49.2640101 106.565179,86.698417 106.565179,108.527829 C106.565179,127.84183 123,127.84183 123,108.527829 C123,64.8235986 97.7040884,29.3943194 66.5,29.3943194 C35.2959116,29.3943194 10,64.8235986 10,108.527829 C10,125.81502 25.8825497,125.81502 25.8825497,108.527829 C25.8825497,54.3506479 63.515455,44.3187401 66.7507018,45.3295857 Z" id="Oval" fill="#FFFFFF" transform="translate(66.500000, 76.203825) scale(-1, -1) rotate(14.000000) translate(-66.500000, -76.203825) "></path>
                    <path d="M131.645953,19.4435636 C151.52318,21.4686418 157.351488,35.9323536 157.351488,46.1919594 C157.351488,55.2693469 167.895953,55.2693469 167.895953,46.1919594 C167.895953,25.6514074 151.666275,9 131.645953,9 C111.625631,9 95.3959528,25.6514074 95.3959528,46.1919594 C95.3959528,54.3167664 105.586084,54.3167664 105.586084,46.1919594 C105.586084,20.7292252 129.458147,19.2206715 131.645953,19.4435636 Z" id="Oval" fill="#FFC988" transform="translate(131.645953, 31.000000) scale(-1, -1) rotate(14.000000) translate(-131.645953, -31.000000) "></path>
                    <path d="M112.354047,61.1161747 L126.354047,66.6161747" id="Line" stroke-linecap="square"></path>
                    <path d="M108.354047,73.7038246 L121.354047,79.6161747" id="Line" stroke-linecap="square"></path>
                    <path d="M101.354047,84.9066478 L114.354047,90.8189979" id="Line" stroke-linecap="square"></path>
                    <path d="M91.6861653,94.990766 L105.297161,102.616175" id="Line" stroke-linecap="square"></path>
                    <path d="M82.0666399,101.58765 L91.5018746,112.322342" id="Line" stroke-linecap="square"></path>
                </g>
                <g id="Group-6" transform="translate(86.500000, 201.025744) scale(1, -1) translate(-86.500000, -201.025744) translate(0.000000, 132.525744)" stroke="#2A2D2E" stroke-width="3">
                    <path d="M106.646655,28.9352663 C119.238916,32.8696906 146.461132,70.3040976 146.461132,92.1335099 C146.461132,111.447511 162.895953,111.447511 162.895953,92.1335099 C162.895953,48.4292792 137.600041,13 106.395953,13 C75.1918644,13 49.8959528,48.4292792 49.8959528,92.1335099 C49.8959528,109.420701 65.7785025,109.420701 65.7785025,92.1335099 C65.7785025,37.9563284 103.411408,27.9244206 106.646655,28.9352663 Z" id="Oval" fill="#FFECE1" transform="translate(106.395953, 59.809505) rotate(14.000000) translate(-106.395953, -59.809505) "></path>
                    <path d="M41.25,95.2815936 C61.1272269,97.3066718 66.9555351,111.770384 66.9555351,122.029989 C66.9555351,131.107377 77.5,131.107377 77.5,122.029989 C77.5,101.489437 61.2703222,84.8380299 41.25,84.8380299 C21.2296778,84.8380299 5,101.489437 5,122.029989 C5,130.154796 15.1901314,130.154796 15.1901314,122.029989 C15.1901314,96.5672551 39.0621946,95.0587015 41.25,95.2815936 Z" id="Oval" fill="#FFB3E2" transform="translate(41.250000, 106.838030) rotate(14.000000) translate(-41.250000, -106.838030) "></path>
                    <path d="M92.5419055,16.2218553 L98.5419055,30.2218553" id="Line-2" stroke-linecap="square"></path>
                    <path d="M77.5419055,26.2218553 L84.7455018,37.7218553" id="Line-2" stroke-linecap="square"></path>
                    <path d="M65.5419055,38.2218553 L74.5419055,47.7218553" id="Line-2" stroke-linecap="square"></path>
                    <path d="M56.5419055,51.0123284 L66.0419055,59.3095052" id="Line-2" stroke-linecap="square"></path>
                    <path d="M47.5419055,69.3191885 L59.0419055,76.2218553" id="Line-2" stroke-linecap="square"></path>
                    <path d="M106.646655,28.9352663 C119.238916,32.8696906 146.461132,70.3040976 146.461132,92.1335099 C146.461132,111.447511 162.895953,111.447511 162.895953,92.1335099 C162.895953,48.4292792 137.600041,13 106.395953,13 C75.1918644,13 49.8959528,48.4292792 49.8959528,92.1335099 C49.8959528,109.420701 65.7785025,109.420701 65.7785025,92.1335099 C65.7785025,37.9563284 103.411408,27.9244206 106.646655,28.9352663 Z" id="Oval" fill="#FFFFFF" transform="translate(106.395953, 59.809505) rotate(14.000000) translate(-106.395953, -59.809505) "></path>
                    <path d="M41.25,95.2815936 C61.1272269,97.3066718 66.9555351,111.770384 66.9555351,122.029989 C66.9555351,131.107377 77.5,131.107377 77.5,122.029989 C77.5,101.489437 61.2703222,84.8380299 41.25,84.8380299 C21.2296778,84.8380299 5,101.489437 5,122.029989 C5,130.154796 15.1901314,130.154796 15.1901314,122.029989 C15.1901314,96.5672551 39.0621946,95.0587015 41.25,95.2815936 Z" id="Oval" fill="#FFC988" transform="translate(41.250000, 106.838030) rotate(14.000000) translate(-41.250000, -106.838030) "></path>
                    <path d="M77.5419055,26.2218553 L84.7455018,37.7218553" id="Line-2" stroke-linecap="square"></path>
                    <path d="M65.5419055,38.2218553 L74.5419055,47.7218553" id="Line-2" stroke-linecap="square"></path>
                    <path d="M56.5419055,51.0123284 L66.0419055,59.3095052" id="Line-2" stroke-linecap="square"></path>
                    <path d="M47.5419055,69.3191885 L59.0419055,76.2218553" id="Line-2" stroke-linecap="square"></path>
                </g>
                <path d="M163.312669,29.9556273 L163.312669,92.1728927 C211.001472,87.3484693 242.184025,84.9365404 256.918678,84.9365404 C271.647991,84.9365404 301.888556,87.3462999 347.696613,92.1661484 L347.696613,29.8744968 C318.115449,16.2874519 289.16984,9.5 260.850429,9.5 C232.474891,9.5 199.959673,16.3139827 163.312669,29.9556305 Z" id="Rectangle" stroke="#2A2D2E" stroke-width="3" fill="#FFFFFF"></path>
                <path d="M155.207512,25.7087392 L155.207512,99.6723513 C207.718986,93.9651104 242.049528,91.1118187 258.26203,91.1118187 C274.469262,91.1118187 307.76421,93.9627688 358.207506,99.6650542 L358.207512,25.6248869 C325.6345,9.53657257 293.763723,1.5 262.584388,1.5 C231.35056,1.5 195.555406,9.56419215 155.207512,25.7087422 Z" id="Rectangle" stroke="#2A2D2E" stroke-width="3" fill="#D5FFD1"></path>
                <path d="M163.312669,29.9556273 L163.312669,92.1728927 C211.001472,87.3484693 242.184025,84.9365404 256.918678,84.9365404 C271.647991,84.9365404 301.888556,87.3462999 347.696613,92.1661484 L347.696613,29.8744968 C318.115449,16.2874519 289.16984,9.5 260.850429,9.5 C232.474891,9.5 199.959673,16.3139827 163.312669,29.9556305 Z" id="Rectangle" stroke="#2A2D2E" stroke-width="3" fill="#FFFFFF"></path>
                <path d="M218.439885,24.0815926 C207.239722,22.6890239 193.293455,39.4218156 191.846693,51.3535049 C190.399931,63.2851942 199.497918,74.2347586 212.167616,75.8100416 C224.837314,77.3853246 236.280966,68.9897985 237.727728,57.0581092 C239.17449,45.1264199 229.640047,25.4741614 218.439885,24.0815926 Z" id="Oval" stroke="#2A2D2E" stroke-width="3"></path>
                <path d="M296.023729,24.0815926 C307.223892,22.6890239 321.170159,39.4218156 322.616921,51.3535049 C324.063683,63.2851942 314.965696,74.2347586 302.295998,75.8100416 C289.6263,77.3853246 278.182648,68.9897985 276.735886,57.0581092 C275.289124,45.1264199 284.823567,25.4741614 296.023729,24.0815926 Z" id="Oval" stroke="#2A2D2E" stroke-width="3"></path>
                <ellipse id="Oval" fill="#2A2D2E" cx="298.425288" cy="50" rx="13.7729012" ry="14"></ellipse>
                <ellipse id="Oval" fill="#FFFFFF" cx="301.368433" cy="46.5" rx="5.08875555" ry="5.5"></ellipse>
                <ellipse id="Oval" fill="#2A2D2E" cx="298.425288" cy="50" rx="13.7729012" ry="14"></ellipse>
                <ellipse id="Oval" fill="#FFFFFF" cx="301.368433" cy="46.5" rx="5.08875555" ry="5.5"></ellipse>
                <ellipse id="Oval" fill="#2A2D2E" cx="216.772901" cy="50" rx="13.7729012" ry="14"></ellipse>
                <ellipse id="Oval" fill="#FFFFFF" cx="219.716046" cy="46.5" rx="5.08875555" ry="5.5"></ellipse>
                <path d="M257.135642,75 C261.339269,75 264.746983,71.202164 264.746983,66.5172959 C264.746983,65.7554241 263.376688,66.0795987 263.306392,66.0169539 C262.944427,65.6943862 262.722698,72.4796063 257.135642,72.4796063 C251.521099,72.4796063 251.420472,65.6154169 251.068575,66.0169539 C251.002292,66.0925874 249.524302,65.7747244 249.524302,66.5172959 C249.524302,71.202164 252.932015,75 257.135642,75 Z" id="Oval" fill="#2A2D2E"></path>
                <rect id="Rectangle" stroke="#2A2D2E" stroke-width="3" fill="#FFFFFF" x="241.831811" y="89.5" width="27.4453605" height="23"></rect>
                <g id="Group-8" transform="translate(88.207512, 105.625858)">
                    <rect id="Rectangle" stroke="#2A2D2E" stroke-width="3" fill="#FFC988" x="1.5" y="1.5" width="333.210668" height="323" rx="161.5"></rect>
                    <rect id="Rectangle" fill="#FFFFFF" x="10.8876512" y="13.7676506" width="313.564354" height="299.232349" rx="149.616175"></rect>
                </g>
                <path d="M163.312669,29.9556273 L163.312669,92.1728927 C211.001472,87.3484693 242.184025,84.9365404 256.918678,84.9365404 C271.647991,84.9365404 301.888556,87.3462999 347.696613,92.1661484 L347.696613,29.8744968 C318.115449,16.2874519 289.16984,9.5 260.850429,9.5 C232.474891,9.5 199.959673,16.3139827 163.312669,29.9556305 Z" id="Rectangle" stroke="#2A2D2E" stroke-width="3" fill="#FFFFFF"></path>
                <path d="M155.207512,25.7087392 L155.207512,99.6723513 C207.718986,93.9651104 242.049528,91.1118187 258.26203,91.1118187 C274.469262,91.1118187 307.76421,93.9627688 358.207506,99.6650542 L358.207512,25.6248869 C325.6345,9.53657257 293.763723,1.5 262.584388,1.5 C231.35056,1.5 195.555406,9.56419215 155.207512,25.7087422 Z" id="Rectangle" stroke="#2A2D2E" stroke-width="3" fill="#FFC988"></path>
                <path d="M163.312669,29.9556273 L163.312669,92.1728927 C211.001472,87.3484693 242.184025,84.9365404 256.918678,84.9365404 C271.647991,84.9365404 301.888556,87.3462999 347.696613,92.1661484 L347.696613,29.8744968 C318.115449,16.2874519 289.16984,9.5 260.850429,9.5 C232.474891,9.5 199.959673,16.3139827 163.312669,29.9556305 Z" id="Rectangle" stroke="#2A2D2E" stroke-width="3" fill="#FFFFFF"></path>
                <ellipse id="Oval" fill="#FFFFFF" cx="301.368433" cy="46.5" rx="5.08875555" ry="5.5"></ellipse>
                <ellipse id="Oval" fill="#2A2D2E" cx="290.363049" cy="59" rx="13.7729012" ry="17"></ellipse>
                <ellipse id="Oval" fill="#2A2D2E" cx="222.875066" cy="59" rx="13.7729012" ry="17"></ellipse>
                <polygon id="Triangle" fill="#FFC988" transform="translate(227.949311, 264.951786) scale(-1, 1) rotate(88.000000) translate(-227.949311, -264.951786) " points="227.949311 168.951786 330.949311 360.951786 124.949311 360.951786"></polygon>
                <text id="W" font-family="Futura-Medium, Futura" font-size="100" font-weight="400" fill="#FFFFFF">
                    <tspan x="208.13188" y="307.232349">W</tspan>
                </text>
                <g id="Group-5" transform="translate(169.000000, 323.062929)">
                    <rect id="Rectangle" fill="#FFFFFF" x="0" y="-2.84217094e-14" width="67.0994156" height="45.5968839" rx="3"></rect>
                    <g id="email" transform="translate(0.000000, -0.000000)" fill="#000000" fill-rule="nonzero" stroke="#FFFFFF">
                        <path d="M61.202006,0 L5.89740957,0 C2.64964059,0 0,2.3612171 0,5.26117891 L0,40.335705 C0,43.2258459 2.63784578,45.5968839 5.89740957,45.5968839 L61.202006,45.5968839 C64.4416497,45.5968839 67.0994156,43.243617 67.0994156,40.335705 L67.0994156,5.26117891 C67.0994156,2.37103796 64.4615698,0 61.202006,0 Z M60.3876393,3.50745261 L33.6747329,27.3386055 L6.73077907,3.50745261 L60.3876393,3.50745261 Z M3.93160638,39.6094285 L3.93160638,5.97073658 L22.8660917,22.7176536 L3.93160638,39.6094285 Z M6.71164526,42.0894313 L25.6580564,25.1870172 L32.2968359,31.0587267 C33.0653339,31.738471 34.3054936,31.7362496 35.0708463,31.0533486 L41.5439741,25.2785617 L60.3877703,42.0894313 L6.71164526,42.0894313 Z M63.1678092,39.6093116 L44.324013,22.798442 L63.1678092,5.98745543 L63.1678092,39.6093116 Z" id="Shape"></path>
                    </g>
                </g>
                <g id="Group-5" transform="translate(334.057410, 241.241186)">
                    <rect id="Rectangle" fill="#FFFFFF" x="0" y="-2.84217094e-14" width="67.0994156" height="45.5968839" rx="3"></rect>
                    <g id="email" transform="translate(0.000000, -0.000000)" fill="#000000" fill-rule="nonzero" stroke="#FFFFFF">
                        <path d="M61.202006,0 L5.89740957,0 C2.64964059,0 0,2.3612171 0,5.26117891 L0,40.335705 C0,43.2258459 2.63784578,45.5968839 5.89740957,45.5968839 L61.202006,45.5968839 C64.4416497,45.5968839 67.0994156,43.243617 67.0994156,40.335705 L67.0994156,5.26117891 C67.0994156,2.37103796 64.4615698,0 61.202006,0 Z M60.3876393,3.50745261 L33.6747329,27.3386055 L6.73077907,3.50745261 L60.3876393,3.50745261 Z M3.93160638,39.6094285 L3.93160638,5.97073658 L22.8660917,22.7176536 L3.93160638,39.6094285 Z M6.71164526,42.0894313 L25.6580564,25.1870172 L32.2968359,31.0587267 C33.0653339,31.738471 34.3054936,31.7362496 35.0708463,31.0533486 L41.5439741,25.2785617 L60.3877703,42.0894313 L6.71164526,42.0894313 Z M63.1678092,39.6093116 L44.324013,22.798442 L63.1678092,5.98745543 L63.1678092,39.6093116 Z" id="Shape"></path>
                    </g>
                </g>
                <g id="Group-5" transform="translate(169.873466, 148.695801)">
                    <rect id="Rectangle" fill="#FFFFFF" x="0" y="-2.84217094e-14" width="67.0994156" height="45.5968839" rx="3"></rect>
                    <g id="email" transform="translate(0.000000, -0.000000)" fill="#000000" fill-rule="nonzero" stroke="#FFFFFF">
                        <path d="M61.202006,0 L5.89740957,0 C2.64964059,0 0,2.3612171 0,5.26117891 L0,40.335705 C0,43.2258459 2.63784578,45.5968839 5.89740957,45.5968839 L61.202006,45.5968839 C64.4416497,45.5968839 67.0994156,43.243617 67.0994156,40.335705 L67.0994156,5.26117891 C67.0994156,2.37103796 64.4615698,0 61.202006,0 Z M60.3876393,3.50745261 L33.6747329,27.3386055 L6.73077907,3.50745261 L60.3876393,3.50745261 Z M3.93160638,39.6094285 L3.93160638,5.97073658 L22.8660917,22.7176536 L3.93160638,39.6094285 Z M6.71164526,42.0894313 L25.6580564,25.1870172 L32.2968359,31.0587267 C33.0653339,31.738471 34.3054936,31.7362496 35.0708463,31.0533486 L41.5439741,25.2785617 L60.3877703,42.0894313 L6.71164526,42.0894313 Z M63.1678092,39.6093116 L44.324013,22.798442 L63.1678092,5.98745543 L63.1678092,39.6093116 Z" id="Shape"></path>
                    </g>
                </g>
                <text id="left" transform="translate(202.755259, 208.774051) rotate(-1.000000) translate(-202.755259, -208.774051) " font-family="Arial-BoldMT, Arial" font-size="12" font-weight="bold" fill="#040000">
                    <tspan x="193.755259" y="212.774051">left</tspan>
                </text>
                <text id="right" font-family="Arial-BoldMT, Arial" font-size="12" font-weight="bold" fill="#000000">
                    <tspan x="354.816849" y="302.973535">right</tspan>
                </text>
                <text id="forwards:of" font-family="Arial-BoldMT, Arial" font-size="12" font-weight="bold" fill="#000000">
                    <tspan x="169" y="387.562929">forwards:of</tspan>
                </text>
                <g id="Group-10" transform="translate(166.199714, 429.000000)" stroke="#2A2D2E" stroke-width="3">
                    <rect id="Rectangle" fill="#FFC988" x="1.5" y="1.5" width="191" height="20" rx="10"></rect>
                    <rect id="Rectangle" fill="#FFC988" x="34.5" y="33.5" width="119" height="12" rx="5"></rect>
                    <rect id="Rectangle" fill="#898989" x="69.5" y="21.5" width="48" height="12"></rect>
                    <path d="M69.8997015,32 L84.5,22.5" id="Line-3" stroke-linecap="square"></path>
                    <path d="M82.0256487,32.5 L97.5,22" id="Line-3" stroke-linecap="square"></path>
                    <path d="M94.3997015,32.5 L109.874053,22" id="Line-3" stroke-linecap="square"></path>
                    <path d="M106.955847,32.5 L116.5,26.5" id="Line-3" stroke-linecap="square"></path>
                    <path d="M70.5,23.5 L72.5,22" id="Line-3" stroke-linecap="square"></path>
                </g>
            </g>
            <g id="Group-9" transform="translate(421.799734, 0.000000)">
                <rect id="Rectangle" stroke="#2A2D2E" stroke-width="3" fill="#FFECE1" x="227.69303" y="89.5" width="27.4453605" height="23"></rect>
                <g id="Group-7" transform="translate(319.918629, 128.000000)" stroke="#2A2D2E" stroke-width="3">
                    <path d="M66.7507018,45.3295857 C79.3429636,49.2640101 106.565179,86.698417 106.565179,108.527829 C106.565179,127.84183 123,127.84183 123,108.527829 C123,64.8235986 97.7040884,29.3943194 66.5,29.3943194 C35.2959116,29.3943194 10,64.8235986 10,108.527829 C10,125.81502 25.8825497,125.81502 25.8825497,108.527829 C25.8825497,54.3506479 63.515455,44.3187401 66.7507018,45.3295857 Z" id="Oval" fill="#FFECE1" transform="translate(66.500000, 76.203825) scale(-1, -1) rotate(14.000000) translate(-66.500000, -76.203825) "></path>
                    <path d="M131.645953,19.4435636 C151.52318,21.4686418 157.351488,35.9323536 157.351488,46.1919594 C157.351488,55.2693469 167.895953,55.2693469 167.895953,46.1919594 C167.895953,25.6514074 151.666275,9 131.645953,9 C111.625631,9 95.3959528,25.6514074 95.3959528,46.1919594 C95.3959528,54.3167664 105.586084,54.3167664 105.586084,46.1919594 C105.586084,20.7292252 129.458147,19.2206715 131.645953,19.4435636 Z" id="Oval" fill="#FFB3E2" transform="translate(131.645953, 31.000000) scale(-1, -1) rotate(14.000000) translate(-131.645953, -31.000000) "></path>
                    <path d="M112.354047,61.1161747 L126.354047,66.6161747" id="Line" stroke-linecap="square"></path>
                    <path d="M108.354047,73.7038246 L121.354047,79.6161747" id="Line" stroke-linecap="square"></path>
                    <path d="M101.354047,84.9066478 L114.354047,90.8189979" id="Line" stroke-linecap="square"></path>
                    <path d="M91.6861653,94.990766 L105.297161,102.616175" id="Line" stroke-linecap="square"></path>
                    <path d="M80.5647157,102.839901 L91.5018746,112.322342" id="Line" stroke-linecap="square"></path>
                    <path d="M68.5647157,106.713508 L75.3540472,120.616175" id="Line" stroke-linecap="square"></path>
                    <path d="M66.7507018,45.3295857 C79.3429636,49.2640101 106.565179,86.698417 106.565179,108.527829 C106.565179,127.84183 123,127.84183 123,108.527829 C123,64.8235986 97.7040884,29.3943194 66.5,29.3943194 C35.2959116,29.3943194 10,64.8235986 10,108.527829 C10,125.81502 25.8825497,125.81502 25.8825497,108.527829 C25.8825497,54.3506479 63.515455,44.3187401 66.7507018,45.3295857 Z" id="Oval" fill="#FFFFFF" transform="translate(66.500000, 76.203825) scale(-1, -1) rotate(14.000000) translate(-66.500000, -76.203825) "></path>
                    <path d="M131.645953,19.4435636 C151.52318,21.4686418 157.351488,35.9323536 157.351488,46.1919594 C157.351488,55.2693469 167.895953,55.2693469 167.895953,46.1919594 C167.895953,25.6514074 151.666275,9 131.645953,9 C111.625631,9 95.3959528,25.6514074 95.3959528,46.1919594 C95.3959528,54.3167664 105.586084,54.3167664 105.586084,46.1919594 C105.586084,20.7292252 129.458147,19.2206715 131.645953,19.4435636 Z" id="Oval" fill="#BAF2FF" transform="translate(131.645953, 31.000000) scale(-1, -1) rotate(14.000000) translate(-131.645953, -31.000000) "></path>
                    <path d="M112.354047,61.1161747 L126.354047,66.6161747" id="Line" stroke-linecap="square"></path>
                    <path d="M108.354047,73.7038246 L121.354047,79.6161747" id="Line" stroke-linecap="square"></path>
                    <path d="M101.354047,84.9066478 L114.354047,90.8189979" id="Line" stroke-linecap="square"></path>
                    <path d="M91.6861653,94.990766 L105.297161,102.616175" id="Line" stroke-linecap="square"></path>
                    <path d="M82.0666399,101.58765 L91.5018746,112.322342" id="Line" stroke-linecap="square"></path>
                </g>
                <g id="Group-6" transform="translate(86.500000, 192.000000) scale(1, -1) translate(-86.500000, -192.000000) translate(0.000000, 123.500000)" stroke="#2A2D2E" stroke-width="3">
                    <path d="M106.646655,28.9352663 C119.238916,32.8696906 146.461132,70.3040976 146.461132,92.1335099 C146.461132,111.447511 162.895953,111.447511 162.895953,92.1335099 C162.895953,48.4292792 137.600041,13 106.395953,13 C75.1918644,13 49.8959528,48.4292792 49.8959528,92.1335099 C49.8959528,109.420701 65.7785025,109.420701 65.7785025,92.1335099 C65.7785025,37.9563284 103.411408,27.9244206 106.646655,28.9352663 Z" id="Oval" fill="#FFECE1" transform="translate(106.395953, 59.809505) rotate(14.000000) translate(-106.395953, -59.809505) "></path>
                    <path d="M41.25,95.2815936 C61.1272269,97.3066718 66.9555351,111.770384 66.9555351,122.029989 C66.9555351,131.107377 77.5,131.107377 77.5,122.029989 C77.5,101.489437 61.2703222,84.8380299 41.25,84.8380299 C21.2296778,84.8380299 5,101.489437 5,122.029989 C5,130.154796 15.1901314,130.154796 15.1901314,122.029989 C15.1901314,96.5672551 39.0621946,95.0587015 41.25,95.2815936 Z" id="Oval" fill="#FFB3E2" transform="translate(41.250000, 106.838030) rotate(14.000000) translate(-41.250000, -106.838030) "></path>
                    <path d="M92.5419055,16.2218553 L98.5419055,30.2218553" id="Line-2" stroke-linecap="square"></path>
                    <path d="M77.5419055,26.2218553 L84.7455018,37.7218553" id="Line-2" stroke-linecap="square"></path>
                    <path d="M65.5419055,38.2218553 L74.5419055,47.7218553" id="Line-2" stroke-linecap="square"></path>
                    <path d="M56.5419055,51.0123284 L66.0419055,59.3095052" id="Line-2" stroke-linecap="square"></path>
                    <path d="M47.5419055,69.3191885 L59.0419055,76.2218553" id="Line-2" stroke-linecap="square"></path>
                    <path d="M106.646655,28.9352663 C119.238916,32.8696906 146.461132,70.3040976 146.461132,92.1335099 C146.461132,111.447511 162.895953,111.447511 162.895953,92.1335099 C162.895953,48.4292792 137.600041,13 106.395953,13 C75.1918644,13 49.8959528,48.4292792 49.8959528,92.1335099 C49.8959528,109.420701 65.7785025,109.420701 65.7785025,92.1335099 C65.7785025,37.9563284 103.411408,27.9244206 106.646655,28.9352663 Z" id="Oval" fill="#FFFFFF" transform="translate(106.395953, 59.809505) rotate(14.000000) translate(-106.395953, -59.809505) "></path>
                    <path d="M41.25,95.2815936 C61.1272269,97.3066718 66.9555351,111.770384 66.9555351,122.029989 C66.9555351,131.107377 77.5,131.107377 77.5,122.029989 C77.5,101.489437 61.2703222,84.8380299 41.25,84.8380299 C21.2296778,84.8380299 5,101.489437 5,122.029989 C5,130.154796 15.1901314,130.154796 15.1901314,122.029989 C15.1901314,96.5672551 39.0621946,95.0587015 41.25,95.2815936 Z" id="Oval" fill="#BAF2FF" transform="translate(41.250000, 106.838030) rotate(14.000000) translate(-41.250000, -106.838030) "></path>
                    <path d="M77.5419055,26.2218553 L84.7455018,37.7218553" id="Line-2" stroke-linecap="square"></path>
                    <path d="M65.5419055,38.2218553 L74.5419055,47.7218553" id="Line-2" stroke-linecap="square"></path>
                    <path d="M56.5419055,51.0123284 L66.0419055,59.3095052" id="Line-2" stroke-linecap="square"></path>
                    <path d="M47.5419055,69.3191885 L59.0419055,76.2218553" id="Line-2" stroke-linecap="square"></path>
                </g>
                <path d="M149.173888,29.9556273 L149.173888,92.1728927 C196.862692,87.3484693 228.045244,84.9365404 242.779898,84.9365404 C257.50921,84.9365404 287.749775,87.3462999 333.557833,92.1661484 L333.557833,29.8744968 C303.976668,16.2874519 275.031059,9.5 246.711649,9.5 C218.33611,9.5 185.820892,16.3139827 149.173888,29.9556305 Z" id="Rectangle" stroke="#2A2D2E" stroke-width="3" fill="#FFFFFF"></path>
                <path d="M141.068731,25.7087392 L141.068731,99.6723513 C193.580206,93.9651104 227.910747,91.1118187 244.123249,91.1118187 C260.330481,91.1118187 293.625429,93.9627688 344.068725,99.6650542 L344.068731,25.6248869 C311.49572,9.53657257 279.624942,1.5 248.445608,1.5 C217.21178,1.5 181.416626,9.56419215 141.068731,25.7087422 Z" id="Rectangle" stroke="#2A2D2E" stroke-width="3" fill="#D5FFD1"></path>
                <path d="M149.173888,29.9556273 L149.173888,92.1728927 C196.862692,87.3484693 228.045244,84.9365404 242.779898,84.9365404 C257.50921,84.9365404 287.749775,87.3462999 333.557833,92.1661484 L333.557833,29.8744968 C303.976668,16.2874519 275.031059,9.5 246.711649,9.5 C218.33611,9.5 185.820892,16.3139827 149.173888,29.9556305 Z" id="Rectangle" stroke="#2A2D2E" stroke-width="3" fill="#FFFFFF"></path>
                <path d="M204.301104,24.0815926 C193.100942,22.6890239 179.154675,39.4218156 177.707913,51.3535049 C176.261151,63.2851942 185.359138,74.2347586 198.028835,75.8100416 C210.698533,77.3853246 222.142185,68.9897985 223.588947,57.0581092 C225.035709,45.1264199 215.501266,25.4741614 204.301104,24.0815926 Z" id="Oval" stroke="#2A2D2E" stroke-width="3"></path>
                <path d="M281.884949,24.0815926 C293.085111,22.6890239 307.031378,39.4218156 308.47814,51.3535049 C309.924902,63.2851942 300.826915,74.2347586 288.157217,75.8100416 C275.48752,77.3853246 264.043868,68.9897985 262.597106,57.0581092 C261.150344,45.1264199 270.684787,25.4741614 281.884949,24.0815926 Z" id="Oval" stroke="#2A2D2E" stroke-width="3"></path>
                <ellipse id="Oval" fill="#2A2D2E" cx="284.286508" cy="50" rx="13.7729012" ry="14"></ellipse>
                <ellipse id="Oval" fill="#FFFFFF" cx="287.229652" cy="46.5" rx="5.08875555" ry="5.5"></ellipse>
                <ellipse id="Oval" fill="#2A2D2E" cx="284.286508" cy="50" rx="13.7729012" ry="14"></ellipse>
                <ellipse id="Oval" fill="#FFFFFF" cx="287.229652" cy="46.5" rx="5.08875555" ry="5.5"></ellipse>
                <ellipse id="Oval" fill="#2A2D2E" cx="202.634121" cy="50" rx="13.7729012" ry="14"></ellipse>
                <ellipse id="Oval" fill="#FFFFFF" cx="205.577265" cy="46.5" rx="5.08875555" ry="5.5"></ellipse>
                <path d="M242.996862,75 C247.200489,75 250.608202,71.202164 250.608202,66.5172959 C250.608202,65.7554241 249.237907,66.0795987 249.167611,66.0169539 C248.805646,65.6943862 248.583918,72.4796063 242.996862,72.4796063 C237.382319,72.4796063 237.281691,65.6154169 236.929794,66.0169539 C236.863511,66.0925874 235.385522,65.7747244 235.385522,66.5172959 C235.385522,71.202164 238.793235,75 242.996862,75 Z" id="Oval" fill="#2A2D2E"></path>
                <rect id="Rectangle" stroke="#2A2D2E" stroke-width="3" fill="#FFFFFF" x="227.69303" y="89.5" width="27.4453605" height="23"></rect>
                <g id="Group-8" transform="translate(74.068731, 105.625858)">
                    <rect id="Rectangle" stroke="#2A2D2E" stroke-width="3" fill="#BAF2FF" x="1.5" y="1.5" width="333.210668" height="323" rx="161.5"></rect>
                    <rect id="Rectangle" fill="#FFFFFF" x="10.8876512" y="13.7676506" width="313.564354" height="299.232349" rx="149.616175"></rect>
                </g>
                <path d="M149.173888,29.9556273 L149.173888,92.1728927 C196.862692,87.3484693 228.045244,84.9365404 242.779898,84.9365404 C257.50921,84.9365404 287.749775,87.3462999 333.557833,92.1661484 L333.557833,29.8744968 C303.976668,16.2874519 275.031059,9.5 246.711649,9.5 C218.33611,9.5 185.820892,16.3139827 149.173888,29.9556305 Z" id="Rectangle" stroke="#2A2D2E" stroke-width="3" fill="#FFFFFF"></path>
                <path d="M141.068731,25.7087392 L141.068731,99.6723513 C193.580206,93.9651104 227.910747,91.1118187 244.123249,91.1118187 C260.330481,91.1118187 293.625429,93.9627688 344.068725,99.6650542 L344.068731,25.6248869 C311.49572,9.53657257 279.624942,1.5 248.445608,1.5 C217.21178,1.5 181.416626,9.56419215 141.068731,25.7087422 Z" id="Rectangle" stroke="#2A2D2E" stroke-width="3" fill="#BAF2FF"></path>
                <path d="M178.071567,20.3648995 C160.956101,25.3097223 149.173889,40.9777973 149.173889,58.7932542 L149.173888,61.3736397 C149.173888,62.2335919 149.213576,63.0930859 149.292825,63.9493786 C150.715366,79.3200717 164.328972,90.6272932 179.699677,89.2047842 C210.444108,86.3594206 231.458148,84.9365404 242.779898,84.9365404 C253.954057,84.9365404 274.03742,86.322314 303.0661,89.0932933 C303.945625,89.1772513 304.828648,89.2193016 305.712171,89.2193016 C321.090905,89.2193016 333.557833,76.7523741 333.557833,61.3736397 L333.557833,57.1415381 C333.557833,39.7243195 322.287506,24.3091551 305.690867,19.0260624 C285.736696,12.6741901 266.078393,9.5 246.711649,9.5 C226.030998,9.5 203.150155,13.1194548 178.071567,20.3648995 Z" id="Rectangle" stroke="#2A2D2E" stroke-width="3" fill="#FFFFFF"></path>
                <ellipse id="Oval" fill="#FFFFFF" cx="287.229652" cy="46.5" rx="5.08875555" ry="5.5"></ellipse>
                <ellipse id="Oval" fill="#2A2D2E" cx="270.513607" cy="58.75" rx="13.7729012" ry="17.25"></ellipse>
                <ellipse id="Oval" fill="#2A2D2E" cx="212.420129" cy="58.75" rx="13.7729012" ry="17.25"></ellipse>
                <polygon id="Triangle" fill="#BAF2FF" points="241.018045 138 344.018045 330 138.018045 330"></polygon>
                <text id="N" font-family="Futura-Medium, Futura" font-size="100" font-weight="400" fill="#FFFFFF">
                    <tspan x="200.9931" y="307.232349">N</tspan>
                </text>
                <g id="Group-5" transform="translate(307.518045, 199.500000)">
                    <rect id="Rectangle" fill="#FFFFFF" x="0" y="-2.84217094e-14" width="67.0994156" height="45.5968839" rx="3"></rect>
                    <g id="email" transform="translate(0.000000, -0.000000)" fill="#000000" fill-rule="nonzero" stroke="#FFFFFF">
                        <path d="M61.202006,0 L5.89740957,0 C2.64964059,0 0,2.3612171 0,5.26117891 L0,40.335705 C0,43.2258459 2.63784578,45.5968839 5.89740957,45.5968839 L61.202006,45.5968839 C64.4416497,45.5968839 67.0994156,43.243617 67.0994156,40.335705 L67.0994156,5.26117891 C67.0994156,2.37103796 64.4615698,0 61.202006,0 Z M60.3876393,3.50745261 L33.6747329,27.3386055 L6.73077907,3.50745261 L60.3876393,3.50745261 Z M3.93160638,39.6094285 L3.93160638,5.97073658 L22.8660917,22.7176536 L3.93160638,39.6094285 Z M6.71164526,42.0894313 L25.6580564,25.1870172 L32.2968359,31.0587267 C33.0653339,31.738471 34.3054936,31.7362496 35.0708463,31.0533486 L41.5439741,25.2785617 L60.3877703,42.0894313 L6.71164526,42.0894313 Z M63.1678092,39.6093116 L44.324013,22.798442 L63.1678092,5.98745543 L63.1678092,39.6093116 Z" id="Shape"></path>
                    </g>
                </g>
                <g id="Group-5" transform="translate(207.018045, 340.732349)">
                    <rect id="Rectangle" fill="#FFFFFF" x="0" y="-2.84217094e-14" width="67.0994156" height="45.5968839" rx="3"></rect>
                    <g id="email" transform="translate(0.000000, -0.000000)" fill="#000000" fill-rule="nonzero" stroke="#FFFFFF">
                        <path d="M61.202006,0 L5.89740957,0 C2.64964059,0 0,2.3612171 0,5.26117891 L0,40.335705 C0,43.2258459 2.63784578,45.5968839 5.89740957,45.5968839 L61.202006,45.5968839 C64.4416497,45.5968839 67.0994156,43.243617 67.0994156,40.335705 L67.0994156,5.26117891 C67.0994156,2.37103796 64.4615698,0 61.202006,0 Z M60.3876393,3.50745261 L33.6747329,27.3386055 L6.73077907,3.50745261 L60.3876393,3.50745261 Z M3.93160638,39.6094285 L3.93160638,5.97073658 L22.8660917,22.7176536 L3.93160638,39.6094285 Z M6.71164526,42.0894313 L25.6580564,25.1870172 L32.2968359,31.0587267 C33.0653339,31.738471 34.3054936,31.7362496 35.0708463,31.0533486 L41.5439741,25.2785617 L60.3877703,42.0894313 L6.71164526,42.0894313 Z M63.1678092,39.6093116 L44.324013,22.798442 L63.1678092,5.98745543 L63.1678092,39.6093116 Z" id="Shape"></path>
                    </g>
                </g>
                <g id="Group-5" transform="translate(101.277484, 205.000000)">
                    <rect id="Rectangle" fill="#FFFFFF" x="0" y="-2.84217094e-14" width="67.0994156" height="45.5968839" rx="3"></rect>
                    <g id="email" transform="translate(0.000000, -0.000000)" fill="#000000" fill-rule="nonzero" stroke="#FFFFFF">
                        <path d="M61.202006,0 L5.89740957,0 C2.64964059,0 0,2.3612171 0,5.26117891 L0,40.335705 C0,43.2258459 2.63784578,45.5968839 5.89740957,45.5968839 L61.202006,45.5968839 C64.4416497,45.5968839 67.0994156,43.243617 67.0994156,40.335705 L67.0994156,5.26117891 C67.0994156,2.37103796 64.4615698,0 61.202006,0 Z M60.3876393,3.50745261 L33.6747329,27.3386055 L6.73077907,3.50745261 L60.3876393,3.50745261 Z M3.93160638,39.6094285 L3.93160638,5.97073658 L22.8660917,22.7176536 L3.93160638,39.6094285 Z M6.71164526,42.0894313 L25.6580564,25.1870172 L32.2968359,31.0587267 C33.0653339,31.738471 34.3054936,31.7362496 35.0708463,31.0533486 L41.5439741,25.2785617 L60.3877703,42.0894313 L6.71164526,42.0894313 Z M63.1678092,39.6093116 L44.324013,22.798442 L63.1678092,5.98745543 L63.1678092,39.6093116 Z" id="Shape"></path>
                    </g>
                </g>
                <text id="left" transform="translate(132.159278, 265.078250) rotate(-1.000000) translate(-132.159278, -265.078250) " font-family="Arial-BoldMT, Arial" font-size="12" font-weight="bold" fill="#040000">
                    <tspan x="123.159278" y="269.07825">left</tspan>
                </text>
                <text id="right" font-family="Arial-BoldMT, Arial" font-size="12" font-weight="bold" fill="#000000">
                    <tspan x="226.777484" y="402.464699">right</tspan>
                </text>
                <text id="forwards:of" font-family="Arial-BoldMT, Arial" font-size="12" font-weight="bold" fill="#000000">
                    <tspan x="309.518045" y="264">forwards:of</tspan>
                </text>
                <g id="Group-10" transform="translate(145.568731, 429.625858)" stroke="#2A2D2E" stroke-width="3">
                    <rect id="Rectangle" fill="#BAF2FF" x="1.5" y="1.5" width="191" height="20" rx="10"></rect>
                    <rect id="Rectangle" fill="#BAF2FF" x="34.5" y="33.5" width="119" height="12" rx="5"></rect>
                    <rect id="Rectangle" fill="#898989" x="69.5" y="21.5" width="48" height="12"></rect>
                    <path d="M69.8997015,32 L84.5,22.5" id="Line-3" stroke-linecap="square"></path>
                    <path d="M82.0256487,32.5 L97.5,22" id="Line-3" stroke-linecap="square"></path>
                    <path d="M94.3997015,32.5 L109.874053,22" id="Line-3" stroke-linecap="square"></path>
                    <path d="M106.955847,32.5 L116.5,26.5" id="Line-3" stroke-linecap="square"></path>
                    <path d="M70.5,23.5 L72.5,22" id="Line-3" stroke-linecap="square"></path>
                </g>
            </g>
        </g>
    </g>
</svg>