<?xml version="1.0" encoding="UTF-8"?>
<svg width="2453px" height="1084px" viewBox="0 0 2453 1084" version="1.1" xmlns="http://www.w3.org/2000/svg" xmlns:xlink="http://www.w3.org/1999/xlink">
    <!-- Generator: Sketch 53.2 (72643) - https://sketchapp.com -->
    <title>Group 19</title>
    <desc>Created with Sketch.</desc>
    <g id="Page-1" stroke="none" stroke-width="1" fill="none" fill-rule="evenodd">
        <g id="Group-19" transform="translate(0.500000, -206.298985)">
            <g id="Group-16" transform="translate(1864.649706, 757.000000) rotate(-12.000000) translate(-1864.649706, -757.000000) translate(1203.149706, 124.000000)">
                <path d="M260.355606,674.580033 L375.053824,1308.4426 L442.255259,1249.19376 L344.277071,616.073566 L260.355606,674.580033 Z" id="Rectangle" stroke="#2A2D2E" stroke-width="6" fill="#FFEAD3" transform="translate(351.265956, 962.257970) rotate(127.000000) translate(-351.265956, -962.257970) "></path>
                <path d="M209.228355,223.363142 C207.281173,222.949869 205.27397,222.903571 203.309804,223.226624 C194.590397,224.660732 188.684496,232.891783 190.118605,241.61119 L291.593441,858.580004 C292.68391,865.210077 297.800608,870.452491 304.402265,871.703537 L763.230365,958.653706 C763.387826,958.683545 763.544956,958.715105 763.701727,958.748378 L1125.34542,1035.50413 C1127.30585,1035.92022 1129.32701,1035.96429 1131.30372,1035.63406 C1140.01948,1034.17801 1145.90464,1025.93211 1144.44858,1017.21634 L1043.12735,410.721544 C1042.04368,404.234893 1037.10116,399.072009 1030.66792,397.706608 L209.228355,223.363142 Z" id="Rectangle" stroke="#2A2D2E" stroke-width="6" fill="#E9EAEA" transform="translate(667.286917, 629.433638) rotate(126.000000) translate(-667.286917, -629.433638) "></path>
                <path d="M1078.14896,663.127275 L980.169714,30.000266 L901.638093,84.5989426 C897.77549,87.2843959 895.838336,91.9791776 896.683316,96.6070679 L1010.94016,722.382597 L1078.14896,663.127275 Z" id="Rectangle" stroke="#2A2D2E" stroke-width="6" fill="#E0E1E1" transform="translate(986.681334, 376.191317) rotate(127.000000) translate(-986.681334, -376.191317) "></path>
                <path d="M839.578685,441.844355 L997.897052,1286.65043 C997.942998,1286.8956 998.078914,1287.11475 998.278126,1287.26487 C998.719201,1287.59724 999.346204,1287.50912 999.678577,1287.06804 L1059.61167,1207.53415 L894.554697,368.888723 L839.578685,441.844355 Z" id="Rectangle" stroke="#2A2D2E" stroke-width="6" fill="#FFFFFF" transform="translate(949.600080, 826.092685) scale(1, -1) rotate(-217.000000) translate(-949.600080, -826.092685) "></path>
                <path d="M271.587528,132.760563 L429.863978,977.342963 C429.909924,977.588136 430.045841,977.807286 430.245053,977.957403 C430.686127,978.289776 431.31313,978.201657 431.645503,977.760582 L491.583434,898.220262 L332.410629,69.9273722 L271.587528,132.760563 Z" id="Rectangle" stroke="#2A2D2E" stroke-width="6" fill="#F5F5F5" transform="translate(381.567007, 522.427190) scale(1, -1) rotate(-217.000000) translate(-381.567007, -522.427190) "></path>
                <g id="Group-18" transform="translate(346.500000, 960.098438) rotate(27.000000) translate(-346.500000, -960.098438) translate(-13.000000, 902.598438)">
                    <path d="M5.94553131,3.76303294 L64.64796,103.122941 L714.183198,111.095203 L670.010967,3.78807301 L5.94553131,3.76303294 Z" id="Rectangle" stroke="#162B33" stroke-width="6" fill="#FFFFFF"></path>
                    <ellipse id="Oval" stroke="#2A2D2E" stroke-width="6" fill="#BAF2FF" cx="331.542763" cy="57.4567599" rx="24.9188508" ry="23.621633"></ellipse>
                    <text id="Orientation" font-family="BradleyHandITCTT-Bold, Bradley Hand" font-size="43" font-style="expanded" font-weight="bold" fill="#040000">
                        <tspan x="50.1333695" y="52.5443257">Orientation</tspan>
                    </text>
                </g>
            </g>
            <g id="Group-9" transform="translate(1628.000000, 476.298985)">
                <rect id="Rectangle" stroke="#2A2D2E" stroke-width="3" fill="#FFECE1" x="227.69303" y="89.5" width="27.4453605" height="23"></rect>
                <g id="Group-7" transform="translate(319.918629, 128.000000)" stroke="#2A2D2E">
                    <path d="M66.7507018,45.3295857 C79.3429636,49.2640101 106.565179,86.698417 106.565179,108.527829 C106.565179,127.84183 123,127.84183 123,108.527829 C123,64.8235986 97.7040884,29.3943194 66.5,29.3943194 C35.2959116,29.3943194 10,64.8235986 10,108.527829 C10,125.81502 25.8825497,125.81502 25.8825497,108.527829 C25.8825497,54.3506479 63.515455,44.3187401 66.7507018,45.3295857 Z" id="Oval" stroke-width="3" fill="#FFECE1" transform="translate(66.500000, 76.203825) scale(-1, -1) rotate(14.000000) translate(-66.500000, -76.203825) "></path>
                    <path d="M131.645953,19.4435636 C151.52318,21.4686418 157.351488,35.9323536 157.351488,46.1919594 C157.351488,55.2693469 167.895953,55.2693469 167.895953,46.1919594 C167.895953,25.6514074 151.666275,9 131.645953,9 C111.625631,9 95.3959528,25.6514074 95.3959528,46.1919594 C95.3959528,54.3167664 105.586084,54.3167664 105.586084,46.1919594 C105.586084,20.7292252 129.458147,19.2206715 131.645953,19.4435636 Z" id="Oval" stroke-width="3" fill="#FFB3E2" transform="translate(131.645953, 31.000000) scale(-1, -1) rotate(14.000000) translate(-131.645953, -31.000000) "></path>
                    <path d="M112.354047,61.1161747 L126.354047,66.6161747" id="Line" stroke-width="3" stroke-linecap="square"></path>
                    <path d="M108.354047,73.7038246 L121.354047,79.6161747" id="Line" stroke-width="3" stroke-linecap="square"></path>
                    <path d="M101.354047,84.9066478 L114.354047,90.8189979" id="Line" stroke-width="3" stroke-linecap="square"></path>
                    <path d="M91.6861653,94.990766 L105.297161,102.616175" id="Line" stroke-width="3" stroke-linecap="square"></path>
                    <path d="M80.5647157,102.839901 L91.5018746,112.322342" id="Line" stroke-width="3" stroke-linecap="square"></path>
                    <path d="M68.5647157,106.713508 L75.3540472,120.616175" id="Line" stroke-width="3" stroke-linecap="square"></path>
                    <path d="M66.7507018,45.3295857 C79.3429636,49.2640101 106.565179,86.698417 106.565179,108.527829 C106.565179,127.84183 123,127.84183 123,108.527829 C123,64.8235986 97.7040884,29.3943194 66.5,29.3943194 C35.2959116,29.3943194 10,64.8235986 10,108.527829 C10,125.81502 25.8825497,125.81502 25.8825497,108.527829 C25.8825497,54.3506479 63.515455,44.3187401 66.7507018,45.3295857 Z" id="Oval" stroke-width="3" fill="#FFFFFF" transform="translate(66.500000, 76.203825) scale(-1, -1) rotate(14.000000) translate(-66.500000, -76.203825) "></path>
                    <path d="M131.645953,19.4435636 C151.52318,21.4686418 157.351488,35.9323536 157.351488,46.1919594 C157.351488,55.2693469 167.895953,55.2693469 167.895953,46.1919594 C167.895953,25.6514074 151.666275,9 131.645953,9 C111.625631,9 95.3959528,25.6514074 95.3959528,46.1919594 C95.3959528,54.3167664 105.586084,54.3167664 105.586084,46.1919594 C105.586084,20.7292252 129.458147,19.2206715 131.645953,19.4435636 Z" id="Oval" stroke-width="5" fill="#BAF2FF" transform="translate(131.645953, 31.000000) scale(-1, -1) rotate(14.000000) translate(-131.645953, -31.000000) "></path>
                    <path d="M112.354047,61.1161747 L126.354047,66.6161747" id="Line" stroke-width="3" stroke-linecap="square"></path>
                    <path d="M108.354047,73.7038246 L121.354047,79.6161747" id="Line" stroke-width="3" stroke-linecap="square"></path>
                    <path d="M101.354047,84.9066478 L114.354047,90.8189979" id="Line" stroke-width="3" stroke-linecap="square"></path>
                    <path d="M91.6861653,94.990766 L105.297161,102.616175" id="Line" stroke-width="3" stroke-linecap="square"></path>
                    <path d="M82.0666399,101.58765 L91.5018746,112.322342" id="Line" stroke-width="3" stroke-linecap="square"></path>
                </g>
                <g id="Group-6" transform="translate(86.500000, 192.000000) scale(1, -1) translate(-86.500000, -192.000000) translate(0.000000, 123.500000)" stroke="#2A2D2E">
                    <path d="M106.646655,28.9352663 C119.238916,32.8696906 146.461132,70.3040976 146.461132,92.1335099 C146.461132,111.447511 162.895953,111.447511 162.895953,92.1335099 C162.895953,48.4292792 137.600041,13 106.395953,13 C75.1918644,13 49.8959528,48.4292792 49.8959528,92.1335099 C49.8959528,109.420701 65.7785025,109.420701 65.7785025,92.1335099 C65.7785025,37.9563284 103.411408,27.9244206 106.646655,28.9352663 Z" id="Oval" stroke-width="3" fill="#FFECE1" transform="translate(106.395953, 59.809505) rotate(14.000000) translate(-106.395953, -59.809505) "></path>
                    <path d="M41.25,95.2815936 C61.1272269,97.3066718 66.9555351,111.770384 66.9555351,122.029989 C66.9555351,131.107377 77.5,131.107377 77.5,122.029989 C77.5,101.489437 61.2703222,84.8380299 41.25,84.8380299 C21.2296778,84.8380299 5,101.489437 5,122.029989 C5,130.154796 15.1901314,130.154796 15.1901314,122.029989 C15.1901314,96.5672551 39.0621946,95.0587015 41.25,95.2815936 Z" id="Oval" stroke-width="3" fill="#FFB3E2" transform="translate(41.250000, 106.838030) rotate(14.000000) translate(-41.250000, -106.838030) "></path>
                    <path d="M92.5419055,16.2218553 L98.5419055,30.2218553" id="Line-2" stroke-width="3" stroke-linecap="square"></path>
                    <path d="M77.5419055,26.2218553 L84.7455018,37.7218553" id="Line-2" stroke-width="3" stroke-linecap="square"></path>
                    <path d="M65.5419055,38.2218553 L74.5419055,47.7218553" id="Line-2" stroke-width="3" stroke-linecap="square"></path>
                    <path d="M56.5419055,51.0123284 L66.0419055,59.3095052" id="Line-2" stroke-width="3" stroke-linecap="square"></path>
                    <path d="M47.5419055,69.3191885 L59.0419055,76.2218553" id="Line-2" stroke-width="3" stroke-linecap="square"></path>
                    <path d="M106.646655,28.9352663 C119.238916,32.8696906 146.461132,70.3040976 146.461132,92.1335099 C146.461132,111.447511 162.895953,111.447511 162.895953,92.1335099 C162.895953,48.4292792 137.600041,13 106.395953,13 C75.1918644,13 49.8959528,48.4292792 49.8959528,92.1335099 C49.8959528,109.420701 65.7785025,109.420701 65.7785025,92.1335099 C65.7785025,37.9563284 103.411408,27.9244206 106.646655,28.9352663 Z" id="Oval" stroke-width="3" fill="#FFFFFF" transform="translate(106.395953, 59.809505) rotate(14.000000) translate(-106.395953, -59.809505) "></path>
                    <path d="M41.25,95.2815936 C61.1272269,97.3066718 66.9555351,111.770384 66.9555351,122.029989 C66.9555351,131.107377 77.5,131.107377 77.5,122.029989 C77.5,101.489437 61.2703222,84.8380299 41.25,84.8380299 C21.2296778,84.8380299 5,101.489437 5,122.029989 C5,130.154796 15.1901314,130.154796 15.1901314,122.029989 C15.1901314,96.5672551 39.0621946,95.0587015 41.25,95.2815936 Z" id="Oval" stroke-width="5" fill="#BAF2FF" transform="translate(41.250000, 106.838030) rotate(14.000000) translate(-41.250000, -106.838030) "></path>
                    <path d="M77.5419055,26.2218553 L84.7455018,37.7218553" id="Line-2" stroke-width="3" stroke-linecap="square"></path>
                    <path d="M65.5419055,38.2218553 L74.5419055,47.7218553" id="Line-2" stroke-width="3" stroke-linecap="square"></path>
                    <path d="M56.5419055,51.0123284 L66.0419055,59.3095052" id="Line-2" stroke-width="3" stroke-linecap="square"></path>
                    <path d="M47.5419055,69.3191885 L59.0419055,76.2218553" id="Line-2" stroke-width="3" stroke-linecap="square"></path>
                </g>
                <path d="M149.173888,29.9556273 L149.173888,92.1728927 C196.862692,87.3484693 228.045244,84.9365404 242.779898,84.9365404 C257.50921,84.9365404 287.749775,87.3462999 333.557833,92.1661484 L333.557833,29.8744968 C303.976668,16.2874519 275.031059,9.5 246.711649,9.5 C218.33611,9.5 185.820892,16.3139827 149.173888,29.9556305 Z" id="Rectangle" stroke="#2A2D2E" stroke-width="3" fill="#FFFFFF"></path>
                <path d="M141.068731,25.7087392 L141.068731,99.6723513 C193.580206,93.9651104 227.910747,91.1118187 244.123249,91.1118187 C260.330481,91.1118187 293.625429,93.9627688 344.068725,99.6650542 L344.068731,25.6248869 C311.49572,9.53657257 279.624942,1.5 248.445608,1.5 C217.21178,1.5 181.416626,9.56419215 141.068731,25.7087422 Z" id="Rectangle" stroke="#2A2D2E" stroke-width="3" fill="#D5FFD1"></path>
                <path d="M149.173888,29.9556273 L149.173888,92.1728927 C196.862692,87.3484693 228.045244,84.9365404 242.779898,84.9365404 C257.50921,84.9365404 287.749775,87.3462999 333.557833,92.1661484 L333.557833,29.8744968 C303.976668,16.2874519 275.031059,9.5 246.711649,9.5 C218.33611,9.5 185.820892,16.3139827 149.173888,29.9556305 Z" id="Rectangle" stroke="#2A2D2E" stroke-width="3" fill="#FFFFFF"></path>
                <path d="M204.301104,24.0815926 C193.100942,22.6890239 179.154675,39.4218156 177.707913,51.3535049 C176.261151,63.2851942 185.359138,74.2347586 198.028835,75.8100416 C210.698533,77.3853246 222.142185,68.9897985 223.588947,57.0581092 C225.035709,45.1264199 215.501266,25.4741614 204.301104,24.0815926 Z" id="Oval" stroke="#2A2D2E" stroke-width="3"></path>
                <path d="M281.884949,24.0815926 C293.085111,22.6890239 307.031378,39.4218156 308.47814,51.3535049 C309.924902,63.2851942 300.826915,74.2347586 288.157217,75.8100416 C275.48752,77.3853246 264.043868,68.9897985 262.597106,57.0581092 C261.150344,45.1264199 270.684787,25.4741614 281.884949,24.0815926 Z" id="Oval" stroke="#2A2D2E" stroke-width="3"></path>
                <ellipse id="Oval" fill="#2A2D2E" cx="284.286508" cy="50" rx="13.7729012" ry="14"></ellipse>
                <ellipse id="Oval" fill="#FFFFFF" cx="287.229652" cy="46.5" rx="5.08875555" ry="5.5"></ellipse>
                <ellipse id="Oval" fill="#2A2D2E" cx="284.286508" cy="50" rx="13.7729012" ry="14"></ellipse>
                <ellipse id="Oval" fill="#FFFFFF" cx="287.229652" cy="46.5" rx="5.08875555" ry="5.5"></ellipse>
                <ellipse id="Oval" fill="#2A2D2E" cx="202.634121" cy="50" rx="13.7729012" ry="14"></ellipse>
                <ellipse id="Oval" fill="#FFFFFF" cx="205.577265" cy="46.5" rx="5.08875555" ry="5.5"></ellipse>
                <path d="M242.996862,75 C247.200489,75 250.608202,71.202164 250.608202,66.5172959 C250.608202,65.7554241 249.237907,66.0795987 249.167611,66.0169539 C248.805646,65.6943862 248.583918,72.4796063 242.996862,72.4796063 C237.382319,72.4796063 237.281691,65.6154169 236.929794,66.0169539 C236.863511,66.0925874 235.385522,65.7747244 235.385522,66.5172959 C235.385522,71.202164 238.793235,75 242.996862,75 Z" id="Oval" fill="#2A2D2E"></path>
                <rect id="Rectangle" stroke="#2A2D2E" stroke-width="5" fill="#FFFFFF" x="228.69303" y="90.5" width="25.4453605" height="21"></rect>
                <g id="Group-8" transform="translate(74.068731, 105.625858)">
                    <rect id="Rectangle" stroke="#2A2D2E" stroke-width="5" fill="#BAF2FF" x="2.5" y="2.5" width="331.210668" height="321" rx="160.5"></rect>
                    <rect id="Rectangle" fill="#FFFFFF" x="10.8876512" y="13.7676506" width="313.564354" height="299.232349" rx="149.616175"></rect>
                </g>
                <path d="M149.173888,29.9556273 L149.173888,92.1728927 C196.862692,87.3484693 228.045244,84.9365404 242.779898,84.9365404 C257.50921,84.9365404 287.749775,87.3462999 333.557833,92.1661484 L333.557833,29.8744968 C303.976668,16.2874519 275.031059,9.5 246.711649,9.5 C218.33611,9.5 185.820892,16.3139827 149.173888,29.9556305 Z" id="Rectangle" stroke="#2A2D2E" stroke-width="3" fill="#FFFFFF"></path>
                <path d="M142.068731,26.386199 L142.068731,98.5579072 C193.992518,92.9268233 227.976477,90.1118187 244.123249,90.1118187 C260.261144,90.1118187 293.210016,92.9229323 343.068704,98.5457874 L343.068731,26.2470514 C310.822408,10.4074006 279.287259,2.5 248.445608,2.5 C217.513086,2.5 182.049432,10.4532252 142.068731,26.386199 Z" id="Rectangle" stroke="#2A2D2E" stroke-width="5" fill="#BAF2FF"></path>
                <path d="M178.349126,21.3256084 C161.661545,26.1468106 150.173889,41.4231837 150.173889,58.7932546 L150.173888,61.3736397 C150.173888,62.2028244 150.212156,63.0315673 150.288569,63.8572235 C151.660214,78.6779826 164.786753,89.5806537 179.607522,88.2090395 C210.381653,85.3609273 231.417943,83.9365404 242.779898,83.9365404 C253.995096,83.9365404 274.102206,85.3239526 303.161126,88.0978185 C304.009065,88.1787614 304.860377,88.2193016 305.712171,88.2193016 C320.538621,88.2193016 332.557833,76.2000894 332.557833,61.3736397 L332.557833,57.1415381 C332.557833,40.15975 321.569264,25.1299647 305.387541,19.9789493 C285.529602,13.6577097 265.973364,10.5 246.711649,10.5 C226.130942,10.5 203.342074,14.1049055 178.349126,21.3256084 Z" id="Rectangle" stroke="#2A2D2E" stroke-width="5" fill="#FFFFFF"></path>
                <ellipse id="Oval" fill="#FFFFFF" cx="287.229652" cy="46.5" rx="5.08875555" ry="5.5"></ellipse>
                <ellipse id="Oval" fill="#2A2D2E" cx="270.513607" cy="58.75" rx="13.7729012" ry="17.25"></ellipse>
                <ellipse id="Oval" fill="#2A2D2E" cx="212.420129" cy="58.75" rx="13.7729012" ry="17.25"></ellipse>
                <polygon id="Triangle" fill="#BAF2FF" points="241.018045 138 344.018045 330 138.018045 330"></polygon>
                <text id="N" font-family="Futura-Medium, Futura" font-size="100" font-weight="400" fill="#FFFFFF">
                    <tspan x="200.9931" y="307.232349">N</tspan>
                </text>
                <g id="Group-5" transform="translate(307.518045, 199.500000)">
                    <rect id="Rectangle" fill="#FFFFFF" x="0" y="-2.84217094e-14" width="67.0994156" height="45.5968839" rx="3"></rect>
                    <g id="email" transform="translate(0.000000, -0.000000)" fill="#000000" fill-rule="nonzero" stroke="#FFFFFF">
                        <path d="M61.202006,0 L5.89740957,0 C2.64964059,0 0,2.3612171 0,5.26117891 L0,40.335705 C0,43.2258459 2.63784578,45.5968839 5.89740957,45.5968839 L61.202006,45.5968839 C64.4416497,45.5968839 67.0994156,43.243617 67.0994156,40.335705 L67.0994156,5.26117891 C67.0994156,2.37103796 64.4615698,0 61.202006,0 Z M60.3876393,3.50745261 L33.6747329,27.3386055 L6.73077907,3.50745261 L60.3876393,3.50745261 Z M3.93160638,39.6094285 L3.93160638,5.97073658 L22.8660917,22.7176536 L3.93160638,39.6094285 Z M6.71164526,42.0894313 L25.6580564,25.1870172 L32.2968359,31.0587267 C33.0653339,31.738471 34.3054936,31.7362496 35.0708463,31.0533486 L41.5439741,25.2785617 L60.3877703,42.0894313 L6.71164526,42.0894313 Z M63.1678092,39.6093116 L44.324013,22.798442 L63.1678092,5.98745543 L63.1678092,39.6093116 Z" id="Shape"></path>
                    </g>
                </g>
                <g id="Group-5" transform="translate(207.018045, 340.732349)">
                    <rect id="Rectangle" fill="#FFFFFF" x="0" y="-2.84217094e-14" width="67.0994156" height="45.5968839" rx="3"></rect>
                    <g id="email" transform="translate(0.000000, -0.000000)" fill="#000000" fill-rule="nonzero" stroke="#FFFFFF">
                        <path d="M61.202006,0 L5.89740957,0 C2.64964059,0 0,2.3612171 0,5.26117891 L0,40.335705 C0,43.2258459 2.63784578,45.5968839 5.89740957,45.5968839 L61.202006,45.5968839 C64.4416497,45.5968839 67.0994156,43.243617 67.0994156,40.335705 L67.0994156,5.26117891 C67.0994156,2.37103796 64.4615698,0 61.202006,0 Z M60.3876393,3.50745261 L33.6747329,27.3386055 L6.73077907,3.50745261 L60.3876393,3.50745261 Z M3.93160638,39.6094285 L3.93160638,5.97073658 L22.8660917,22.7176536 L3.93160638,39.6094285 Z M6.71164526,42.0894313 L25.6580564,25.1870172 L32.2968359,31.0587267 C33.0653339,31.738471 34.3054936,31.7362496 35.0708463,31.0533486 L41.5439741,25.2785617 L60.3877703,42.0894313 L6.71164526,42.0894313 Z M63.1678092,39.6093116 L44.324013,22.798442 L63.1678092,5.98745543 L63.1678092,39.6093116 Z" id="Shape"></path>
                    </g>
                </g>
                <g id="Group-5" transform="translate(101.277484, 205.000000)">
                    <rect id="Rectangle" fill="#FFFFFF" x="0" y="-2.84217094e-14" width="67.0994156" height="45.5968839" rx="3"></rect>
                    <g id="email" transform="translate(0.000000, -0.000000)" fill="#000000" fill-rule="nonzero" stroke="#FFFFFF">
                        <path d="M61.202006,0 L5.89740957,0 C2.64964059,0 0,2.3612171 0,5.26117891 L0,40.335705 C0,43.2258459 2.63784578,45.5968839 5.89740957,45.5968839 L61.202006,45.5968839 C64.4416497,45.5968839 67.0994156,43.243617 67.0994156,40.335705 L67.0994156,5.26117891 C67.0994156,2.37103796 64.4615698,0 61.202006,0 Z M60.3876393,3.50745261 L33.6747329,27.3386055 L6.73077907,3.50745261 L60.3876393,3.50745261 Z M3.93160638,39.6094285 L3.93160638,5.97073658 L22.8660917,22.7176536 L3.93160638,39.6094285 Z M6.71164526,42.0894313 L25.6580564,25.1870172 L32.2968359,31.0587267 C33.0653339,31.738471 34.3054936,31.7362496 35.0708463,31.0533486 L41.5439741,25.2785617 L60.3877703,42.0894313 L6.71164526,42.0894313 Z M63.1678092,39.6093116 L44.324013,22.798442 L63.1678092,5.98745543 L63.1678092,39.6093116 Z" id="Shape"></path>
                    </g>
                </g>
                <text id="left" transform="translate(132.159278, 265.078250) rotate(-1.000000) translate(-132.159278, -265.078250) " font-family="Arial-BoldMT, Arial" font-size="12" font-weight="bold" fill="#040000">
                    <tspan x="123.159278" y="269.07825">left</tspan>
                </text>
                <text id="right" font-family="Arial-BoldMT, Arial" font-size="12" font-weight="bold" fill="#000000">
                    <tspan x="226.777484" y="402.464699">right</tspan>
                </text>
                <text id="forwards:of" font-family="Arial-BoldMT, Arial" font-size="12" font-weight="bold" fill="#000000">
                    <tspan x="309.518045" y="264">forwards:of</tspan>
                </text>
                <g id="Group-10" transform="translate(145.568731, 429.625858)" stroke="#2A2D2E">
                    <rect id="Rectangle" stroke-width="5" fill="#BAF2FF" x="2.5" y="2.5" width="189" height="18" rx="9"></rect>
                    <rect id="Rectangle" stroke-width="5" fill="#BAF2FF" x="35.5" y="34.5" width="117" height="10" rx="5"></rect>
                    <rect id="Rectangle" stroke-width="3" fill="#898989" x="69.5" y="21.5" width="48" height="12"></rect>
                    <path d="M69.8997015,32 L84.5,22.5" id="Line-3" stroke-width="3" stroke-linecap="square"></path>
                    <path d="M82.0256487,32.5 L97.5,22" id="Line-3" stroke-width="3" stroke-linecap="square"></path>
                    <path d="M94.3997015,32.5 L109.874053,22" id="Line-3" stroke-width="3" stroke-linecap="square"></path>
                    <path d="M106.955847,32.5 L116.5,26.5" id="Line-3" stroke-width="3" stroke-linecap="square"></path>
                    <path d="M70.5,23.5 L72.5,22" id="Line-3" stroke-width="3" stroke-linecap="square"></path>
                </g>
            </g>
            <g id="Group-24" transform="translate(0.000000, 206.298985)">
                <g id="Group-17">
                    <rect id="Rectangle" stroke="#2A2D2E" stroke-width="3" fill="#FFECE1" x="553.188602" y="242.263261" width="79.6268346" height="66.9312377"></rect>
                    <path d="M978.10858,420.671255 C1002.93243,428.616131 1056.80584,503.540438 1056.9633,547.117116 C1057.10262,585.672436 1089.46449,585.790987 1089.32518,547.235667 C1089.00992,459.99167 1038.94407,389.083968 977.499975,388.858881 C916.055877,388.633794 866.501159,459.176558 866.816414,546.420555 C866.941113,580.929882 898.215506,581.044449 898.090807,546.535122 C897.700007,438.384635 971.73075,418.630031 978.10858,420.671255 Z" id="Oval" stroke="#2A2D2E" stroke-width="3" fill="#FFECE1" transform="translate(978.070271, 482.475647) scale(-1, -1) rotate(14.000000) translate(-978.070271, -482.475647) "></path>
                    <path d="M1106.14399,369.066245 C1145.29892,373.252163 1156.8798,402.167199 1156.95381,422.647802 C1157.01928,440.768418 1177.78243,440.844479 1177.71695,422.723864 C1177.56879,381.720056 1145.49075,348.362832 1106.06865,348.218418 C1066.64655,348.074004 1034.80874,381.197087 1034.95691,422.200894 C1035.01552,438.419933 1055.08095,438.493438 1055.02234,422.274399 C1054.83867,371.44475 1101.83436,368.605518 1106.14399,369.066245 Z" id="Oval" stroke="#2A2D2E" stroke-width="3" fill="#FFB3E2" transform="translate(1106.336751, 392.247151) scale(-1, -1) rotate(14.000000) translate(-1106.336751, -392.247151) "></path>
                    <path d="M208.685147,461.082005 C233.509002,469.026881 287.382406,543.951188 287.539869,587.527866 C287.679189,626.083186 320.041062,626.201736 319.901743,587.646416 C319.586488,500.40242 269.52064,429.494718 208.076542,429.269631 C146.632444,429.044544 97.0777262,499.587308 97.3929814,586.831305 C97.5176804,621.340632 128.792074,621.455199 128.667375,586.945871 C128.276574,478.795384 202.307318,459.040781 208.685147,461.082005 Z" id="Oval" stroke="#2A2D2E" stroke-width="3" fill="#FFECE1" transform="translate(208.646838, 522.886396) rotate(14.000000) translate(-208.646838, -522.886396) "></path>
                    <rect id="Rectangle" stroke="#2A2D2E" stroke-width="3" fill="#898989" x="312.193667" y="853.662083" width="75.6922234" height="160.8389" rx="26"></rect>
                    <rect id="Rectangle" stroke="#2A2D2E" stroke-width="3" fill="#898989" x="810.278516" y="853.662083" width="75.6922234" height="160.8389" rx="26"></rect>
                    <rect id="Rectangle" stroke="#2A2D2E" stroke-width="3" fill="#D5FFD1" x="217.135882" y="306.200393" width="756.379956" height="648.359528" rx="20"></rect>
                    <rect id="Rectangle" fill="#FFFFFF" x="240.227202" y="332.208646" width="708.230011" height="597.876816" rx="20"></rect>
                    <rect id="Rectangle" stroke="#162B33" stroke-width="3" fill="#FFFFFF" x="300.74637" y="510.350255" width="573.420537" height="128.870334"></rect>
                    <rect id="Rectangle" stroke="#162B33" stroke-width="3" fill="#FFFFFF" x="300.74637" y="366.141454" width="573.420537" height="128.870334"></rect>
                    <g id="Group-5" transform="translate(505.813456, 716.295678)">
                        <rect id="Rectangle" fill="#FFFFFF" x="0" y="-2.84217094e-14" width="179.024808" height="131.870334" rx="3"></rect>
                        <g id="email" transform="translate(0.000000, -0.000000)" fill="#000000" fill-rule="nonzero" stroke="#FFFFFF" stroke-width="3">
                            <path d="M163.290206,0 L15.7346023,0 C7.06938198,0 0,6.82885453 0,15.2158078 L0,116.654526 C0,125.013077 7.03791278,131.870334 15.7346023,131.870334 L163.290206,131.870334 C171.933748,131.870334 179.024808,125.064472 179.024808,116.654526 L179.024808,15.2158078 C179.024808,6.85725737 171.986896,0 163.290206,0 Z M161.117432,10.1438718 L89.8459777,79.0657328 L17.9580764,10.1438718 L161.117432,10.1438718 Z M10.4897349,114.554068 L10.4897349,17.267913 L61.0079483,65.7015198 L10.4897349,114.554068 Z M17.9070264,121.726462 L68.4570587,72.8431437 L86.1696753,89.8246614 C88.2200688,91.7905438 91.5288809,91.7841194 93.5708826,89.8091075 L110.841532,73.1078988 L161.117782,121.726462 L17.9070264,121.726462 Z M168.535073,114.55373 L118.258823,65.935167 L168.535073,17.3162655 L168.535073,114.55373 Z" id="Shape"></path>
                        </g>
                    </g>
                    <g id="Group-5" transform="translate(261.867563, 716.295678)">
                        <rect id="Rectangle" fill="#FFFFFF" x="0" y="-2.84217094e-14" width="179.024808" height="131.870334" rx="3"></rect>
                        <g id="email" transform="translate(0.000000, -0.000000)" fill="#000000" fill-rule="nonzero" stroke="#FFFFFF" stroke-width="3">
                            <path d="M163.290206,0 L15.7346023,0 C7.06938198,0 0,6.82885453 0,15.2158078 L0,116.654526 C0,125.013077 7.03791278,131.870334 15.7346023,131.870334 L163.290206,131.870334 C171.933748,131.870334 179.024808,125.064472 179.024808,116.654526 L179.024808,15.2158078 C179.024808,6.85725737 171.986896,0 163.290206,0 Z M161.117432,10.1438718 L89.8459777,79.0657328 L17.9580764,10.1438718 L161.117432,10.1438718 Z M10.4897349,114.554068 L10.4897349,17.267913 L61.0079483,65.7015198 L10.4897349,114.554068 Z M17.9070264,121.726462 L68.4570587,72.8431437 L86.1696753,89.8246614 C88.2200688,91.7905438 91.5288809,91.7841194 93.5708826,89.8091075 L110.841532,73.1078988 L161.117782,121.726462 L17.9070264,121.726462 Z M168.535073,114.55373 L118.258823,65.935167 L168.535073,17.3162655 L168.535073,114.55373 Z" id="Shape"></path>
                        </g>
                    </g>
                    <g id="Group-5" transform="translate(749.759349, 716.295678)">
                        <rect id="Rectangle" fill="#FFFFFF" x="0" y="-2.84217094e-14" width="179.024808" height="131.870334" rx="3"></rect>
                        <g id="email" transform="translate(0.000000, -0.000000)" fill="#000000" fill-rule="nonzero" stroke="#FFFFFF" stroke-width="3">
                            <path d="M163.290206,0 L15.7346023,0 C7.06938198,0 0,6.82885453 0,15.2158078 L0,116.654526 C0,125.013077 7.03791278,131.870334 15.7346023,131.870334 L163.290206,131.870334 C171.933748,131.870334 179.024808,125.064472 179.024808,116.654526 L179.024808,15.2158078 C179.024808,6.85725737 171.986896,0 163.290206,0 Z M161.117432,10.1438718 L89.8459777,79.0657328 L17.9580764,10.1438718 L161.117432,10.1438718 Z M10.4897349,114.554068 L10.4897349,17.267913 L61.0079483,65.7015198 L10.4897349,114.554068 Z M17.9070264,121.726462 L68.4570587,72.8431437 L86.1696753,89.8246614 C88.2200688,91.7905438 91.5288809,91.7841194 93.5708826,89.8091075 L110.841532,73.1078988 L161.117782,121.726462 L17.9070264,121.726462 Z M168.535073,114.55373 L118.258823,65.935167 L168.535073,17.3162655 L168.535073,114.55373 Z" id="Shape"></path>
                        </g>
                    </g>
                    <text id="LEFT" font-family="Arial-BoldMT, Arial" font-size="16" font-weight="bold" fill="#040000">
                        <tspan x="299.24637" y="892.627701">LEFT</tspan>
                    </text>
                    <text id="RIGHT" font-family="Arial-BoldMT, Arial" font-size="16" font-weight="bold" fill="#000000">
                        <tspan x="542.208609" y="890.629666">RIGHT</tspan>
                    </text>
                    <text id="FORWARD" font-family="Arial-BoldMT, Arial" font-size="16" font-weight="bold" fill="#000000">
                        <tspan x="757.628571" y="892.627701">FORWARD</tspan>
                    </text>
                    <ellipse id="Oval" stroke="#2A2D2E" stroke-width="3" fill="#BAF2FF" cx="587.456638" cy="574.785422" rx="21.6403614" ry="21.978389"></ellipse>
                    <ellipse id="Oval" stroke="#2A2D2E" stroke-width="3" fill="#BAF2FF" cx="587.456638" cy="430.576621" rx="21.6403614" ry="21.978389"></ellipse>
                    <text id="Orientation" font-family="BradleyHandITCTT-Bold, Bradley Hand" font-size="19" font-style="expanded" font-weight="bold" fill="#040000">
                        <tspan x="316.595584" y="408.602161">Orientation</tspan>
                    </text>
                    <text id="Position" font-family="BradleyHandITCTT-Bold, Bradley Hand" font-size="19" font-style="expanded" font-weight="bold" fill="#040000">
                        <tspan x="316.595584" y="584.429273">Position</tspan>
                    </text>
                    <path d="M375.740841,68.3444427 C354.430789,75.5667931 340.092481,95.5657098 340.092481,118.066392 L340.092481,197.005992 C340.092481,198.685087 340.173034,200.363214 340.333863,202.034588 C343.11108,230.896227 368.75944,252.041829 397.621078,249.264611 C496.408137,239.758806 562.754037,235.005838 596.704339,235.005838 C630.368376,235.005838 694.098655,239.678676 787.93833,249.024001 C789.667201,249.196176 791.403553,249.282423 793.140975,249.282423 C822.135924,249.282423 845.640975,225.777372 845.640975,196.782423 L845.640975,115.451817 C845.640975,94.0275791 832.622953,74.7526596 812.749077,66.7509713 C743.017364,38.6753482 674.561742,24.6414416 607.374868,24.6414416 C538.930045,24.6414416 461.717005,39.205614 375.740841,68.3444427 Z" id="Rectangle" stroke="#2A2D2E" stroke-width="3" fill="#FFFFFF"></path>
                    <path d="M352.407171,54.9726605 C331.788155,62.5876309 318.095584,82.2410775 318.095584,104.221332 L318.095584,215.765912 C318.095584,217.579704 318.18958,219.392278 318.377192,221.196341 C321.376336,250.035762 347.186592,270.983446 376.026013,267.984303 C487.648269,256.376195 562.406174,250.572097 600.350111,250.572097 C638.006583,250.572097 709.889187,256.288208 816.045742,267.720084 C817.912718,267.921136 819.789136,268.02188 821.666906,268.02188 C850.661855,268.02188 874.166906,244.516829 874.166906,215.52188 L874.166906,101.463953 C874.166906,80.6734632 861.898216,61.8415332 842.88057,53.440725 C764.484141,18.8100775 687.553854,1.5 612.080727,1.5 C535.503686,1.5 448.943907,19.3199207 352.407171,54.9726605 Z" id="Rectangle" stroke="#2A2D2E" stroke-width="3" fill="#D5FFD1"></path>
                    <path d="M375.740841,68.3444427 C354.430789,75.5667931 340.092481,95.5657098 340.092481,118.066392 L340.092481,197.005992 C340.092481,198.685087 340.173034,200.363214 340.333863,202.034588 C343.11108,230.896227 368.75944,252.041829 397.621078,249.264611 C496.408137,239.758806 562.754037,235.005838 596.704339,235.005838 C630.368376,235.005838 694.098655,239.678676 787.93833,249.024001 C789.667201,249.196176 791.403553,249.282423 793.140975,249.282423 C822.135924,249.282423 845.640975,225.777372 845.640975,196.782423 L845.640975,115.451817 C845.640975,94.0275791 832.622953,74.7526596 812.749077,66.7509713 C743.017364,38.6753482 674.561742,24.6414416 607.374868,24.6414416 C538.930045,24.6414416 461.717005,39.205614 375.740841,68.3444427 Z" id="Rectangle" stroke="#2A2D2E" stroke-width="3" fill="#FFFFFF"></path>
                    <path d="M483.939257,206.947213 C514.571185,207.005076 546.587699,157.185802 546.526825,124.471716 C546.46595,91.7576309 518.326383,65.1845624 483.675342,65.1191066 C449.024301,65.0536507 420.983431,91.5205944 421.044306,124.23468 C421.10518,156.948765 453.307328,206.889349 483.939257,206.947213 Z" id="Oval" stroke="#2A2D2E" stroke-width="3" transform="translate(483.785559, 136.033124) rotate(-173.000000) translate(-483.785559, -136.033124) "></path>
                    <path d="M711.47644,206.947213 C742.108368,207.005076 774.124882,157.185802 774.064008,124.471716 C774.003133,91.7576309 745.863566,65.1845624 711.212525,65.1191066 C676.561485,65.0536507 648.520614,91.5205944 648.581489,124.23468 C648.642363,156.948765 680.844511,206.889349 711.47644,206.947213 Z" id="Oval" stroke="#2A2D2E" stroke-width="3" transform="translate(711.322742, 136.033124) scale(-1, 1) rotate(-173.000000) translate(-711.322742, -136.033124) "></path>
                    <ellipse id="Oval" fill="#2A2D2E" cx="709.350724" cy="136.03044" rx="37.3788061" ry="37.9626719"></ellipse>
                    <ellipse id="Oval" fill="#FFFFFF" cx="717.338237" cy="127.374754" rx="13.8105694" ry="14.4857564"></ellipse>
                    <ellipse id="Oval" fill="#2A2D2E" cx="709.350724" cy="136.03044" rx="37.3788061" ry="37.9626719"></ellipse>
                    <ellipse id="Oval" fill="#FFFFFF" cx="717.338237" cy="127.374754" rx="13.8105694" ry="14.4857564"></ellipse>
                    <ellipse id="Oval" fill="#2A2D2E" cx="487.75117" cy="136.03044" rx="37.3788061" ry="37.9626719"></ellipse>
                    <ellipse id="Oval" fill="#FFFFFF" cx="495.738683" cy="127.374754" rx="13.8105694" ry="14.4857564"></ellipse>
                    <path d="M597.293166,203.88857 C608.701551,203.88857 617.949874,194.04851 617.949874,181.910181 C617.949874,179.936198 614.230978,180.776123 614.0402,180.613812 C613.057849,179.778051 612.456092,197.358318 597.293166,197.358318 C582.055641,197.358318 581.782545,179.573444 580.827518,180.613812 C580.647629,180.809776 576.636457,179.986204 576.636457,181.910181 C576.636457,194.04851 585.884781,203.88857 597.293166,203.88857 Z" id="Oval" fill="#2A2D2E"></path>
                    <path d="M80.1875918,593.579801 C119.342528,597.765719 130.923406,626.680755 130.997412,647.161359 C131.062891,665.281974 151.82604,665.358035 151.760561,647.23742 C151.612394,606.233613 119.534357,572.876389 80.1122584,572.731975 C40.6901603,572.58756 8.85234829,605.710643 9.00051506,646.71445 C9.05912237,662.933489 29.1245518,663.006995 29.0659445,646.787955 C28.8822721,595.958306 75.8779675,593.119074 80.1875918,593.579801 Z" id="Oval" stroke="#2A2D2E" stroke-width="3" fill="#FFB3E2" transform="translate(80.380358, 616.760707) rotate(14.000000) translate(-80.380358, -616.760707) "></path>
                    <path d="M1068.46285,452.55501 L1096.00513,463.544204" id="Line" stroke="#2A2D2E" stroke-width="3" stroke-linecap="square"></path>
                    <path d="M1060.59363,477.70558 L1086.1686,489.518664" id="Line" stroke="#2A2D2E" stroke-width="3" stroke-linecap="square"></path>
                    <path d="M1046.82249,500.089216 L1072.39746,511.902301" id="Line" stroke="#2A2D2E" stroke-width="3" stroke-linecap="square"></path>
                    <path d="M1027.80281,520.237641 L1054.5798,535.473477" id="Line" stroke="#2A2D2E" stroke-width="3" stroke-linecap="square"></path>
                    <path d="M1005.92352,535.92049 L1027.44026,554.866743" id="Line" stroke="#2A2D2E" stroke-width="3" stroke-linecap="square"></path>
                    <path d="M982.315857,543.660094 L995.672547,571.438114" id="Line" stroke="#2A2D2E" stroke-width="3" stroke-linecap="square"></path>
                    <path d="M181.208034,435.571709 L193.011868,463.544204" id="Line-2" stroke="#2A2D2E" stroke-width="3" stroke-linecap="square"></path>
                    <path d="M151.698451,455.552063 L165.870126,478.52947" id="Line-2" stroke="#2A2D2E" stroke-width="3" stroke-linecap="square"></path>
                    <path d="M128.090784,479.528487 L145.796534,498.509823" id="Line-2" stroke="#2A2D2E" stroke-width="3" stroke-linecap="square"></path>
                    <path d="M110.385033,505.084305 L129.074436,521.662358" id="Line-2" stroke="#2A2D2E" stroke-width="3" stroke-linecap="square"></path>
                    <path d="M92.679283,541.662059 L115.303297,555.453831" id="Line-2" stroke="#2A2D2E" stroke-width="3" stroke-linecap="square"></path>
                    <rect id="Rectangle" stroke="#2A2D2E" stroke-width="6" fill="#FFECE1" x="554.688602" y="243.763261" width="76.6268346" height="63.9312377"></rect>
                    <path d="M978.10858,420.671255 C1002.93243,428.616131 1056.80584,503.540438 1056.9633,547.117116 C1057.10262,585.672436 1089.46449,585.790987 1089.32518,547.235667 C1089.00992,459.99167 1038.94407,389.083968 977.499975,388.858881 C916.055877,388.633794 866.501159,459.176558 866.816414,546.420555 C866.941113,580.929882 898.215506,581.044449 898.090807,546.535122 C897.700007,438.384635 971.73075,418.630031 978.10858,420.671255 Z" id="Oval" stroke="#2A2D2E" stroke-width="6" fill="#FFECE1" transform="translate(978.070271, 482.475647) scale(-1, -1) rotate(14.000000) translate(-978.070271, -482.475647) "></path>
                    <path d="M1106.14399,369.066245 C1145.29892,373.252163 1156.8798,402.167199 1156.95381,422.647802 C1157.01928,440.768418 1177.78243,440.844479 1177.71695,422.723864 C1177.56879,381.720056 1145.49075,348.362832 1106.06865,348.218418 C1066.64655,348.074004 1034.80874,381.197087 1034.95691,422.200894 C1035.01552,438.419933 1055.08095,438.493438 1055.02234,422.274399 C1054.83867,371.44475 1101.83436,368.605518 1106.14399,369.066245 Z" id="Oval" stroke="#2A2D2E" stroke-width="6" fill="#FFB3E2" transform="translate(1106.336751, 392.247151) scale(-1, -1) rotate(14.000000) translate(-1106.336751, -392.247151) "></path>
                    <path d="M208.685147,461.082005 C233.509002,469.026881 287.382406,543.951188 287.539869,587.527866 C287.679189,626.083186 320.041062,626.201736 319.901743,587.646416 C319.586488,500.40242 269.52064,429.494718 208.076542,429.269631 C146.632444,429.044544 97.0777262,499.587308 97.3929814,586.831305 C97.5176804,621.340632 128.792074,621.455199 128.667375,586.945871 C128.276574,478.795384 202.307318,459.040781 208.685147,461.082005 Z" id="Oval" stroke="#2A2D2E" stroke-width="6" fill="#FFECE1" transform="translate(208.646838, 522.886396) rotate(14.000000) translate(-208.646838, -522.886396) "></path>
                    <rect id="Rectangle" stroke="#2A2D2E" stroke-width="6" fill="#898989" x="313.693667" y="855.162083" width="72.6922234" height="157.8389" rx="26"></rect>
                    <rect id="Rectangle" stroke="#2A2D2E" stroke-width="6" fill="#898989" x="811.778516" y="855.162083" width="72.6922234" height="157.8389" rx="26"></rect>
                    <rect id="Rectangle" stroke="#2A2D2E" stroke-width="6" fill="#D5FFD1" x="218.635882" y="307.700393" width="753.379956" height="645.359528" rx="20"></rect>
                    <rect id="Rectangle" fill="#FFFFFF" x="240.227202" y="332.208646" width="708.230011" height="597.876816" rx="20"></rect>
                    <rect id="Rectangle" stroke="#162B33" stroke-width="6" fill="#FFFFFF" x="302.24637" y="511.850255" width="570.420537" height="125.870334"></rect>
                    <rect id="Rectangle" stroke="#162B33" stroke-width="6" fill="#FFFFFF" x="302.24637" y="367.641454" width="570.420537" height="125.870334"></rect>
                    <g id="Group-5" transform="translate(505.813456, 716.295678)">
                        <rect id="Rectangle" fill="#FFFFFF" x="0" y="-2.84217094e-14" width="179.024808" height="131.870334" rx="3"></rect>
                        <g id="email" transform="translate(0.000000, -0.000000)" fill="#000000" fill-rule="nonzero" stroke="#FFFFFF" stroke-width="3">
                            <path d="M163.290206,0 L15.7346023,0 C7.06938198,0 0,6.82885453 0,15.2158078 L0,116.654526 C0,125.013077 7.03791278,131.870334 15.7346023,131.870334 L163.290206,131.870334 C171.933748,131.870334 179.024808,125.064472 179.024808,116.654526 L179.024808,15.2158078 C179.024808,6.85725737 171.986896,0 163.290206,0 Z M161.117432,10.1438718 L89.8459777,79.0657328 L17.9580764,10.1438718 L161.117432,10.1438718 Z M10.4897349,114.554068 L10.4897349,17.267913 L61.0079483,65.7015198 L10.4897349,114.554068 Z M17.9070264,121.726462 L68.4570587,72.8431437 L86.1696753,89.8246614 C88.2200688,91.7905438 91.5288809,91.7841194 93.5708826,89.8091075 L110.841532,73.1078988 L161.117782,121.726462 L17.9070264,121.726462 Z M168.535073,114.55373 L118.258823,65.935167 L168.535073,17.3162655 L168.535073,114.55373 Z" id="Shape"></path>
                        </g>
                    </g>
                    <g id="Group-5" transform="translate(749.759349, 716.295678)">
                        <rect id="Rectangle" fill="#FFFFFF" x="0" y="-2.84217094e-14" width="179.024808" height="131.870334" rx="3"></rect>
                        <g id="email" transform="translate(0.000000, -0.000000)" fill="#000000" fill-rule="nonzero" stroke="#FFFFFF" stroke-width="3">
                            <path d="M163.290206,0 L15.7346023,0 C7.06938198,0 0,6.82885453 0,15.2158078 L0,116.654526 C0,125.013077 7.03791278,131.870334 15.7346023,131.870334 L163.290206,131.870334 C171.933748,131.870334 179.024808,125.064472 179.024808,116.654526 L179.024808,15.2158078 C179.024808,6.85725737 171.986896,0 163.290206,0 Z M161.117432,10.1438718 L89.8459777,79.0657328 L17.9580764,10.1438718 L161.117432,10.1438718 Z M10.4897349,114.554068 L10.4897349,17.267913 L61.0079483,65.7015198 L10.4897349,114.554068 Z M17.9070264,121.726462 L68.4570587,72.8431437 L86.1696753,89.8246614 C88.2200688,91.7905438 91.5288809,91.7841194 93.5708826,89.8091075 L110.841532,73.1078988 L161.117782,121.726462 L17.9070264,121.726462 Z M168.535073,114.55373 L118.258823,65.935167 L168.535073,17.3162655 L168.535073,114.55373 Z" id="Shape"></path>
                        </g>
                    </g>
                    <text id="left" font-family="Arial-BoldMT, Arial" font-size="25" font-weight="bold" fill="#040000">
                        <tspan x="333.117563" y="892.627701">left</tspan>
                    </text>
                    <g id="Group-23" transform="translate(1333.000000, 251.602161)">
                        <text id="left" transform="translate(109.346112, 93.000000) rotate(-21.000000) translate(-109.346112, -93.000000) " font-family="Arial-BoldMT, Arial" font-size="25" font-weight="bold" fill="#040000">
                            <tspan x="90.5961117" y="102">left</tspan>
                        </text>
                        <g id="message(1)" transform="translate(0.146221, 0.000000)" fill="#000000" fill-rule="nonzero">
                            <path d="M144.596719,51.0090667 L128.048877,4.58427879 C127.44792,2.89736061 126.249687,1.55464545 124.675078,0.803336364 C123.100752,0.0520272727 121.338945,-0.0185181818 119.713643,0.605809091 L39.0242578,31.5887848 C37.3989551,32.2128182 36.1052832,33.4564758 35.3811328,35.0901909 C34.6572656,36.7242 34.5895801,38.5530909 35.1908203,40.2397152 L51.7386621,86.664503 C52.3396191,88.3514212 53.5378516,89.6941364 55.1124609,90.4457394 C55.9762305,90.8581364 56.8963574,91.0650697 57.8195996,91.0650697 C58.5791504,91.0650697 59.3404004,90.9251545 60.0741797,90.6432667 L140.763848,59.6602909 L140.764131,59.6602909 C144.118105,58.3719545 145.837715,54.4910727 144.596719,51.0090667 Z M115.278398,9.4880697 L90.2497559,46.6255485 L47.9598828,35.3368061 L115.278398,9.4880697 Z M56.6530859,81.048203 L42.299502,40.7785061 L75.5424512,49.6531242 L56.6530859,81.048203 Z M63.6819043,82.0787545 L82.1331543,51.4120576 L90.8110645,53.7288879 C91.0803906,53.7997273 91.352832,53.8367636 91.6187598,53.8367636 C92.6632129,53.8367636 93.6623535,53.3114939 94.2786035,52.3991061 L99.4139258,44.7731424 L132.653193,55.595403 L63.6819043,82.0787545 Z M103.316465,38.9875333 L122.988604,9.79229697 L137.347852,50.0675788 L103.316465,38.9875333 Z" id="Shape"></path>
                            <path d="M37.790625,87.5868848 C37.1692773,85.8429424 35.3024023,84.9528939 33.623291,85.597503 L21.3996777,90.2911273 C19.7194336,90.9366182 18.8616113,92.8730909 19.482959,94.6167394 C19.9672363,95.9756212 21.2065332,96.8159939 22.5254102,96.8159939 C22.8989551,96.8159939 23.2795801,96.7483879 23.6505762,96.6058273 L35.873623,91.912203 C37.5544336,91.2675939 38.4122559,89.3308273 37.790625,87.5868848 Z" id="Path"></path>
                            <path d="M21.246748,56.3323091 C20.624834,54.5883667 18.7588086,53.6986121 17.0791309,54.3429273 L9.53375,57.2402879 C7.85350586,57.8857788 6.99568359,59.8219576 7.61703125,61.5659 C8.10130859,62.9244879 9.34088867,63.7651545 10.6594824,63.7651545 C11.0330273,63.7651545 11.4136523,63.6975485 11.7846484,63.5549879 L19.3300293,60.6576273 C21.0102734,60.0130182 21.8683789,58.0762515 21.246748,56.3323091 Z" id="Path"></path>
                            <path d="M11.8931152,81.8350788 C11.2712012,80.0911364 9.40517578,79.2007939 7.72549805,79.845697 L2.11892578,81.9985091 C0.438681641,82.644 -0.419140625,84.5804727 0.202207031,86.3241212 C0.686484375,87.6827091 1.92578125,88.5233758 3.2446582,88.5233758 C3.61820313,88.5233758 3.99882813,88.4557697 4.36982422,88.3132091 L9.97639648,86.160397 C11.6569238,85.5154939 12.5147461,83.5790212 11.8931152,81.8350788 Z" id="Path"></path>
                        </g>
                    </g>
                    <text id="right" font-family="Arial-BoldMT, Arial" font-size="25" font-weight="bold" fill="#000000">
                        <tspan x="568.04246" y="890.629666">right</tspan>
                    </text>
                    <text id="forward" font-family="Arial-BoldMT, Arial" font-size="25" font-weight="bold" fill="#000000">
                        <tspan x="794.825853" y="892.627701">forward</tspan>
                    </text>
                    <ellipse id="Oval" stroke="#2A2D2E" stroke-width="6" fill="#BAF2FF" cx="587.456638" cy="574.785422" rx="21.6403614" ry="21.978389"></ellipse>
                    <ellipse id="Oval" stroke="#2A2D2E" stroke-width="6" fill="#BAF2FF" cx="587.456638" cy="430.576621" rx="21.6403614" ry="21.978389"></ellipse>
                    <text id="Orientation" font-family="BradleyHandITCTT-Bold, Bradley Hand" font-size="42" font-style="expanded" font-weight="bold" fill="#040000">
                        <tspan x="316.595584" y="408.602161">Orientation</tspan>
                    </text>
                    <text id="Position" font-family="BradleyHandITCTT-Bold, Bradley Hand" font-size="42" font-style="expanded" font-weight="bold" fill="#040000">
                        <tspan x="316.595584" y="552.843811">Position</tspan>
                    </text>
                    <path d="M375.740841,68.3444427 C354.430789,75.5667931 340.092481,95.5657098 340.092481,118.066392 L340.092481,197.005992 C340.092481,198.685087 340.173034,200.363214 340.333863,202.034588 C343.11108,230.896227 368.75944,252.041829 397.621078,249.264611 C496.408137,239.758806 562.754037,235.005838 596.704339,235.005838 C630.368376,235.005838 694.098655,239.678676 787.93833,249.024001 C789.667201,249.196176 791.403553,249.282423 793.140975,249.282423 C822.135924,249.282423 845.640975,225.777372 845.640975,196.782423 L845.640975,115.451817 C845.640975,94.0275791 832.622953,74.7526596 812.749077,66.7509713 C743.017364,38.6753482 674.561742,24.6414416 607.374868,24.6414416 C538.930045,24.6414416 461.717005,39.205614 375.740841,68.3444427 Z" id="Rectangle" stroke="#2A2D2E" stroke-width="3" fill="#FFFFFF"></path>
                    <path d="M352.92684,56.3797654 C332.896939,63.7771652 319.595584,82.8690848 319.595584,104.221332 L319.595584,215.765912 C319.595584,217.527881 319.686894,219.288667 319.869146,221.041186 C322.7826,249.056623 347.85542,269.405802 375.870858,266.492349 C487.544409,254.878907 562.337239,249.072097 600.350111,249.072097 C638.077283,249.072097 709.997482,254.791197 816.206347,266.228707 C818.019981,266.424015 819.842787,266.52188 821.666906,266.52188 C849.833428,266.52188 872.666906,243.688402 872.666906,215.52188 L872.666906,101.463953 C872.666906,81.2674772 860.74875,62.9736024 842.274465,54.8128172 C764.063157,20.2639442 687.337897,3 612.080727,3 C535.696012,3 449.30753,20.7846562 352.92684,56.3797654 Z" id="Rectangle" stroke="#2A2D2E" stroke-width="6" fill="#D5FFD1"></path>
                    <path d="M376.222317,69.7650699 C355.521123,76.7810673 341.592481,96.2085865 341.592481,118.066392 L341.592481,197.005992 C341.592481,198.637112 341.670733,200.267294 341.826966,201.890914 C344.524834,229.927935 369.440384,250.469376 397.477404,247.771508 C496.311787,238.261149 562.69039,233.505838 596.704339,233.505838 C630.433609,233.505838 694.199051,238.181254 788.086977,247.531384 C789.766452,247.69864 791.453193,247.782423 793.140975,247.782423 C821.307497,247.782423 844.140975,224.948945 844.140975,196.782423 L844.140975,115.451817 C844.140975,94.6397002 831.494897,75.9154926 812.188846,68.142424 C742.6304,40.1365625 674.36397,26.1414416 607.374868,26.1414416 C539.106908,26.1414416 462.052662,40.6756618 376.222317,69.7650699 Z" id="Rectangle" stroke="#2A2D2E" stroke-width="6" fill="#FFFFFF"></path>
                    <path d="M483.939257,206.947213 C514.571185,207.005076 546.587699,157.185802 546.526825,124.471716 C546.46595,91.7576309 518.326383,65.1845624 483.675342,65.1191066 C449.024301,65.0536507 420.983431,91.5205944 421.044306,124.23468 C421.10518,156.948765 453.307328,206.889349 483.939257,206.947213 Z" id="Oval" stroke="#2A2D2E" stroke-width="6" transform="translate(483.785559, 136.033124) rotate(-173.000000) translate(-483.785559, -136.033124) "></path>
                    <path d="M711.47644,206.947213 C742.108368,207.005076 774.124882,157.185802 774.064008,124.471716 C774.003133,91.7576309 745.863566,65.1845624 711.212525,65.1191066 C676.561485,65.0536507 648.520614,91.5205944 648.581489,124.23468 C648.642363,156.948765 680.844511,206.889349 711.47644,206.947213 Z" id="Oval" stroke="#2A2D2E" stroke-width="6" transform="translate(711.322742, 136.033124) scale(-1, 1) rotate(-173.000000) translate(-711.322742, -136.033124) "></path>
                    <ellipse id="Oval" fill="#2A2D2E" cx="709.350724" cy="136.03044" rx="37.3788061" ry="37.9626719"></ellipse>
                    <ellipse id="Oval" fill="#FFFFFF" cx="717.338237" cy="127.374754" rx="13.8105694" ry="14.4857564"></ellipse>
                    <ellipse id="Oval" fill="#2A2D2E" cx="709.350724" cy="136.03044" rx="37.3788061" ry="37.9626719"></ellipse>
                    <ellipse id="Oval" fill="#FFFFFF" cx="717.338237" cy="127.374754" rx="13.8105694" ry="14.4857564"></ellipse>
                    <ellipse id="Oval" fill="#2A2D2E" cx="487.75117" cy="136.03044" rx="37.3788061" ry="37.9626719"></ellipse>
                    <ellipse id="Oval" fill="#FFFFFF" cx="495.738683" cy="127.374754" rx="13.8105694" ry="14.4857564"></ellipse>
                    <path d="M597.293166,203.88857 C608.701551,203.88857 617.949874,194.04851 617.949874,181.910181 C617.949874,179.936198 614.230978,180.776123 614.0402,180.613812 C613.057849,179.778051 612.456092,197.358318 597.293166,197.358318 C582.055641,197.358318 581.782545,179.573444 580.827518,180.613812 C580.647629,180.809776 576.636457,179.986204 576.636457,181.910181 C576.636457,194.04851 585.884781,203.88857 597.293166,203.88857 Z" id="Oval" fill="#2A2D2E"></path>
                    <path d="M80.1875918,593.579801 C119.342528,597.765719 130.923406,626.680755 130.997412,647.161359 C131.062891,665.281974 151.82604,665.358035 151.760561,647.23742 C151.612394,606.233613 119.534357,572.876389 80.1122584,572.731975 C40.6901603,572.58756 8.85234829,605.710643 9.00051506,646.71445 C9.05912237,662.933489 29.1245518,663.006995 29.0659445,646.787955 C28.8822721,595.958306 75.8779675,593.119074 80.1875918,593.579801 Z" id="Oval" stroke="#2A2D2E" stroke-width="6" fill="#FFB3E2" transform="translate(80.380358, 616.760707) rotate(14.000000) translate(-80.380358, -616.760707) "></path>
                    <path d="M1068.46285,452.55501 L1096.00513,463.544204" id="Line" stroke="#2A2D2E" stroke-width="6" stroke-linecap="square"></path>
                    <path d="M1060.59363,477.70558 L1086.1686,489.518664" id="Line" stroke="#2A2D2E" stroke-width="6" stroke-linecap="square"></path>
                    <path d="M1046.82249,500.089216 L1072.39746,511.902301" id="Line" stroke="#2A2D2E" stroke-width="6" stroke-linecap="square"></path>
                    <path d="M1027.80281,520.237641 L1054.5798,535.473477" id="Line" stroke="#2A2D2E" stroke-width="6" stroke-linecap="square"></path>
                    <path d="M1005.92352,535.92049 L1027.44026,554.866743" id="Line" stroke="#2A2D2E" stroke-width="6" stroke-linecap="square"></path>
                    <path d="M982.315857,543.660094 L995.672547,571.438114" id="Line" stroke="#2A2D2E" stroke-width="6" stroke-linecap="square"></path>
                    <path d="M181.208034,435.571709 L193.011868,463.544204" id="Line-2" stroke="#2A2D2E" stroke-width="6" stroke-linecap="square"></path>
                    <path d="M151.698451,455.552063 L165.870126,478.52947" id="Line-2" stroke="#2A2D2E" stroke-width="6" stroke-linecap="square"></path>
                    <path d="M128.090784,479.528487 L145.796534,498.509823" id="Line-2" stroke="#2A2D2E" stroke-width="6" stroke-linecap="square"></path>
                    <path d="M110.385033,505.084305 L129.074436,521.662358" id="Line-2" stroke="#2A2D2E" stroke-width="6" stroke-linecap="square"></path>
                    <path d="M92.679283,541.662059 L115.303297,555.453831" id="Line-2" stroke="#2A2D2E" stroke-width="6" stroke-linecap="square"></path>
                </g>
                <g id="message" transform="translate(268.000000, 650.279702)" fill="#000000" fill-rule="nonzero" stroke="#FFFFFF" stroke-width="3">
                    <path d="M175.865594,75.9172384 C175.86525,75.5953444 175.806125,75.1091591 175.703344,74.8290695 C175.432813,73.6359714 174.831594,72.5461303 173.931656,71.7852899 L148.737531,50.4867758 L148.737531,27.6548757 C148.737531,24.6282359 146.719031,22.1734806 144.230281,22.1734806 L115.245625,22.1734806 L90.5839688,1.32227369 C89.0425938,0.0175578549 86.99625,0.0121232808 85.4500625,1.31140455 L60.62925,22.1734806 L31.7714375,22.1734806 C29.282,22.1734806 27.2641875,24.6282359 27.2641875,27.6548757 L27.2641875,50.2179734 L1.9476875,71.4968394 C0.70228125,72.543622 0.02853125,74.2170528 0.00721875,75.9281076 C0.00584375,75.960297 0,75.9908142 0,76.0242577 L0.13440625,194.847041 C0.136125,196.300581 0.6125625,197.693922 1.45853125,198.720638 C2.30346875,199.745265 3.44815625,200.320493 4.64165625,200.320493 C4.6440625,200.320493 4.64578125,200.320493 4.64784375,200.320493 L171.498938,200.041658 C173.987688,200.037477 176.003438,197.579796 176,194.552738 L175.865594,75.9172384 Z M148.737188,63.8386884 L163.139625,76.0112984 L148.737188,88.1880888 L148.737188,63.8386884 Z M88.0051563,12.4928318 L99.4554688,22.1730625 L76.4888438,22.1730625 L88.0051563,12.4928318 Z M36.2786875,33.1362708 L139.722687,33.1362708 L139.722687,95.80987 L104.991562,125.174128 L90.831125,111.815945 C90.809125,111.795043 90.7902187,111.782083 90.7689062,111.763271 C89.1862812,110.319347 86.9477812,110.266255 85.3053437,111.815945 L71.042125,125.270696 L36.2786875,96.0523356 L36.2786875,33.1362708 Z M27.2641875,63.5439672 L27.2641875,88.4761212 L12.43275,76.0104623 L27.2641875,63.5439672 Z M9.0261875,86.4795423 L63.5686562,132.320175 L9.1361875,183.666032 L9.0261875,86.4795423 Z M17.8320312,189.335965 L88.0684063,123.082653 L158.052813,189.101442 L17.8320312,189.335965 Z M112.45575,132.215246 L166.863125,86.2153384 L166.973125,183.644293 L112.45575,132.215246 Z" id="Shape"></path>
                    <path d="M118.514688,55.0618511 L57.4866875,55.0618511 C54.9979375,55.0618511 52.9794375,57.5166065 52.9794375,60.5432462 C52.9794375,63.569886 54.9979375,66.0246413 57.4866875,66.0246413 L118.514688,66.0246413 C121.004125,66.0246413 123.021938,63.569886 123.021938,60.5432462 C123.021938,57.5166065 121.004125,55.0618511 118.514688,55.0618511 Z" id="Path"></path>
                    <path d="M118.514688,83.5649384 L57.4866875,83.5649384 C54.9979375,83.5649384 52.9794375,86.0196937 52.9794375,89.0463335 C52.9794375,92.0729732 54.9979375,94.5277286 57.4866875,94.5277286 L118.514688,94.5277286 C121.004125,94.5277286 123.021938,92.0729732 123.021938,89.0463335 C123.021938,86.0196937 121.004125,83.5649384 118.514688,83.5649384 Z" id="Path"></path>
                </g>
            </g>
        </g>
    </g>
</svg>