<?xml version="1.0" encoding="UTF-8"?>
<svg width="1976px" height="1272px" viewBox="0 0 1976 1272" version="1.1" xmlns="http://www.w3.org/2000/svg" xmlns:xlink="http://www.w3.org/1999/xlink">
    <!-- Generator: Sketch 53.2 (72643) - https://sketchapp.com -->
    <title>Group 17</title>
    <desc>Created with Sketch.</desc>
    <g id="Page-1" stroke="none" stroke-width="1" fill="none" fill-rule="evenodd">
        <g id="Group-17" transform="translate(-0.556878, 15.000000)">
            <g id="Group-23" transform="translate(0.000000, 625.483376)" fill="#000000" fill-rule="nonzero">
                <g id="message(1)" transform="translate(0.853773, 0.000000)">
                    <path d="M479.373483,281.731389 C471.496133,267.051038 447.82818,259.558689 426.540665,264.984951 L271.571581,304.495459 C250.269705,309.929144 239.394367,326.230198 247.271717,340.908075 C253.41131,352.34702 269.122925,359.421203 285.843443,359.421203 C290.579188,359.421203 295.404693,358.852101 300.108125,357.652039 L455.070028,318.14153 C476.379085,312.715268 487.254423,296.41174 479.373483,281.731389 Z" id="Path"></path>
                    <path d="M269.632762,18.6331691 C261.748232,3.95281791 238.09105,-3.53705617 216.796354,1.88673107 L121.13718,26.2764532 C99.8353035,31.7101379 88.9599651,48.0087175 96.8373149,62.6890687 C102.976908,74.1255398 118.692113,81.2021965 135.409042,81.2021965 C140.144787,81.2021965 144.970292,80.6330947 149.673723,79.4330323 L245.332898,55.0433102 C266.634774,49.6170486 277.513703,33.3135202 269.632762,18.6331691 Z" id="Path"></path>
                    <path d="M151.048848,233.313201 C143.164318,218.632849 119.507136,211.138027 98.2124402,216.566763 L27.1331817,234.688942 C5.83130563,240.122627 -5.04403276,256.423681 2.833317,271.101558 C8.97291048,282.538029 24.6845251,289.614685 41.4050437,289.614685 C46.1407887,289.614685 50.9662937,289.045584 55.669725,287.845521 L126.748983,269.723342 C148.05445,264.294606 158.929788,247.993552 151.048848,233.313201 Z" id="Path"></path>
                </g>
            </g>
            <g id="Group-14" transform="translate(989.556878, 231.000000)">
                <rect id="Rectangle" stroke="#2A2D2E" stroke-width="3" fill="#FFECE1" x="350.116552" y="119.634454" width="41.289609" height="31.9033613"></rect>
                <g id="Group-7" transform="translate(610.961468, 345.669014) scale(1, -1) translate(-610.961468, -345.669014) translate(486.961468, 253.669014)" stroke="#2A2D2E" stroke-width="3">
                    <path d="M97.4802147,61.6145945 C115.612029,66.5902619 154.047261,116.372084 153.471884,145.820152 C152.962808,171.874907 176.762937,171.44172 177.272013,145.386965 C178.423964,86.4295759 142.725463,39.3019155 97.5371801,40.1243891 C52.3488967,40.9468627 14.7827146,89.4080162 13.6307637,148.365405 C13.1751101,171.685976 36.1754665,171.267346 36.6311202,147.946775 C38.0591158,74.8612839 92.8217273,60.3362291 97.4802147,61.6145945 Z" id="Oval" fill="#FFECE1" transform="translate(95.461604, 102.880856) scale(-1, -1) rotate(14.000000) translate(-95.461604, -102.880856) "></path>
                    <path d="M190.576995,26.2702478 C219.308877,28.4781744 227.367925,47.8362261 227.097503,61.6765239 C226.858243,73.9219988 242.128237,73.6440691 242.367498,61.3985942 C242.908903,33.6892102 219.844748,11.654096 190.852266,12.1817893 C161.859783,12.7094825 137.917836,35.6001564 137.376431,63.3095404 C137.162278,74.2699759 151.919144,74.0013857 152.133297,63.0409501 C152.80444,28.6914993 187.414594,26.0272303 190.576995,26.2702478 Z" id="Oval" fill="#FFB3E2" transform="translate(189.875480, 41.784656) scale(-1, -1) rotate(14.000000) translate(-189.875480, -41.784656) "></path>
                    <path d="M161.444175,82.0446127 L181.810317,89.428016" id="Line" stroke-linecap="square"></path>
                    <path d="M155.625277,98.9427394 L174.536695,106.879697" id="Line" stroke-linecap="square"></path>
                    <path d="M145.442207,113.981823 L164.353624,121.918781" id="Line" stroke-linecap="square"></path>
                    <path d="M131.378103,127.519117 L151.178351,137.755747" id="Line" stroke-linecap="square"></path>
                    <path d="M115.199458,138.056086 L131.110011,150.785665" id="Line" stroke-linecap="square"></path>
                    <path d="M97.7427655,143.256159 L107.619372,161.919613" id="Line" stroke-linecap="square"></path>
                    <path d="M97.4802147,61.6145945 C115.612029,66.5902619 154.047261,116.372084 153.471884,145.820152 C152.962808,171.874907 176.762937,171.44172 177.272013,145.386965 C178.423964,86.4295759 142.725463,39.3019155 97.5371801,40.1243891 C52.3488967,40.9468627 14.7827146,89.4080162 13.6307637,148.365405 C13.1751101,171.685976 36.1754665,171.267346 36.6311202,147.946775 C38.0591158,74.8612839 92.8217273,60.3362291 97.4802147,61.6145945 Z" id="Oval" fill="#FFFFFF" transform="translate(95.461604, 102.880856) scale(-1, -1) rotate(14.000000) translate(-95.461604, -102.880856) "></path>
                    <path d="M190.576995,26.2702478 C219.308877,28.4781744 227.367925,47.8362261 227.097503,61.6765239 C226.858243,73.9219988 242.128237,73.6440691 242.367498,61.3985942 C242.908903,33.6892102 219.844748,11.654096 190.852266,12.1817893 C161.859783,12.7094825 137.917836,35.6001564 137.376431,63.3095404 C137.162278,74.2699759 151.919144,74.0013857 152.133297,63.0409501 C152.80444,28.6914993 187.414594,26.0272303 190.576995,26.2702478 Z" id="Oval" fill="#FFC988" transform="translate(189.875480, 41.784656) scale(-1, -1) rotate(14.000000) translate(-189.875480, -41.784656) "></path>
                    <path d="M161.444175,82.0446127 L181.810317,89.428016" id="Line" stroke-linecap="square"></path>
                    <path d="M155.625277,98.9427394 L174.536695,106.879697" id="Line" stroke-linecap="square"></path>
                    <path d="M145.442207,113.981823 L164.353624,121.918781" id="Line" stroke-linecap="square"></path>
                    <path d="M131.378103,127.519117 L151.178351,137.755747" id="Line" stroke-linecap="square"></path>
                    <path d="M117.384344,136.375017 L131.110011,150.785665" id="Line" stroke-linecap="square"></path>
                </g>
                <g id="Group-6" transform="translate(124.000000, 269.821325) scale(1, -1) translate(-124.000000, -269.821325) translate(0.000000, 176.821325)" stroke="#2A2D2E" stroke-width="3">
                    <path d="M155.072969,39.4422049 C173.204783,44.4178723 211.640015,94.1996943 211.064638,123.647762 C210.555561,149.702518 234.355691,149.269331 234.864767,123.214575 C236.016718,64.2571863 200.318217,17.1295259 155.129934,17.9519994 C109.941651,18.774473 72.3754685,67.2356265 71.2235177,126.193015 C70.767864,149.513587 93.7682205,149.094956 94.2238741,125.774385 C95.6518697,52.6888942 150.414481,38.1638394 155.072969,39.4422049 Z" id="Oval" fill="#FFECE1" transform="translate(153.054358, 80.708467) rotate(14.000000) translate(-153.054358, -80.708467) "></path>
                    <path d="M59.3419979,128.739804 C88.07388,130.947731 96.1329272,150.305782 95.8625058,164.14608 C95.6232451,176.391555 110.89324,176.113625 111.132501,163.86815 C111.673906,136.158766 88.6097507,114.123652 59.6172681,114.651345 C30.6247854,115.179039 6.68283867,138.069712 6.14143329,165.779096 C5.92728061,176.739532 20.6841465,176.470942 20.8982992,165.510506 C21.5694428,131.161055 56.1795967,128.496786 59.3419979,128.739804 Z" id="Oval" fill="#FFB3E2" transform="translate(58.640483, 144.254212) rotate(14.000000) translate(-58.640483, -144.254212) "></path>
                    <path d="M133.622969,22.7768183 L142.351315,41.5709359" id="Line-2" stroke-linecap="square"></path>
                    <path d="M111.802103,36.201188 L122.28135,51.6392133" id="Line-2" stroke-linecap="square"></path>
                    <path d="M94.3454098,52.3104317 L107.437929,65.063583" id="Line-2" stroke-linecap="square"></path>
                    <path d="M81.2528901,69.4808358 L95.072772,80.6192727" id="Line-2" stroke-linecap="square"></path>
                    <path d="M68.1603704,94.0566417 L84.8897011,103.323037" id="Line-2" stroke-linecap="square"></path>
                    <path d="M155.072969,39.4422049 C173.204783,44.4178723 211.640015,94.1996943 211.064638,123.647762 C210.555561,149.702518 234.355691,149.269331 234.864767,123.214575 C236.016718,64.2571863 200.318217,17.1295259 155.129934,17.9519994 C109.941651,18.774473 72.3754685,67.2356265 71.2235177,126.193015 C70.767864,149.513587 93.7682205,149.094956 94.2238741,125.774385 C95.6518697,52.6888942 150.414481,38.1638394 155.072969,39.4422049 Z" id="Oval" fill="#FFFFFF" transform="translate(153.054358, 80.708467) rotate(14.000000) translate(-153.054358, -80.708467) "></path>
                    <path d="M59.3419979,128.739804 C88.07388,130.947731 96.1329272,150.305782 95.8625058,164.14608 C95.6232451,176.391555 110.89324,176.113625 111.132501,163.86815 C111.673906,136.158766 88.6097507,114.123652 59.6172681,114.651345 C30.6247854,115.179039 6.68283867,138.069712 6.14143329,165.779096 C5.92728061,176.739532 20.6841465,176.470942 20.8982992,165.510506 C21.5694428,131.161055 56.1795967,128.496786 59.3419979,128.739804 Z" id="Oval" fill="#FFC988" transform="translate(58.640483, 144.254212) rotate(14.000000) translate(-58.640483, -144.254212) "></path>
                    <path d="M111.802103,36.201188 L122.28135,51.6392133" id="Line-2" stroke-linecap="square"></path>
                    <path d="M94.3454098,52.3104317 L107.437929,65.063583" id="Line-2" stroke-linecap="square"></path>
                    <path d="M81.2528901,69.4808358 L95.072772,80.6192727" id="Line-2" stroke-linecap="square"></path>
                    <path d="M68.1603704,94.0566417 L84.8897011,103.323037" id="Line-2" stroke-linecap="square"></path>
                </g>
                <path d="M235.892839,39.885377 L235.892839,124.317427 C305.669411,117.796053 351.268955,114.535608 372.745873,114.535608 C394.217408,114.535608 438.446243,117.794057 505.484837,124.311236 L505.484837,39.807211 C462.23182,21.4255488 419.89469,12.2394958 378.465487,12.2394958 C336.978299,12.2394958 289.451643,21.4509625 235.892839,39.8853792 Z" id="Rectangle" stroke="#2A2D2E" stroke-width="3" fill="#FFFFFF"></path>
                <path d="M224.102069,34.1944657 L224.102069,134.39028 C300.895637,126.680262 351.075447,122.82553 374.700078,122.82553 C398.319393,122.82553 446.9923,126.678109 520.775295,134.383594 L520.775297,34.1134392 C473.172397,12.3671656 426.5797,1.5 380.987919,1.5 C335.339821,1.5 283.041906,12.3936427 224.102069,34.1944678 Z" id="Rectangle" stroke="#2A2D2E" stroke-width="3" fill="#D5FFD1"></path>
                <path d="M235.892839,39.885377 L235.892839,124.317427 C305.669411,117.796053 351.268955,114.535608 372.745873,114.535608 C394.217408,114.535608 438.446243,117.794057 505.484837,124.311236 L505.484837,39.807211 C462.23182,21.4255488 419.89469,12.2394958 378.465487,12.2394958 C336.978299,12.2394958 289.451643,21.4509625 235.892839,39.8853792 Z" id="Rectangle" stroke="#2A2D2E" stroke-width="3" fill="#FFFFFF"></path>
                <path d="M316.769832,32.3280204 C300.476683,30.4585846 280.188708,52.9213028 278.084068,68.9388437 C275.979428,84.9563846 289.214491,99.6554848 307.64541,101.770203 C326.076329,103.884921 342.723688,92.6144564 344.828328,76.5969156 C346.932969,60.5793747 333.062982,34.1974561 316.769832,32.3280204 Z" id="Oval" stroke="#2A2D2E" stroke-width="3"></path>
                <path d="M429.632945,32.3280204 C445.926094,30.4585846 466.214069,52.9213028 468.318709,68.9388437 C470.42335,84.9563846 457.188286,99.6554848 438.757367,101.770203 C420.326449,103.884921 403.679089,92.6144564 401.574449,76.5969156 C399.469809,60.5793747 413.339795,34.1974561 429.632945,32.3280204 Z" id="Oval" stroke="#2A2D2E" stroke-width="3"></path>
                <ellipse id="Oval" fill="#2A2D2E" cx="433.126551" cy="67.1218487" rx="20.0357755" ry="18.7941176"></ellipse>
                <ellipse id="Oval" fill="#FFFFFF" cx="437.408016" cy="62.4233193" rx="7.40273691" ry="7.38340336"></ellipse>
                <ellipse id="Oval" fill="#2A2D2E" cx="433.126551" cy="67.1218487" rx="20.0357755" ry="18.7941176"></ellipse>
                <ellipse id="Oval" fill="#FFFFFF" cx="437.408016" cy="62.4233193" rx="7.40273691" ry="7.38340336"></ellipse>
                <ellipse id="Oval" fill="#2A2D2E" cx="314.344831" cy="67.1218487" rx="20.0357755" ry="18.7941176"></ellipse>
                <ellipse id="Oval" fill="#FFFFFF" cx="318.626295" cy="62.4233193" rx="7.40273691" ry="7.38340336"></ellipse>
                <path d="M373.061496,100.682773 C379.176614,100.682773 384.133898,95.5844177 384.133898,89.2952775 C384.133898,88.2725126 382.140496,88.7076965 382.038235,88.6235999 C381.511676,88.1905731 381.189122,97.2993034 373.061496,97.2993034 C364.893882,97.2993034 364.747497,88.0845618 364.235584,88.6235999 C364.13916,88.7251331 361.989093,88.2984221 361.989093,89.2952775 C361.989093,95.5844177 366.946377,100.682773 373.061496,100.682773 Z" id="Oval" fill="#2A2D2E"></path>
                <rect id="Rectangle" stroke="#2A2D2E" stroke-width="3" fill="#FFFFFF" x="350.116552" y="119.634454" width="41.289609" height="31.9033613"></rect>
                <g id="Group-8" transform="translate(127.317620, 141.796057)">
                    <rect id="Rectangle" stroke="#2A2D2E" stroke-width="3" fill="#FFC988" x="1.5" y="1.5" width="486.093866" height="434.634454" rx="217.317227"></rect>
                    <rect id="Rectangle" fill="#FFFFFF" x="15.8385319" y="18.4822032" width="456.14972" height="401.70057" rx="200.850285"></rect>
                </g>
                <path d="M235.892839,39.885377 L235.892839,124.317427 C305.669411,117.796053 351.268955,114.535608 372.745873,114.535608 C394.217408,114.535608 438.446243,117.794057 505.484837,124.311236 L505.484837,39.807211 C462.23182,21.4255488 419.89469,12.2394958 378.465487,12.2394958 C336.978299,12.2394958 289.451643,21.4509625 235.892839,39.8853792 Z" id="Rectangle" stroke="#2A2D2E" stroke-width="3" fill="#FFFFFF"></path>
                <path d="M224.102069,34.1944657 L224.102069,134.39028 C300.895637,126.680262 351.075447,122.82553 374.700078,122.82553 C398.319393,122.82553 446.9923,126.678109 520.775295,134.383594 L520.775297,34.1134392 C473.172397,12.3671656 426.5797,1.5 380.987919,1.5 C335.339821,1.5 283.041906,12.3936427 224.102069,34.1944678 Z" id="Rectangle" stroke="#2A2D2E" stroke-width="3" fill="#FFC988"></path>
                <path d="M235.892839,39.885377 L235.892839,124.317427 C305.669411,117.796053 351.268955,114.535608 372.745873,114.535608 C394.217408,114.535608 438.446243,117.794057 505.484837,124.311236 L505.484837,39.807211 C462.23182,21.4255488 419.89469,12.2394958 378.465487,12.2394958 C336.978299,12.2394958 289.451643,21.4509625 235.892839,39.8853792 Z" id="Rectangle" stroke="#2A2D2E" stroke-width="3" fill="#FFFFFF"></path>
                <ellipse id="Oval" fill="#FFFFFF" cx="437.408016" cy="62.4233193" rx="7.40273691" ry="7.38340336"></ellipse>
                <ellipse id="Oval" fill="#2A2D2E" cx="421.398215" cy="79.2037815" rx="20.0357755" ry="22.8214286"></ellipse>
                <ellipse id="Oval" fill="#2A2D2E" cx="323.221798" cy="79.2037815" rx="20.0357755" ry="22.8214286"></ellipse>
                <polygon id="Triangle" fill="#FFC988" transform="translate(330.818120, 355.312369) scale(-1, 1) rotate(88.000000) translate(-330.818120, -355.312369) " points="331.570066 215.470261 469.103215 494.347702 192.533025 495.154477"></polygon>
                <text id="W" font-family="Futura-Medium, Futura" font-size="100" font-weight="400" fill="#FFFFFF">
                    <tspan x="301.774527" y="376.82662">W</tspan>
                </text>
                <g id="Group-5" transform="translate(244.848425, 433.691621)">
                    <rect id="Rectangle" fill="#FFFFFF" x="0" y="-2.84217094e-14" width="97.6111577" height="61.2109429" rx="3"></rect>
                    <g id="email" transform="translate(0.000000, -0.000000)" fill="#000000" fill-rule="nonzero" stroke="#FFFFFF">
                        <path d="M89.0320521,0 L8.57910566,0 C3.85449685,0 0,3.16978514 0,7.0628011 L0,54.1481418 C0,58.0279739 3.83733864,61.2109429 8.57910566,61.2109429 L89.0320521,61.2109429 C93.7448408,61.2109429 97.6111577,58.0518304 97.6111577,54.1481418 L97.6111577,7.0628011 C97.6111577,3.18296903 93.7738191,0 89.0320521,0 Z M87.8473729,4.70853407 L48.9874559,36.7003549 L9.79142861,4.70853407 L87.8473729,4.70853407 Z M5.71940377,53.1731613 L5.71940377,8.01533755 L33.2638617,30.4970182 L5.71940377,53.1731613 Z M9.76359418,56.5024088 L37.325401,33.8119831 L46.9829955,41.6943831 C48.1009483,42.606897 49.9050389,42.6039149 51.0184162,41.6871633 L60.4350332,33.9348759 L87.8475635,56.5024088 L9.76359418,56.5024088 Z M91.8917539,53.1730044 L64.4792236,30.6054714 L91.8917539,8.03778156 L91.8917539,53.1730044 Z" id="Shape"></path>
                    </g>
                </g>
                <g id="Group-5" transform="translate(484.961468, 323.851088)">
                    <rect id="Rectangle" fill="#FFFFFF" x="0" y="-2.84217094e-14" width="97.6111577" height="61.2109429" rx="3"></rect>
                    <g id="email" transform="translate(0.000000, -0.000000)" fill="#000000" fill-rule="nonzero" stroke="#FFFFFF">
                        <path d="M89.0320521,0 L8.57910566,0 C3.85449685,0 0,3.16978514 0,7.0628011 L0,54.1481418 C0,58.0279739 3.83733864,61.2109429 8.57910566,61.2109429 L89.0320521,61.2109429 C93.7448408,61.2109429 97.6111577,58.0518304 97.6111577,54.1481418 L97.6111577,7.0628011 C97.6111577,3.18296903 93.7738191,0 89.0320521,0 Z M87.8473729,4.70853407 L48.9874559,36.7003549 L9.79142861,4.70853407 L87.8473729,4.70853407 Z M5.71940377,53.1731613 L5.71940377,8.01533755 L33.2638617,30.4970182 L5.71940377,53.1731613 Z M9.76359418,56.5024088 L37.325401,33.8119831 L46.9829955,41.6943831 C48.1009483,42.606897 49.9050389,42.6039149 51.0184162,41.6871633 L60.4350332,33.9348759 L87.8475635,56.5024088 L9.76359418,56.5024088 Z M91.8917539,53.1730044 L64.4792236,30.6054714 L91.8917539,8.03778156 L91.8917539,53.1730044 Z" id="Shape"></path>
                    </g>
                </g>
                <g id="Group-5" transform="translate(246.119078, 199.614742)">
                    <rect id="Rectangle" fill="#FFFFFF" x="0" y="-2.84217094e-14" width="97.6111577" height="61.2109429" rx="3"></rect>
                    <g id="email" transform="translate(0.000000, -0.000000)" fill="#000000" fill-rule="nonzero" stroke="#FFFFFF">
                        <path d="M89.0320521,0 L8.57910566,0 C3.85449685,0 0,3.16978514 0,7.0628011 L0,54.1481418 C0,58.0279739 3.83733864,61.2109429 8.57910566,61.2109429 L89.0320521,61.2109429 C93.7448408,61.2109429 97.6111577,58.0518304 97.6111577,54.1481418 L97.6111577,7.0628011 C97.6111577,3.18296903 93.7738191,0 89.0320521,0 Z M87.8473729,4.70853407 L48.9874559,36.7003549 L9.79142861,4.70853407 L87.8473729,4.70853407 Z M5.71940377,53.1731613 L5.71940377,8.01533755 L33.2638617,30.4970182 L5.71940377,53.1731613 Z M9.76359418,56.5024088 L37.325401,33.8119831 L46.9829955,41.6943831 C48.1009483,42.606897 49.9050389,42.6039149 51.0184162,41.6871633 L60.4350332,33.9348759 L87.8475635,56.5024088 L9.76359418,56.5024088 Z M91.8917539,53.1730044 L64.4792236,30.6054714 L91.8917539,8.03778156 L91.8917539,53.1730044 Z" id="Shape"></path>
                    </g>
                </g>
                <text id="left" transform="translate(293.953025, 280.266006) rotate(-1.000000) translate(-293.953025, -280.266006) " font-family="Arial-BoldMT, Arial" font-size="12" font-weight="bold" fill="#040000">
                    <tspan x="280.860505" y="284.266006">left</tspan>
                </text>
                <text id="right" font-family="Arial-BoldMT, Arial" font-size="12" font-weight="bold" fill="#000000">
                    <tspan x="515.160732" y="405.353128">right</tspan>
                </text>
                <text id="forwards:of" font-family="Arial-BoldMT, Arial" font-size="12" font-weight="bold" fill="#000000">
                    <tspan x="244.848425" y="518.909058">forwards:of</tspan>
                </text>
                <g id="Group-10" transform="translate(240.774781, 575.905462)" stroke="#2A2D2E" stroke-width="3">
                    <rect id="Rectangle" fill="#FFC988" x="1.5" y="1.5" width="279.216535" height="27.8760504" rx="13.9380252"></rect>
                    <rect id="Rectangle" fill="#FFC988" x="49.5059055" y="44.4579832" width="174.476378" height="17.1365546" rx="5"></rect>
                    <rect id="Rectangle" fill="#898989" x="100.42126" y="28.3487395" width="71.1909449" height="17.1365546"></rect>
                    <path d="M101.684802,42.9579832 L122.924213,30.2048319" id="Line-3" stroke-linecap="square"></path>
                    <path d="M119.324713,43.6292017 L141.83563,29.5336134" id="Line-3" stroke-linecap="square"></path>
                    <path d="M137.32555,43.6292017 L159.836467,29.5336134" id="Line-3" stroke-linecap="square"></path>
                    <path d="M155.591281,43.6292017 L169.475394,35.5745798" id="Line-3" stroke-linecap="square"></path>
                    <path d="M102.558071,31.5472689 L105.46752,29.5336134" id="Line-3" stroke-linecap="square"></path>
                </g>
            </g>
            <g id="message" transform="translate(690.556878, 0.000000)" fill="#000000" fill-rule="nonzero" stroke="#FFFFFF" stroke-width="30">
                <path d="M1270.02937,469.818197 C1270.02689,467.820181 1269.59991,464.802397 1268.85767,463.063863 C1266.904,455.658227 1262.56225,448.893513 1256.06327,444.170928 L1074.1216,311.969682 L1074.1216,170.250612 C1074.1216,151.464065 1059.54482,136.227241 1041.57209,136.227241 L832.256758,136.227241 L654.160365,6.80246037 C643.029186,-1.29599464 628.251328,-1.32972739 617.085395,6.73499487 L437.839641,136.227241 L229.440324,136.227241 C211.462625,136.227241 196.890809,151.464065 196.890809,170.250612 L196.890809,310.301209 L14.0654023,442.380497 C5.07158789,448.877944 0.206041016,459.265036 0.0521308594,469.885663 C0.0422011719,470.085465 0,470.274887 0,470.482473 L0.970626953,1208.02312 C0.983039063,1217.04533 4.42367578,1225.69389 10.532916,1232.06679 C16.634709,1238.42671 24.9011738,1241.99719 33.5201426,1241.99719 C33.5375195,1241.99719 33.5499316,1241.99719 33.5648262,1241.99719 L1238.49517,1240.26644 C1256.4679,1240.24049 1271.02482,1224.9855 1271,1206.19636 L1270.02937,469.818197 Z M1074.11912,394.845861 L1178.12763,470.402034 L1074.11912,545.984154 L1074.11912,394.845861 Z M635.537236,76.1388322 L718.226709,136.224646 L552.371139,136.224646 L635.537236,76.1388322 Z M261.98984,204.273983 L1009.02009,204.273983 L1009.02009,593.293039 L758.206113,775.558876 L655.945227,692.643775 C655.786352,692.514034 655.649818,692.433594 655.495908,692.316827 C644.066838,683.354294 627.901307,683.024751 616.040295,692.643775 L513.037164,776.158281 L261.98984,594.798039 L261.98984,204.273983 Z M196.890809,393.016508 L196.890809,547.77199 L89.7842344,470.396844 L196.890809,393.016508 Z M65.1834336,535.379096 L459.06683,819.914849 L65.9778086,1138.62188 L65.1834336,535.379096 Z M128.775635,1173.81552 L635.994002,762.576957 L1141.39275,1172.35982 L128.775635,1173.81552 Z M812.109422,819.263547 L1205.01723,533.739165 L1205.8116,1138.48695 L812.109422,819.263547 Z" id="Shape"></path>
            </g>
            <polygon id="Triangle" fill="#FFFFFF" points="1331.05688 763 1645.55688 1064 1016.55688 1064"></polygon>
        </g>
    </g>
</svg>